G04 #@! TF.GenerationSoftware,KiCad,Pcbnew,(5.1.5)-3*
G04 #@! TF.CreationDate,2020-04-23T23:36:20+02:00*
G04 #@! TF.ProjectId,01_spi_pont_H,30315f73-7069-45f7-906f-6e745f482e6b,rev?*
G04 #@! TF.SameCoordinates,Original*
G04 #@! TF.FileFunction,Soldermask,Top*
G04 #@! TF.FilePolarity,Negative*
%FSLAX46Y46*%
G04 Gerber Fmt 4.6, Leading zero omitted, Abs format (unit mm)*
G04 Created by KiCad (PCBNEW (5.1.5)-3) date 2020-04-23 23:36:20*
%MOMM*%
%LPD*%
G04 APERTURE LIST*
%ADD10C,0.100000*%
G04 APERTURE END LIST*
D10*
G36*
X144613512Y-86963927D02*
G01*
X144762812Y-86993624D01*
X144926784Y-87061544D01*
X145074354Y-87160147D01*
X145199853Y-87285646D01*
X145298456Y-87433216D01*
X145366376Y-87597188D01*
X145401000Y-87771259D01*
X145401000Y-87948741D01*
X145366376Y-88122812D01*
X145298456Y-88286784D01*
X145199853Y-88434354D01*
X145074354Y-88559853D01*
X144926784Y-88658456D01*
X144762812Y-88726376D01*
X144613512Y-88756073D01*
X144588742Y-88761000D01*
X144411258Y-88761000D01*
X144386488Y-88756073D01*
X144237188Y-88726376D01*
X144073216Y-88658456D01*
X143925646Y-88559853D01*
X143800147Y-88434354D01*
X143701544Y-88286784D01*
X143633624Y-88122812D01*
X143599000Y-87948741D01*
X143599000Y-87771259D01*
X143633624Y-87597188D01*
X143701544Y-87433216D01*
X143800147Y-87285646D01*
X143925646Y-87160147D01*
X144073216Y-87061544D01*
X144237188Y-86993624D01*
X144386488Y-86963927D01*
X144411258Y-86959000D01*
X144588742Y-86959000D01*
X144613512Y-86963927D01*
G37*
G36*
X116613512Y-86963927D02*
G01*
X116762812Y-86993624D01*
X116926784Y-87061544D01*
X117074354Y-87160147D01*
X117199853Y-87285646D01*
X117298456Y-87433216D01*
X117366376Y-87597188D01*
X117401000Y-87771259D01*
X117401000Y-87948741D01*
X117366376Y-88122812D01*
X117298456Y-88286784D01*
X117199853Y-88434354D01*
X117074354Y-88559853D01*
X116926784Y-88658456D01*
X116762812Y-88726376D01*
X116613512Y-88756073D01*
X116588742Y-88761000D01*
X116411258Y-88761000D01*
X116386488Y-88756073D01*
X116237188Y-88726376D01*
X116073216Y-88658456D01*
X115925646Y-88559853D01*
X115800147Y-88434354D01*
X115701544Y-88286784D01*
X115633624Y-88122812D01*
X115599000Y-87948741D01*
X115599000Y-87771259D01*
X115633624Y-87597188D01*
X115701544Y-87433216D01*
X115800147Y-87285646D01*
X115925646Y-87160147D01*
X116073216Y-87061544D01*
X116237188Y-86993624D01*
X116386488Y-86963927D01*
X116411258Y-86959000D01*
X116588742Y-86959000D01*
X116613512Y-86963927D01*
G37*
G36*
X116613512Y-84423927D02*
G01*
X116762812Y-84453624D01*
X116926784Y-84521544D01*
X117074354Y-84620147D01*
X117199853Y-84745646D01*
X117298456Y-84893216D01*
X117366376Y-85057188D01*
X117401000Y-85231259D01*
X117401000Y-85408741D01*
X117366376Y-85582812D01*
X117298456Y-85746784D01*
X117199853Y-85894354D01*
X117074354Y-86019853D01*
X116926784Y-86118456D01*
X116762812Y-86186376D01*
X116613512Y-86216073D01*
X116588742Y-86221000D01*
X116411258Y-86221000D01*
X116386488Y-86216073D01*
X116237188Y-86186376D01*
X116073216Y-86118456D01*
X115925646Y-86019853D01*
X115800147Y-85894354D01*
X115701544Y-85746784D01*
X115633624Y-85582812D01*
X115599000Y-85408741D01*
X115599000Y-85231259D01*
X115633624Y-85057188D01*
X115701544Y-84893216D01*
X115800147Y-84745646D01*
X115925646Y-84620147D01*
X116073216Y-84521544D01*
X116237188Y-84453624D01*
X116386488Y-84423927D01*
X116411258Y-84419000D01*
X116588742Y-84419000D01*
X116613512Y-84423927D01*
G37*
G36*
X144613512Y-84423927D02*
G01*
X144762812Y-84453624D01*
X144926784Y-84521544D01*
X145074354Y-84620147D01*
X145199853Y-84745646D01*
X145298456Y-84893216D01*
X145366376Y-85057188D01*
X145401000Y-85231259D01*
X145401000Y-85408741D01*
X145366376Y-85582812D01*
X145298456Y-85746784D01*
X145199853Y-85894354D01*
X145074354Y-86019853D01*
X144926784Y-86118456D01*
X144762812Y-86186376D01*
X144613512Y-86216073D01*
X144588742Y-86221000D01*
X144411258Y-86221000D01*
X144386488Y-86216073D01*
X144237188Y-86186376D01*
X144073216Y-86118456D01*
X143925646Y-86019853D01*
X143800147Y-85894354D01*
X143701544Y-85746784D01*
X143633624Y-85582812D01*
X143599000Y-85408741D01*
X143599000Y-85231259D01*
X143633624Y-85057188D01*
X143701544Y-84893216D01*
X143800147Y-84745646D01*
X143925646Y-84620147D01*
X144073216Y-84521544D01*
X144237188Y-84453624D01*
X144386488Y-84423927D01*
X144411258Y-84419000D01*
X144588742Y-84419000D01*
X144613512Y-84423927D01*
G37*
G36*
X116613512Y-81883927D02*
G01*
X116762812Y-81913624D01*
X116926784Y-81981544D01*
X117074354Y-82080147D01*
X117199853Y-82205646D01*
X117298456Y-82353216D01*
X117366376Y-82517188D01*
X117401000Y-82691259D01*
X117401000Y-82868741D01*
X117366376Y-83042812D01*
X117298456Y-83206784D01*
X117199853Y-83354354D01*
X117074354Y-83479853D01*
X116926784Y-83578456D01*
X116762812Y-83646376D01*
X116613512Y-83676073D01*
X116588742Y-83681000D01*
X116411258Y-83681000D01*
X116386488Y-83676073D01*
X116237188Y-83646376D01*
X116073216Y-83578456D01*
X115925646Y-83479853D01*
X115800147Y-83354354D01*
X115701544Y-83206784D01*
X115633624Y-83042812D01*
X115599000Y-82868741D01*
X115599000Y-82691259D01*
X115633624Y-82517188D01*
X115701544Y-82353216D01*
X115800147Y-82205646D01*
X115925646Y-82080147D01*
X116073216Y-81981544D01*
X116237188Y-81913624D01*
X116386488Y-81883927D01*
X116411258Y-81879000D01*
X116588742Y-81879000D01*
X116613512Y-81883927D01*
G37*
G36*
X144613512Y-81883927D02*
G01*
X144762812Y-81913624D01*
X144926784Y-81981544D01*
X145074354Y-82080147D01*
X145199853Y-82205646D01*
X145298456Y-82353216D01*
X145366376Y-82517188D01*
X145401000Y-82691259D01*
X145401000Y-82868741D01*
X145366376Y-83042812D01*
X145298456Y-83206784D01*
X145199853Y-83354354D01*
X145074354Y-83479853D01*
X144926784Y-83578456D01*
X144762812Y-83646376D01*
X144613512Y-83676073D01*
X144588742Y-83681000D01*
X144411258Y-83681000D01*
X144386488Y-83676073D01*
X144237188Y-83646376D01*
X144073216Y-83578456D01*
X143925646Y-83479853D01*
X143800147Y-83354354D01*
X143701544Y-83206784D01*
X143633624Y-83042812D01*
X143599000Y-82868741D01*
X143599000Y-82691259D01*
X143633624Y-82517188D01*
X143701544Y-82353216D01*
X143800147Y-82205646D01*
X143925646Y-82080147D01*
X144073216Y-81981544D01*
X144237188Y-81913624D01*
X144386488Y-81883927D01*
X144411258Y-81879000D01*
X144588742Y-81879000D01*
X144613512Y-81883927D01*
G37*
G36*
X139634928Y-82906764D02*
G01*
X139656009Y-82913160D01*
X139675445Y-82923548D01*
X139692476Y-82937524D01*
X139706452Y-82954555D01*
X139716840Y-82973991D01*
X139723236Y-82995072D01*
X139726000Y-83023140D01*
X139726000Y-83486860D01*
X139723236Y-83514928D01*
X139716840Y-83536009D01*
X139706452Y-83555445D01*
X139692476Y-83572476D01*
X139675445Y-83586452D01*
X139656009Y-83596840D01*
X139634928Y-83603236D01*
X139606860Y-83606000D01*
X137693140Y-83606000D01*
X137665072Y-83603236D01*
X137643991Y-83596840D01*
X137624555Y-83586452D01*
X137607524Y-83572476D01*
X137593548Y-83555445D01*
X137583160Y-83536009D01*
X137576764Y-83514928D01*
X137574000Y-83486860D01*
X137574000Y-83023140D01*
X137576764Y-82995072D01*
X137583160Y-82973991D01*
X137593548Y-82954555D01*
X137607524Y-82937524D01*
X137624555Y-82923548D01*
X137643991Y-82913160D01*
X137665072Y-82906764D01*
X137693140Y-82904000D01*
X139606860Y-82904000D01*
X139634928Y-82906764D01*
G37*
G36*
X130334928Y-82906764D02*
G01*
X130356009Y-82913160D01*
X130375445Y-82923548D01*
X130392476Y-82937524D01*
X130406452Y-82954555D01*
X130416840Y-82973991D01*
X130423236Y-82995072D01*
X130426000Y-83023140D01*
X130426000Y-83486860D01*
X130423236Y-83514928D01*
X130416840Y-83536009D01*
X130406452Y-83555445D01*
X130392476Y-83572476D01*
X130375445Y-83586452D01*
X130356009Y-83596840D01*
X130334928Y-83603236D01*
X130306860Y-83606000D01*
X128393140Y-83606000D01*
X128365072Y-83603236D01*
X128343991Y-83596840D01*
X128324555Y-83586452D01*
X128307524Y-83572476D01*
X128293548Y-83555445D01*
X128283160Y-83536009D01*
X128276764Y-83514928D01*
X128274000Y-83486860D01*
X128274000Y-83023140D01*
X128276764Y-82995072D01*
X128283160Y-82973991D01*
X128293548Y-82954555D01*
X128307524Y-82937524D01*
X128324555Y-82923548D01*
X128343991Y-82913160D01*
X128365072Y-82906764D01*
X128393140Y-82904000D01*
X130306860Y-82904000D01*
X130334928Y-82906764D01*
G37*
G36*
X139634928Y-81636764D02*
G01*
X139656009Y-81643160D01*
X139675445Y-81653548D01*
X139692476Y-81667524D01*
X139706452Y-81684555D01*
X139716840Y-81703991D01*
X139723236Y-81725072D01*
X139726000Y-81753140D01*
X139726000Y-82216860D01*
X139723236Y-82244928D01*
X139716840Y-82266009D01*
X139706452Y-82285445D01*
X139692476Y-82302476D01*
X139675445Y-82316452D01*
X139656009Y-82326840D01*
X139634928Y-82333236D01*
X139606860Y-82336000D01*
X137693140Y-82336000D01*
X137665072Y-82333236D01*
X137643991Y-82326840D01*
X137624555Y-82316452D01*
X137607524Y-82302476D01*
X137593548Y-82285445D01*
X137583160Y-82266009D01*
X137576764Y-82244928D01*
X137574000Y-82216860D01*
X137574000Y-81753140D01*
X137576764Y-81725072D01*
X137583160Y-81703991D01*
X137593548Y-81684555D01*
X137607524Y-81667524D01*
X137624555Y-81653548D01*
X137643991Y-81643160D01*
X137665072Y-81636764D01*
X137693140Y-81634000D01*
X139606860Y-81634000D01*
X139634928Y-81636764D01*
G37*
G36*
X130334928Y-81636764D02*
G01*
X130356009Y-81643160D01*
X130375445Y-81653548D01*
X130392476Y-81667524D01*
X130406452Y-81684555D01*
X130416840Y-81703991D01*
X130423236Y-81725072D01*
X130426000Y-81753140D01*
X130426000Y-82216860D01*
X130423236Y-82244928D01*
X130416840Y-82266009D01*
X130406452Y-82285445D01*
X130392476Y-82302476D01*
X130375445Y-82316452D01*
X130356009Y-82326840D01*
X130334928Y-82333236D01*
X130306860Y-82336000D01*
X128393140Y-82336000D01*
X128365072Y-82333236D01*
X128343991Y-82326840D01*
X128324555Y-82316452D01*
X128307524Y-82302476D01*
X128293548Y-82285445D01*
X128283160Y-82266009D01*
X128276764Y-82244928D01*
X128274000Y-82216860D01*
X128274000Y-81753140D01*
X128276764Y-81725072D01*
X128283160Y-81703991D01*
X128293548Y-81684555D01*
X128307524Y-81667524D01*
X128324555Y-81653548D01*
X128343991Y-81643160D01*
X128365072Y-81636764D01*
X128393140Y-81634000D01*
X130306860Y-81634000D01*
X130334928Y-81636764D01*
G37*
G36*
X144613512Y-79343927D02*
G01*
X144762812Y-79373624D01*
X144926784Y-79441544D01*
X145074354Y-79540147D01*
X145199853Y-79665646D01*
X145298456Y-79813216D01*
X145366376Y-79977188D01*
X145401000Y-80151259D01*
X145401000Y-80328741D01*
X145366376Y-80502812D01*
X145298456Y-80666784D01*
X145199853Y-80814354D01*
X145074354Y-80939853D01*
X144926784Y-81038456D01*
X144762812Y-81106376D01*
X144613512Y-81136073D01*
X144588742Y-81141000D01*
X144411258Y-81141000D01*
X144386488Y-81136073D01*
X144237188Y-81106376D01*
X144073216Y-81038456D01*
X143925646Y-80939853D01*
X143800147Y-80814354D01*
X143701544Y-80666784D01*
X143633624Y-80502812D01*
X143599000Y-80328741D01*
X143599000Y-80151259D01*
X143633624Y-79977188D01*
X143701544Y-79813216D01*
X143800147Y-79665646D01*
X143925646Y-79540147D01*
X144073216Y-79441544D01*
X144237188Y-79373624D01*
X144386488Y-79343927D01*
X144411258Y-79339000D01*
X144588742Y-79339000D01*
X144613512Y-79343927D01*
G37*
G36*
X116613512Y-79343927D02*
G01*
X116762812Y-79373624D01*
X116926784Y-79441544D01*
X117074354Y-79540147D01*
X117199853Y-79665646D01*
X117298456Y-79813216D01*
X117366376Y-79977188D01*
X117401000Y-80151259D01*
X117401000Y-80328741D01*
X117366376Y-80502812D01*
X117298456Y-80666784D01*
X117199853Y-80814354D01*
X117074354Y-80939853D01*
X116926784Y-81038456D01*
X116762812Y-81106376D01*
X116613512Y-81136073D01*
X116588742Y-81141000D01*
X116411258Y-81141000D01*
X116386488Y-81136073D01*
X116237188Y-81106376D01*
X116073216Y-81038456D01*
X115925646Y-80939853D01*
X115800147Y-80814354D01*
X115701544Y-80666784D01*
X115633624Y-80502812D01*
X115599000Y-80328741D01*
X115599000Y-80151259D01*
X115633624Y-79977188D01*
X115701544Y-79813216D01*
X115800147Y-79665646D01*
X115925646Y-79540147D01*
X116073216Y-79441544D01*
X116237188Y-79373624D01*
X116386488Y-79343927D01*
X116411258Y-79339000D01*
X116588742Y-79339000D01*
X116613512Y-79343927D01*
G37*
G36*
X130334928Y-80366764D02*
G01*
X130356009Y-80373160D01*
X130375445Y-80383548D01*
X130392476Y-80397524D01*
X130406452Y-80414555D01*
X130416840Y-80433991D01*
X130423236Y-80455072D01*
X130426000Y-80483140D01*
X130426000Y-80946860D01*
X130423236Y-80974928D01*
X130416840Y-80996009D01*
X130406452Y-81015445D01*
X130392476Y-81032476D01*
X130375445Y-81046452D01*
X130356009Y-81056840D01*
X130334928Y-81063236D01*
X130306860Y-81066000D01*
X128393140Y-81066000D01*
X128365072Y-81063236D01*
X128343991Y-81056840D01*
X128324555Y-81046452D01*
X128307524Y-81032476D01*
X128293548Y-81015445D01*
X128283160Y-80996009D01*
X128276764Y-80974928D01*
X128274000Y-80946860D01*
X128274000Y-80483140D01*
X128276764Y-80455072D01*
X128283160Y-80433991D01*
X128293548Y-80414555D01*
X128307524Y-80397524D01*
X128324555Y-80383548D01*
X128343991Y-80373160D01*
X128365072Y-80366764D01*
X128393140Y-80364000D01*
X130306860Y-80364000D01*
X130334928Y-80366764D01*
G37*
G36*
X139634928Y-80366764D02*
G01*
X139656009Y-80373160D01*
X139675445Y-80383548D01*
X139692476Y-80397524D01*
X139706452Y-80414555D01*
X139716840Y-80433991D01*
X139723236Y-80455072D01*
X139726000Y-80483140D01*
X139726000Y-80946860D01*
X139723236Y-80974928D01*
X139716840Y-80996009D01*
X139706452Y-81015445D01*
X139692476Y-81032476D01*
X139675445Y-81046452D01*
X139656009Y-81056840D01*
X139634928Y-81063236D01*
X139606860Y-81066000D01*
X137693140Y-81066000D01*
X137665072Y-81063236D01*
X137643991Y-81056840D01*
X137624555Y-81046452D01*
X137607524Y-81032476D01*
X137593548Y-81015445D01*
X137583160Y-80996009D01*
X137576764Y-80974928D01*
X137574000Y-80946860D01*
X137574000Y-80483140D01*
X137576764Y-80455072D01*
X137583160Y-80433991D01*
X137593548Y-80414555D01*
X137607524Y-80397524D01*
X137624555Y-80383548D01*
X137643991Y-80373160D01*
X137665072Y-80366764D01*
X137693140Y-80364000D01*
X139606860Y-80364000D01*
X139634928Y-80366764D01*
G37*
G36*
X139634928Y-79096764D02*
G01*
X139656009Y-79103160D01*
X139675445Y-79113548D01*
X139692476Y-79127524D01*
X139706452Y-79144555D01*
X139716840Y-79163991D01*
X139723236Y-79185072D01*
X139726000Y-79213140D01*
X139726000Y-79676860D01*
X139723236Y-79704928D01*
X139716840Y-79726009D01*
X139706452Y-79745445D01*
X139692476Y-79762476D01*
X139675445Y-79776452D01*
X139656009Y-79786840D01*
X139634928Y-79793236D01*
X139606860Y-79796000D01*
X137693140Y-79796000D01*
X137665072Y-79793236D01*
X137643991Y-79786840D01*
X137624555Y-79776452D01*
X137607524Y-79762476D01*
X137593548Y-79745445D01*
X137583160Y-79726009D01*
X137576764Y-79704928D01*
X137574000Y-79676860D01*
X137574000Y-79213140D01*
X137576764Y-79185072D01*
X137583160Y-79163991D01*
X137593548Y-79144555D01*
X137607524Y-79127524D01*
X137624555Y-79113548D01*
X137643991Y-79103160D01*
X137665072Y-79096764D01*
X137693140Y-79094000D01*
X139606860Y-79094000D01*
X139634928Y-79096764D01*
G37*
G36*
X130334928Y-79096764D02*
G01*
X130356009Y-79103160D01*
X130375445Y-79113548D01*
X130392476Y-79127524D01*
X130406452Y-79144555D01*
X130416840Y-79163991D01*
X130423236Y-79185072D01*
X130426000Y-79213140D01*
X130426000Y-79676860D01*
X130423236Y-79704928D01*
X130416840Y-79726009D01*
X130406452Y-79745445D01*
X130392476Y-79762476D01*
X130375445Y-79776452D01*
X130356009Y-79786840D01*
X130334928Y-79793236D01*
X130306860Y-79796000D01*
X128393140Y-79796000D01*
X128365072Y-79793236D01*
X128343991Y-79786840D01*
X128324555Y-79776452D01*
X128307524Y-79762476D01*
X128293548Y-79745445D01*
X128283160Y-79726009D01*
X128276764Y-79704928D01*
X128274000Y-79676860D01*
X128274000Y-79213140D01*
X128276764Y-79185072D01*
X128283160Y-79163991D01*
X128293548Y-79144555D01*
X128307524Y-79127524D01*
X128324555Y-79113548D01*
X128343991Y-79103160D01*
X128365072Y-79096764D01*
X128393140Y-79094000D01*
X130306860Y-79094000D01*
X130334928Y-79096764D01*
G37*
G36*
X124768604Y-78228347D02*
G01*
X124805144Y-78239432D01*
X124838821Y-78257433D01*
X124868341Y-78281659D01*
X124892567Y-78311179D01*
X124910568Y-78344856D01*
X124921653Y-78381396D01*
X124926000Y-78425538D01*
X124926000Y-79374462D01*
X124921653Y-79418604D01*
X124910568Y-79455144D01*
X124892567Y-79488821D01*
X124868341Y-79518341D01*
X124838821Y-79542567D01*
X124805144Y-79560568D01*
X124768604Y-79571653D01*
X124724462Y-79576000D01*
X123275538Y-79576000D01*
X123231396Y-79571653D01*
X123194856Y-79560568D01*
X123161179Y-79542567D01*
X123131659Y-79518341D01*
X123107433Y-79488821D01*
X123089432Y-79455144D01*
X123078347Y-79418604D01*
X123074000Y-79374462D01*
X123074000Y-78425538D01*
X123078347Y-78381396D01*
X123089432Y-78344856D01*
X123107433Y-78311179D01*
X123131659Y-78281659D01*
X123161179Y-78257433D01*
X123194856Y-78239432D01*
X123231396Y-78228347D01*
X123275538Y-78224000D01*
X124724462Y-78224000D01*
X124768604Y-78228347D01*
G37*
G36*
X116613512Y-76803927D02*
G01*
X116762812Y-76833624D01*
X116926784Y-76901544D01*
X117074354Y-77000147D01*
X117199853Y-77125646D01*
X117298456Y-77273216D01*
X117366376Y-77437188D01*
X117401000Y-77611259D01*
X117401000Y-77788741D01*
X117366376Y-77962812D01*
X117298456Y-78126784D01*
X117199853Y-78274354D01*
X117074354Y-78399853D01*
X116926784Y-78498456D01*
X116762812Y-78566376D01*
X116613512Y-78596073D01*
X116588742Y-78601000D01*
X116411258Y-78601000D01*
X116386488Y-78596073D01*
X116237188Y-78566376D01*
X116073216Y-78498456D01*
X115925646Y-78399853D01*
X115800147Y-78274354D01*
X115701544Y-78126784D01*
X115633624Y-77962812D01*
X115599000Y-77788741D01*
X115599000Y-77611259D01*
X115633624Y-77437188D01*
X115701544Y-77273216D01*
X115800147Y-77125646D01*
X115925646Y-77000147D01*
X116073216Y-76901544D01*
X116237188Y-76833624D01*
X116386488Y-76803927D01*
X116411258Y-76799000D01*
X116588742Y-76799000D01*
X116613512Y-76803927D01*
G37*
G36*
X144613512Y-76803927D02*
G01*
X144762812Y-76833624D01*
X144926784Y-76901544D01*
X145074354Y-77000147D01*
X145199853Y-77125646D01*
X145298456Y-77273216D01*
X145366376Y-77437188D01*
X145401000Y-77611259D01*
X145401000Y-77788741D01*
X145366376Y-77962812D01*
X145298456Y-78126784D01*
X145199853Y-78274354D01*
X145074354Y-78399853D01*
X144926784Y-78498456D01*
X144762812Y-78566376D01*
X144613512Y-78596073D01*
X144588742Y-78601000D01*
X144411258Y-78601000D01*
X144386488Y-78596073D01*
X144237188Y-78566376D01*
X144073216Y-78498456D01*
X143925646Y-78399853D01*
X143800147Y-78274354D01*
X143701544Y-78126784D01*
X143633624Y-77962812D01*
X143599000Y-77788741D01*
X143599000Y-77611259D01*
X143633624Y-77437188D01*
X143701544Y-77273216D01*
X143800147Y-77125646D01*
X143925646Y-77000147D01*
X144073216Y-76901544D01*
X144237188Y-76833624D01*
X144386488Y-76803927D01*
X144411258Y-76799000D01*
X144588742Y-76799000D01*
X144613512Y-76803927D01*
G37*
G36*
X142084468Y-77466065D02*
G01*
X142123138Y-77477796D01*
X142158777Y-77496846D01*
X142190017Y-77522483D01*
X142215654Y-77553723D01*
X142234704Y-77589362D01*
X142246435Y-77628032D01*
X142251000Y-77674388D01*
X142251000Y-78325612D01*
X142246435Y-78371968D01*
X142234704Y-78410638D01*
X142215654Y-78446277D01*
X142190017Y-78477517D01*
X142158777Y-78503154D01*
X142123138Y-78522204D01*
X142084468Y-78533935D01*
X142038112Y-78538500D01*
X140961888Y-78538500D01*
X140915532Y-78533935D01*
X140876862Y-78522204D01*
X140841223Y-78503154D01*
X140809983Y-78477517D01*
X140784346Y-78446277D01*
X140765296Y-78410638D01*
X140753565Y-78371968D01*
X140749000Y-78325612D01*
X140749000Y-77674388D01*
X140753565Y-77628032D01*
X140765296Y-77589362D01*
X140784346Y-77553723D01*
X140809983Y-77522483D01*
X140841223Y-77496846D01*
X140876862Y-77477796D01*
X140915532Y-77466065D01*
X140961888Y-77461500D01*
X142038112Y-77461500D01*
X142084468Y-77466065D01*
G37*
G36*
X130334928Y-77826764D02*
G01*
X130356009Y-77833160D01*
X130375445Y-77843548D01*
X130392476Y-77857524D01*
X130406452Y-77874555D01*
X130416840Y-77893991D01*
X130423236Y-77915072D01*
X130426000Y-77943140D01*
X130426000Y-78406860D01*
X130423236Y-78434928D01*
X130416840Y-78456009D01*
X130406452Y-78475445D01*
X130392476Y-78492476D01*
X130375445Y-78506452D01*
X130356009Y-78516840D01*
X130334928Y-78523236D01*
X130306860Y-78526000D01*
X128393140Y-78526000D01*
X128365072Y-78523236D01*
X128343991Y-78516840D01*
X128324555Y-78506452D01*
X128307524Y-78492476D01*
X128293548Y-78475445D01*
X128283160Y-78456009D01*
X128276764Y-78434928D01*
X128274000Y-78406860D01*
X128274000Y-77943140D01*
X128276764Y-77915072D01*
X128283160Y-77893991D01*
X128293548Y-77874555D01*
X128307524Y-77857524D01*
X128324555Y-77843548D01*
X128343991Y-77833160D01*
X128365072Y-77826764D01*
X128393140Y-77824000D01*
X130306860Y-77824000D01*
X130334928Y-77826764D01*
G37*
G36*
X139634928Y-77826764D02*
G01*
X139656009Y-77833160D01*
X139675445Y-77843548D01*
X139692476Y-77857524D01*
X139706452Y-77874555D01*
X139716840Y-77893991D01*
X139723236Y-77915072D01*
X139726000Y-77943140D01*
X139726000Y-78406860D01*
X139723236Y-78434928D01*
X139716840Y-78456009D01*
X139706452Y-78475445D01*
X139692476Y-78492476D01*
X139675445Y-78506452D01*
X139656009Y-78516840D01*
X139634928Y-78523236D01*
X139606860Y-78526000D01*
X137693140Y-78526000D01*
X137665072Y-78523236D01*
X137643991Y-78516840D01*
X137624555Y-78506452D01*
X137607524Y-78492476D01*
X137593548Y-78475445D01*
X137583160Y-78456009D01*
X137576764Y-78434928D01*
X137574000Y-78406860D01*
X137574000Y-77943140D01*
X137576764Y-77915072D01*
X137583160Y-77893991D01*
X137593548Y-77874555D01*
X137607524Y-77857524D01*
X137624555Y-77843548D01*
X137643991Y-77833160D01*
X137665072Y-77826764D01*
X137693140Y-77824000D01*
X139606860Y-77824000D01*
X139634928Y-77826764D01*
G37*
G36*
X127084468Y-77403565D02*
G01*
X127123138Y-77415296D01*
X127158777Y-77434346D01*
X127190017Y-77459983D01*
X127215654Y-77491223D01*
X127234704Y-77526862D01*
X127246435Y-77565532D01*
X127251000Y-77611888D01*
X127251000Y-78263112D01*
X127246435Y-78309468D01*
X127234704Y-78348138D01*
X127215654Y-78383777D01*
X127190017Y-78415017D01*
X127158777Y-78440654D01*
X127123138Y-78459704D01*
X127084468Y-78471435D01*
X127038112Y-78476000D01*
X125961888Y-78476000D01*
X125915532Y-78471435D01*
X125876862Y-78459704D01*
X125841223Y-78440654D01*
X125809983Y-78415017D01*
X125784346Y-78383777D01*
X125765296Y-78348138D01*
X125753565Y-78309468D01*
X125749000Y-78263112D01*
X125749000Y-77611888D01*
X125753565Y-77565532D01*
X125765296Y-77526862D01*
X125784346Y-77491223D01*
X125809983Y-77459983D01*
X125841223Y-77434346D01*
X125876862Y-77415296D01*
X125915532Y-77403565D01*
X125961888Y-77399000D01*
X127038112Y-77399000D01*
X127084468Y-77403565D01*
G37*
G36*
X121451000Y-77301000D02*
G01*
X119549000Y-77301000D01*
X119549000Y-74699000D01*
X121451000Y-74699000D01*
X121451000Y-77301000D01*
G37*
G36*
X130334928Y-76556764D02*
G01*
X130356009Y-76563160D01*
X130375445Y-76573548D01*
X130392476Y-76587524D01*
X130406452Y-76604555D01*
X130416840Y-76623991D01*
X130423236Y-76645072D01*
X130426000Y-76673140D01*
X130426000Y-77136860D01*
X130423236Y-77164928D01*
X130416840Y-77186009D01*
X130406452Y-77205445D01*
X130392476Y-77222476D01*
X130375445Y-77236452D01*
X130356009Y-77246840D01*
X130334928Y-77253236D01*
X130306860Y-77256000D01*
X128393140Y-77256000D01*
X128365072Y-77253236D01*
X128343991Y-77246840D01*
X128324555Y-77236452D01*
X128307524Y-77222476D01*
X128293548Y-77205445D01*
X128283160Y-77186009D01*
X128276764Y-77164928D01*
X128274000Y-77136860D01*
X128274000Y-76673140D01*
X128276764Y-76645072D01*
X128283160Y-76623991D01*
X128293548Y-76604555D01*
X128307524Y-76587524D01*
X128324555Y-76573548D01*
X128343991Y-76563160D01*
X128365072Y-76556764D01*
X128393140Y-76554000D01*
X130306860Y-76554000D01*
X130334928Y-76556764D01*
G37*
G36*
X139634928Y-76556764D02*
G01*
X139656009Y-76563160D01*
X139675445Y-76573548D01*
X139692476Y-76587524D01*
X139706452Y-76604555D01*
X139716840Y-76623991D01*
X139723236Y-76645072D01*
X139726000Y-76673140D01*
X139726000Y-77136860D01*
X139723236Y-77164928D01*
X139716840Y-77186009D01*
X139706452Y-77205445D01*
X139692476Y-77222476D01*
X139675445Y-77236452D01*
X139656009Y-77246840D01*
X139634928Y-77253236D01*
X139606860Y-77256000D01*
X137693140Y-77256000D01*
X137665072Y-77253236D01*
X137643991Y-77246840D01*
X137624555Y-77236452D01*
X137607524Y-77222476D01*
X137593548Y-77205445D01*
X137583160Y-77186009D01*
X137576764Y-77164928D01*
X137574000Y-77136860D01*
X137574000Y-76673140D01*
X137576764Y-76645072D01*
X137583160Y-76623991D01*
X137593548Y-76604555D01*
X137607524Y-76587524D01*
X137624555Y-76573548D01*
X137643991Y-76563160D01*
X137665072Y-76556764D01*
X137693140Y-76554000D01*
X139606860Y-76554000D01*
X139634928Y-76556764D01*
G37*
G36*
X124768604Y-75428347D02*
G01*
X124805144Y-75439432D01*
X124838821Y-75457433D01*
X124868341Y-75481659D01*
X124892567Y-75511179D01*
X124910568Y-75544856D01*
X124921653Y-75581396D01*
X124926000Y-75625538D01*
X124926000Y-76574462D01*
X124921653Y-76618604D01*
X124910568Y-76655144D01*
X124892567Y-76688821D01*
X124868341Y-76718341D01*
X124838821Y-76742567D01*
X124805144Y-76760568D01*
X124768604Y-76771653D01*
X124724462Y-76776000D01*
X123275538Y-76776000D01*
X123231396Y-76771653D01*
X123194856Y-76760568D01*
X123161179Y-76742567D01*
X123131659Y-76718341D01*
X123107433Y-76688821D01*
X123089432Y-76655144D01*
X123078347Y-76618604D01*
X123074000Y-76574462D01*
X123074000Y-75625538D01*
X123078347Y-75581396D01*
X123089432Y-75544856D01*
X123107433Y-75511179D01*
X123131659Y-75481659D01*
X123161179Y-75457433D01*
X123194856Y-75439432D01*
X123231396Y-75428347D01*
X123275538Y-75424000D01*
X124724462Y-75424000D01*
X124768604Y-75428347D01*
G37*
G36*
X142084468Y-75591065D02*
G01*
X142123138Y-75602796D01*
X142158777Y-75621846D01*
X142190017Y-75647483D01*
X142215654Y-75678723D01*
X142234704Y-75714362D01*
X142246435Y-75753032D01*
X142251000Y-75799388D01*
X142251000Y-76450612D01*
X142246435Y-76496968D01*
X142234704Y-76535638D01*
X142215654Y-76571277D01*
X142190017Y-76602517D01*
X142158777Y-76628154D01*
X142123138Y-76647204D01*
X142084468Y-76658935D01*
X142038112Y-76663500D01*
X140961888Y-76663500D01*
X140915532Y-76658935D01*
X140876862Y-76647204D01*
X140841223Y-76628154D01*
X140809983Y-76602517D01*
X140784346Y-76571277D01*
X140765296Y-76535638D01*
X140753565Y-76496968D01*
X140749000Y-76450612D01*
X140749000Y-75799388D01*
X140753565Y-75753032D01*
X140765296Y-75714362D01*
X140784346Y-75678723D01*
X140809983Y-75647483D01*
X140841223Y-75621846D01*
X140876862Y-75602796D01*
X140915532Y-75591065D01*
X140961888Y-75586500D01*
X142038112Y-75586500D01*
X142084468Y-75591065D01*
G37*
G36*
X127084468Y-75528565D02*
G01*
X127123138Y-75540296D01*
X127158777Y-75559346D01*
X127190017Y-75584983D01*
X127215654Y-75616223D01*
X127234704Y-75651862D01*
X127246435Y-75690532D01*
X127251000Y-75736888D01*
X127251000Y-76388112D01*
X127246435Y-76434468D01*
X127234704Y-76473138D01*
X127215654Y-76508777D01*
X127190017Y-76540017D01*
X127158777Y-76565654D01*
X127123138Y-76584704D01*
X127084468Y-76596435D01*
X127038112Y-76601000D01*
X125961888Y-76601000D01*
X125915532Y-76596435D01*
X125876862Y-76584704D01*
X125841223Y-76565654D01*
X125809983Y-76540017D01*
X125784346Y-76508777D01*
X125765296Y-76473138D01*
X125753565Y-76434468D01*
X125749000Y-76388112D01*
X125749000Y-75736888D01*
X125753565Y-75690532D01*
X125765296Y-75651862D01*
X125784346Y-75616223D01*
X125809983Y-75584983D01*
X125841223Y-75559346D01*
X125876862Y-75540296D01*
X125915532Y-75528565D01*
X125961888Y-75524000D01*
X127038112Y-75524000D01*
X127084468Y-75528565D01*
G37*
G36*
X116609414Y-74263112D02*
G01*
X116762812Y-74293624D01*
X116926784Y-74361544D01*
X117074354Y-74460147D01*
X117199853Y-74585646D01*
X117298456Y-74733216D01*
X117366376Y-74897188D01*
X117401000Y-75071259D01*
X117401000Y-75248741D01*
X117366376Y-75422812D01*
X117298456Y-75586784D01*
X117199853Y-75734354D01*
X117074354Y-75859853D01*
X116926784Y-75958456D01*
X116762812Y-76026376D01*
X116613512Y-76056073D01*
X116588742Y-76061000D01*
X116411258Y-76061000D01*
X116386488Y-76056073D01*
X116237188Y-76026376D01*
X116073216Y-75958456D01*
X115925646Y-75859853D01*
X115800147Y-75734354D01*
X115701544Y-75586784D01*
X115633624Y-75422812D01*
X115599000Y-75248741D01*
X115599000Y-75071259D01*
X115633624Y-74897188D01*
X115701544Y-74733216D01*
X115800147Y-74585646D01*
X115925646Y-74460147D01*
X116073216Y-74361544D01*
X116237188Y-74293624D01*
X116390586Y-74263112D01*
X116411258Y-74259000D01*
X116588742Y-74259000D01*
X116609414Y-74263112D01*
G37*
G36*
X144609414Y-74263112D02*
G01*
X144762812Y-74293624D01*
X144926784Y-74361544D01*
X145074354Y-74460147D01*
X145199853Y-74585646D01*
X145298456Y-74733216D01*
X145366376Y-74897188D01*
X145401000Y-75071259D01*
X145401000Y-75248741D01*
X145366376Y-75422812D01*
X145298456Y-75586784D01*
X145199853Y-75734354D01*
X145074354Y-75859853D01*
X144926784Y-75958456D01*
X144762812Y-76026376D01*
X144613512Y-76056073D01*
X144588742Y-76061000D01*
X144411258Y-76061000D01*
X144386488Y-76056073D01*
X144237188Y-76026376D01*
X144073216Y-75958456D01*
X143925646Y-75859853D01*
X143800147Y-75734354D01*
X143701544Y-75586784D01*
X143633624Y-75422812D01*
X143599000Y-75248741D01*
X143599000Y-75071259D01*
X143633624Y-74897188D01*
X143701544Y-74733216D01*
X143800147Y-74585646D01*
X143925646Y-74460147D01*
X144073216Y-74361544D01*
X144237188Y-74293624D01*
X144390586Y-74263112D01*
X144411258Y-74259000D01*
X144588742Y-74259000D01*
X144609414Y-74263112D01*
G37*
G36*
X139634928Y-75286764D02*
G01*
X139656009Y-75293160D01*
X139675445Y-75303548D01*
X139692476Y-75317524D01*
X139706452Y-75334555D01*
X139716840Y-75353991D01*
X139723236Y-75375072D01*
X139726000Y-75403140D01*
X139726000Y-75866860D01*
X139723236Y-75894928D01*
X139716840Y-75916009D01*
X139706452Y-75935445D01*
X139692476Y-75952476D01*
X139675445Y-75966452D01*
X139656009Y-75976840D01*
X139634928Y-75983236D01*
X139606860Y-75986000D01*
X137693140Y-75986000D01*
X137665072Y-75983236D01*
X137643991Y-75976840D01*
X137624555Y-75966452D01*
X137607524Y-75952476D01*
X137593548Y-75935445D01*
X137583160Y-75916009D01*
X137576764Y-75894928D01*
X137574000Y-75866860D01*
X137574000Y-75403140D01*
X137576764Y-75375072D01*
X137583160Y-75353991D01*
X137593548Y-75334555D01*
X137607524Y-75317524D01*
X137624555Y-75303548D01*
X137643991Y-75293160D01*
X137665072Y-75286764D01*
X137693140Y-75284000D01*
X139606860Y-75284000D01*
X139634928Y-75286764D01*
G37*
G36*
X130334928Y-75286764D02*
G01*
X130356009Y-75293160D01*
X130375445Y-75303548D01*
X130392476Y-75317524D01*
X130406452Y-75334555D01*
X130416840Y-75353991D01*
X130423236Y-75375072D01*
X130426000Y-75403140D01*
X130426000Y-75866860D01*
X130423236Y-75894928D01*
X130416840Y-75916009D01*
X130406452Y-75935445D01*
X130392476Y-75952476D01*
X130375445Y-75966452D01*
X130356009Y-75976840D01*
X130334928Y-75983236D01*
X130306860Y-75986000D01*
X128393140Y-75986000D01*
X128365072Y-75983236D01*
X128343991Y-75976840D01*
X128324555Y-75966452D01*
X128307524Y-75952476D01*
X128293548Y-75935445D01*
X128283160Y-75916009D01*
X128276764Y-75894928D01*
X128274000Y-75866860D01*
X128274000Y-75403140D01*
X128276764Y-75375072D01*
X128283160Y-75353991D01*
X128293548Y-75334555D01*
X128307524Y-75317524D01*
X128324555Y-75303548D01*
X128343991Y-75293160D01*
X128365072Y-75286764D01*
X128393140Y-75284000D01*
X130306860Y-75284000D01*
X130334928Y-75286764D01*
G37*
G36*
X124768604Y-73628347D02*
G01*
X124805144Y-73639432D01*
X124838821Y-73657433D01*
X124868341Y-73681659D01*
X124892567Y-73711179D01*
X124910568Y-73744856D01*
X124921653Y-73781396D01*
X124926000Y-73825538D01*
X124926000Y-74774462D01*
X124921653Y-74818604D01*
X124910568Y-74855144D01*
X124892567Y-74888821D01*
X124868341Y-74918341D01*
X124838821Y-74942567D01*
X124805144Y-74960568D01*
X124768604Y-74971653D01*
X124724462Y-74976000D01*
X123275538Y-74976000D01*
X123231396Y-74971653D01*
X123194856Y-74960568D01*
X123161179Y-74942567D01*
X123131659Y-74918341D01*
X123107433Y-74888821D01*
X123089432Y-74855144D01*
X123078347Y-74818604D01*
X123074000Y-74774462D01*
X123074000Y-73825538D01*
X123078347Y-73781396D01*
X123089432Y-73744856D01*
X123107433Y-73711179D01*
X123131659Y-73681659D01*
X123161179Y-73657433D01*
X123194856Y-73639432D01*
X123231396Y-73628347D01*
X123275538Y-73624000D01*
X124724462Y-73624000D01*
X124768604Y-73628347D01*
G37*
G36*
X139634928Y-74016764D02*
G01*
X139656009Y-74023160D01*
X139675445Y-74033548D01*
X139692476Y-74047524D01*
X139706452Y-74064555D01*
X139716840Y-74083991D01*
X139723236Y-74105072D01*
X139726000Y-74133140D01*
X139726000Y-74596860D01*
X139723236Y-74624928D01*
X139716840Y-74646009D01*
X139706452Y-74665445D01*
X139692476Y-74682476D01*
X139675445Y-74696452D01*
X139656009Y-74706840D01*
X139634928Y-74713236D01*
X139606860Y-74716000D01*
X137693140Y-74716000D01*
X137665072Y-74713236D01*
X137643991Y-74706840D01*
X137624555Y-74696452D01*
X137607524Y-74682476D01*
X137593548Y-74665445D01*
X137583160Y-74646009D01*
X137576764Y-74624928D01*
X137574000Y-74596860D01*
X137574000Y-74133140D01*
X137576764Y-74105072D01*
X137583160Y-74083991D01*
X137593548Y-74064555D01*
X137607524Y-74047524D01*
X137624555Y-74033548D01*
X137643991Y-74023160D01*
X137665072Y-74016764D01*
X137693140Y-74014000D01*
X139606860Y-74014000D01*
X139634928Y-74016764D01*
G37*
G36*
X130334928Y-74016764D02*
G01*
X130356009Y-74023160D01*
X130375445Y-74033548D01*
X130392476Y-74047524D01*
X130406452Y-74064555D01*
X130416840Y-74083991D01*
X130423236Y-74105072D01*
X130426000Y-74133140D01*
X130426000Y-74596860D01*
X130423236Y-74624928D01*
X130416840Y-74646009D01*
X130406452Y-74665445D01*
X130392476Y-74682476D01*
X130375445Y-74696452D01*
X130356009Y-74706840D01*
X130334928Y-74713236D01*
X130306860Y-74716000D01*
X128393140Y-74716000D01*
X128365072Y-74713236D01*
X128343991Y-74706840D01*
X128324555Y-74696452D01*
X128307524Y-74682476D01*
X128293548Y-74665445D01*
X128283160Y-74646009D01*
X128276764Y-74624928D01*
X128274000Y-74596860D01*
X128274000Y-74133140D01*
X128276764Y-74105072D01*
X128283160Y-74083991D01*
X128293548Y-74064555D01*
X128307524Y-74047524D01*
X128324555Y-74033548D01*
X128343991Y-74023160D01*
X128365072Y-74016764D01*
X128393140Y-74014000D01*
X130306860Y-74014000D01*
X130334928Y-74016764D01*
G37*
G36*
X127084468Y-73403565D02*
G01*
X127123138Y-73415296D01*
X127158777Y-73434346D01*
X127190017Y-73459983D01*
X127215654Y-73491223D01*
X127234704Y-73526862D01*
X127246435Y-73565532D01*
X127251000Y-73611888D01*
X127251000Y-74263112D01*
X127246435Y-74309468D01*
X127234704Y-74348138D01*
X127215654Y-74383777D01*
X127190017Y-74415017D01*
X127158777Y-74440654D01*
X127123138Y-74459704D01*
X127084468Y-74471435D01*
X127038112Y-74476000D01*
X125961888Y-74476000D01*
X125915532Y-74471435D01*
X125876862Y-74459704D01*
X125841223Y-74440654D01*
X125809983Y-74415017D01*
X125784346Y-74383777D01*
X125765296Y-74348138D01*
X125753565Y-74309468D01*
X125749000Y-74263112D01*
X125749000Y-73611888D01*
X125753565Y-73565532D01*
X125765296Y-73526862D01*
X125784346Y-73491223D01*
X125809983Y-73459983D01*
X125841223Y-73434346D01*
X125876862Y-73415296D01*
X125915532Y-73403565D01*
X125961888Y-73399000D01*
X127038112Y-73399000D01*
X127084468Y-73403565D01*
G37*
G36*
X116613512Y-71723927D02*
G01*
X116762812Y-71753624D01*
X116926784Y-71821544D01*
X117074354Y-71920147D01*
X117199853Y-72045646D01*
X117298456Y-72193216D01*
X117366376Y-72357188D01*
X117401000Y-72531259D01*
X117401000Y-72708741D01*
X117366376Y-72882812D01*
X117298456Y-73046784D01*
X117199853Y-73194354D01*
X117074354Y-73319853D01*
X116926784Y-73418456D01*
X116762812Y-73486376D01*
X116613512Y-73516073D01*
X116588742Y-73521000D01*
X116411258Y-73521000D01*
X116386488Y-73516073D01*
X116237188Y-73486376D01*
X116073216Y-73418456D01*
X115925646Y-73319853D01*
X115800147Y-73194354D01*
X115701544Y-73046784D01*
X115633624Y-72882812D01*
X115599000Y-72708741D01*
X115599000Y-72531259D01*
X115633624Y-72357188D01*
X115701544Y-72193216D01*
X115800147Y-72045646D01*
X115925646Y-71920147D01*
X116073216Y-71821544D01*
X116237188Y-71753624D01*
X116386488Y-71723927D01*
X116411258Y-71719000D01*
X116588742Y-71719000D01*
X116613512Y-71723927D01*
G37*
G36*
X144613512Y-71723927D02*
G01*
X144762812Y-71753624D01*
X144926784Y-71821544D01*
X145074354Y-71920147D01*
X145199853Y-72045646D01*
X145298456Y-72193216D01*
X145366376Y-72357188D01*
X145401000Y-72531259D01*
X145401000Y-72708741D01*
X145366376Y-72882812D01*
X145298456Y-73046784D01*
X145199853Y-73194354D01*
X145074354Y-73319853D01*
X144926784Y-73418456D01*
X144762812Y-73486376D01*
X144613512Y-73516073D01*
X144588742Y-73521000D01*
X144411258Y-73521000D01*
X144386488Y-73516073D01*
X144237188Y-73486376D01*
X144073216Y-73418456D01*
X143925646Y-73319853D01*
X143800147Y-73194354D01*
X143701544Y-73046784D01*
X143633624Y-72882812D01*
X143599000Y-72708741D01*
X143599000Y-72531259D01*
X143633624Y-72357188D01*
X143701544Y-72193216D01*
X143800147Y-72045646D01*
X143925646Y-71920147D01*
X144073216Y-71821544D01*
X144237188Y-71753624D01*
X144386488Y-71723927D01*
X144411258Y-71719000D01*
X144588742Y-71719000D01*
X144613512Y-71723927D01*
G37*
G36*
X130334928Y-72746764D02*
G01*
X130356009Y-72753160D01*
X130375445Y-72763548D01*
X130392476Y-72777524D01*
X130406452Y-72794555D01*
X130416840Y-72813991D01*
X130423236Y-72835072D01*
X130426000Y-72863140D01*
X130426000Y-73326860D01*
X130423236Y-73354928D01*
X130416840Y-73376009D01*
X130406452Y-73395445D01*
X130392476Y-73412476D01*
X130375445Y-73426452D01*
X130356009Y-73436840D01*
X130334928Y-73443236D01*
X130306860Y-73446000D01*
X128393140Y-73446000D01*
X128365072Y-73443236D01*
X128343991Y-73436840D01*
X128324555Y-73426452D01*
X128307524Y-73412476D01*
X128293548Y-73395445D01*
X128283160Y-73376009D01*
X128276764Y-73354928D01*
X128274000Y-73326860D01*
X128274000Y-72863140D01*
X128276764Y-72835072D01*
X128283160Y-72813991D01*
X128293548Y-72794555D01*
X128307524Y-72777524D01*
X128324555Y-72763548D01*
X128343991Y-72753160D01*
X128365072Y-72746764D01*
X128393140Y-72744000D01*
X130306860Y-72744000D01*
X130334928Y-72746764D01*
G37*
G36*
X139634928Y-72746764D02*
G01*
X139656009Y-72753160D01*
X139675445Y-72763548D01*
X139692476Y-72777524D01*
X139706452Y-72794555D01*
X139716840Y-72813991D01*
X139723236Y-72835072D01*
X139726000Y-72863140D01*
X139726000Y-73326860D01*
X139723236Y-73354928D01*
X139716840Y-73376009D01*
X139706452Y-73395445D01*
X139692476Y-73412476D01*
X139675445Y-73426452D01*
X139656009Y-73436840D01*
X139634928Y-73443236D01*
X139606860Y-73446000D01*
X137693140Y-73446000D01*
X137665072Y-73443236D01*
X137643991Y-73436840D01*
X137624555Y-73426452D01*
X137607524Y-73412476D01*
X137593548Y-73395445D01*
X137583160Y-73376009D01*
X137576764Y-73354928D01*
X137574000Y-73326860D01*
X137574000Y-72863140D01*
X137576764Y-72835072D01*
X137583160Y-72813991D01*
X137593548Y-72794555D01*
X137607524Y-72777524D01*
X137624555Y-72763548D01*
X137643991Y-72753160D01*
X137665072Y-72746764D01*
X137693140Y-72744000D01*
X139606860Y-72744000D01*
X139634928Y-72746764D01*
G37*
G36*
X121451000Y-73301000D02*
G01*
X119549000Y-73301000D01*
X119549000Y-70699000D01*
X121451000Y-70699000D01*
X121451000Y-73301000D01*
G37*
G36*
X127084468Y-71528565D02*
G01*
X127123138Y-71540296D01*
X127158777Y-71559346D01*
X127190017Y-71584983D01*
X127215654Y-71616223D01*
X127234704Y-71651862D01*
X127246435Y-71690532D01*
X127251000Y-71736888D01*
X127251000Y-72388112D01*
X127246435Y-72434468D01*
X127234704Y-72473138D01*
X127215654Y-72508777D01*
X127190017Y-72540017D01*
X127158777Y-72565654D01*
X127123138Y-72584704D01*
X127084468Y-72596435D01*
X127038112Y-72601000D01*
X125961888Y-72601000D01*
X125915532Y-72596435D01*
X125876862Y-72584704D01*
X125841223Y-72565654D01*
X125809983Y-72540017D01*
X125784346Y-72508777D01*
X125765296Y-72473138D01*
X125753565Y-72434468D01*
X125749000Y-72388112D01*
X125749000Y-71736888D01*
X125753565Y-71690532D01*
X125765296Y-71651862D01*
X125784346Y-71616223D01*
X125809983Y-71584983D01*
X125841223Y-71559346D01*
X125876862Y-71540296D01*
X125915532Y-71528565D01*
X125961888Y-71524000D01*
X127038112Y-71524000D01*
X127084468Y-71528565D01*
G37*
G36*
X139634928Y-71476764D02*
G01*
X139656009Y-71483160D01*
X139675445Y-71493548D01*
X139692476Y-71507524D01*
X139706452Y-71524555D01*
X139716840Y-71543991D01*
X139723236Y-71565072D01*
X139726000Y-71593140D01*
X139726000Y-72056860D01*
X139723236Y-72084928D01*
X139716840Y-72106009D01*
X139706452Y-72125445D01*
X139692476Y-72142476D01*
X139675445Y-72156452D01*
X139656009Y-72166840D01*
X139634928Y-72173236D01*
X139606860Y-72176000D01*
X137693140Y-72176000D01*
X137665072Y-72173236D01*
X137643991Y-72166840D01*
X137624555Y-72156452D01*
X137607524Y-72142476D01*
X137593548Y-72125445D01*
X137583160Y-72106009D01*
X137576764Y-72084928D01*
X137574000Y-72056860D01*
X137574000Y-71593140D01*
X137576764Y-71565072D01*
X137583160Y-71543991D01*
X137593548Y-71524555D01*
X137607524Y-71507524D01*
X137624555Y-71493548D01*
X137643991Y-71483160D01*
X137665072Y-71476764D01*
X137693140Y-71474000D01*
X139606860Y-71474000D01*
X139634928Y-71476764D01*
G37*
G36*
X124768604Y-70828347D02*
G01*
X124805144Y-70839432D01*
X124838821Y-70857433D01*
X124868341Y-70881659D01*
X124892567Y-70911179D01*
X124910568Y-70944856D01*
X124921653Y-70981396D01*
X124926000Y-71025538D01*
X124926000Y-71974462D01*
X124921653Y-72018604D01*
X124910568Y-72055144D01*
X124892567Y-72088821D01*
X124868341Y-72118341D01*
X124838821Y-72142567D01*
X124805144Y-72160568D01*
X124768604Y-72171653D01*
X124724462Y-72176000D01*
X123275538Y-72176000D01*
X123231396Y-72171653D01*
X123194856Y-72160568D01*
X123161179Y-72142567D01*
X123131659Y-72118341D01*
X123107433Y-72088821D01*
X123089432Y-72055144D01*
X123078347Y-72018604D01*
X123074000Y-71974462D01*
X123074000Y-71025538D01*
X123078347Y-70981396D01*
X123089432Y-70944856D01*
X123107433Y-70911179D01*
X123131659Y-70881659D01*
X123161179Y-70857433D01*
X123194856Y-70839432D01*
X123231396Y-70828347D01*
X123275538Y-70824000D01*
X124724462Y-70824000D01*
X124768604Y-70828347D01*
G37*
G36*
X130334928Y-71476764D02*
G01*
X130356009Y-71483160D01*
X130375445Y-71493548D01*
X130392476Y-71507524D01*
X130406452Y-71524555D01*
X130416840Y-71543991D01*
X130423236Y-71565072D01*
X130426000Y-71593140D01*
X130426000Y-72056860D01*
X130423236Y-72084928D01*
X130416840Y-72106009D01*
X130406452Y-72125445D01*
X130392476Y-72142476D01*
X130375445Y-72156452D01*
X130356009Y-72166840D01*
X130334928Y-72173236D01*
X130306860Y-72176000D01*
X128393140Y-72176000D01*
X128365072Y-72173236D01*
X128343991Y-72166840D01*
X128324555Y-72156452D01*
X128307524Y-72142476D01*
X128293548Y-72125445D01*
X128283160Y-72106009D01*
X128276764Y-72084928D01*
X128274000Y-72056860D01*
X128274000Y-71593140D01*
X128276764Y-71565072D01*
X128283160Y-71543991D01*
X128293548Y-71524555D01*
X128307524Y-71507524D01*
X128324555Y-71493548D01*
X128343991Y-71483160D01*
X128365072Y-71476764D01*
X128393140Y-71474000D01*
X130306860Y-71474000D01*
X130334928Y-71476764D01*
G37*
G36*
X116613512Y-69183927D02*
G01*
X116762812Y-69213624D01*
X116926784Y-69281544D01*
X117074354Y-69380147D01*
X117199853Y-69505646D01*
X117298456Y-69653216D01*
X117366376Y-69817188D01*
X117401000Y-69991259D01*
X117401000Y-70168741D01*
X117366376Y-70342812D01*
X117298456Y-70506784D01*
X117199853Y-70654354D01*
X117074354Y-70779853D01*
X116926784Y-70878456D01*
X116762812Y-70946376D01*
X116613512Y-70976073D01*
X116588742Y-70981000D01*
X116411258Y-70981000D01*
X116386488Y-70976073D01*
X116237188Y-70946376D01*
X116073216Y-70878456D01*
X115925646Y-70779853D01*
X115800147Y-70654354D01*
X115701544Y-70506784D01*
X115633624Y-70342812D01*
X115599000Y-70168741D01*
X115599000Y-69991259D01*
X115633624Y-69817188D01*
X115701544Y-69653216D01*
X115800147Y-69505646D01*
X115925646Y-69380147D01*
X116073216Y-69281544D01*
X116237188Y-69213624D01*
X116386488Y-69183927D01*
X116411258Y-69179000D01*
X116588742Y-69179000D01*
X116613512Y-69183927D01*
G37*
G36*
X144613512Y-69183927D02*
G01*
X144762812Y-69213624D01*
X144926784Y-69281544D01*
X145074354Y-69380147D01*
X145199853Y-69505646D01*
X145298456Y-69653216D01*
X145366376Y-69817188D01*
X145401000Y-69991259D01*
X145401000Y-70168741D01*
X145366376Y-70342812D01*
X145298456Y-70506784D01*
X145199853Y-70654354D01*
X145074354Y-70779853D01*
X144926784Y-70878456D01*
X144762812Y-70946376D01*
X144613512Y-70976073D01*
X144588742Y-70981000D01*
X144411258Y-70981000D01*
X144386488Y-70976073D01*
X144237188Y-70946376D01*
X144073216Y-70878456D01*
X143925646Y-70779853D01*
X143800147Y-70654354D01*
X143701544Y-70506784D01*
X143633624Y-70342812D01*
X143599000Y-70168741D01*
X143599000Y-69991259D01*
X143633624Y-69817188D01*
X143701544Y-69653216D01*
X143800147Y-69505646D01*
X143925646Y-69380147D01*
X144073216Y-69281544D01*
X144237188Y-69213624D01*
X144386488Y-69183927D01*
X144411258Y-69179000D01*
X144588742Y-69179000D01*
X144613512Y-69183927D01*
G37*
G36*
X130334928Y-70206764D02*
G01*
X130356009Y-70213160D01*
X130375445Y-70223548D01*
X130392476Y-70237524D01*
X130406452Y-70254555D01*
X130416840Y-70273991D01*
X130423236Y-70295072D01*
X130426000Y-70323140D01*
X130426000Y-70786860D01*
X130423236Y-70814928D01*
X130416840Y-70836009D01*
X130406452Y-70855445D01*
X130392476Y-70872476D01*
X130375445Y-70886452D01*
X130356009Y-70896840D01*
X130334928Y-70903236D01*
X130306860Y-70906000D01*
X128393140Y-70906000D01*
X128365072Y-70903236D01*
X128343991Y-70896840D01*
X128324555Y-70886452D01*
X128307524Y-70872476D01*
X128293548Y-70855445D01*
X128283160Y-70836009D01*
X128276764Y-70814928D01*
X128274000Y-70786860D01*
X128274000Y-70323140D01*
X128276764Y-70295072D01*
X128283160Y-70273991D01*
X128293548Y-70254555D01*
X128307524Y-70237524D01*
X128324555Y-70223548D01*
X128343991Y-70213160D01*
X128365072Y-70206764D01*
X128393140Y-70204000D01*
X130306860Y-70204000D01*
X130334928Y-70206764D01*
G37*
G36*
X139634928Y-70206764D02*
G01*
X139656009Y-70213160D01*
X139675445Y-70223548D01*
X139692476Y-70237524D01*
X139706452Y-70254555D01*
X139716840Y-70273991D01*
X139723236Y-70295072D01*
X139726000Y-70323140D01*
X139726000Y-70786860D01*
X139723236Y-70814928D01*
X139716840Y-70836009D01*
X139706452Y-70855445D01*
X139692476Y-70872476D01*
X139675445Y-70886452D01*
X139656009Y-70896840D01*
X139634928Y-70903236D01*
X139606860Y-70906000D01*
X137693140Y-70906000D01*
X137665072Y-70903236D01*
X137643991Y-70896840D01*
X137624555Y-70886452D01*
X137607524Y-70872476D01*
X137593548Y-70855445D01*
X137583160Y-70836009D01*
X137576764Y-70814928D01*
X137574000Y-70786860D01*
X137574000Y-70323140D01*
X137576764Y-70295072D01*
X137583160Y-70273991D01*
X137593548Y-70254555D01*
X137607524Y-70237524D01*
X137624555Y-70223548D01*
X137643991Y-70213160D01*
X137665072Y-70206764D01*
X137693140Y-70204000D01*
X139606860Y-70204000D01*
X139634928Y-70206764D01*
G37*
G36*
X130334928Y-68936764D02*
G01*
X130356009Y-68943160D01*
X130375445Y-68953548D01*
X130392476Y-68967524D01*
X130406452Y-68984555D01*
X130416840Y-69003991D01*
X130423236Y-69025072D01*
X130426000Y-69053140D01*
X130426000Y-69516860D01*
X130423236Y-69544928D01*
X130416840Y-69566009D01*
X130406452Y-69585445D01*
X130392476Y-69602476D01*
X130375445Y-69616452D01*
X130356009Y-69626840D01*
X130334928Y-69633236D01*
X130306860Y-69636000D01*
X128393140Y-69636000D01*
X128365072Y-69633236D01*
X128343991Y-69626840D01*
X128324555Y-69616452D01*
X128307524Y-69602476D01*
X128293548Y-69585445D01*
X128283160Y-69566009D01*
X128276764Y-69544928D01*
X128274000Y-69516860D01*
X128274000Y-69053140D01*
X128276764Y-69025072D01*
X128283160Y-69003991D01*
X128293548Y-68984555D01*
X128307524Y-68967524D01*
X128324555Y-68953548D01*
X128343991Y-68943160D01*
X128365072Y-68936764D01*
X128393140Y-68934000D01*
X130306860Y-68934000D01*
X130334928Y-68936764D01*
G37*
G36*
X139634928Y-68936764D02*
G01*
X139656009Y-68943160D01*
X139675445Y-68953548D01*
X139692476Y-68967524D01*
X139706452Y-68984555D01*
X139716840Y-69003991D01*
X139723236Y-69025072D01*
X139726000Y-69053140D01*
X139726000Y-69516860D01*
X139723236Y-69544928D01*
X139716840Y-69566009D01*
X139706452Y-69585445D01*
X139692476Y-69602476D01*
X139675445Y-69616452D01*
X139656009Y-69626840D01*
X139634928Y-69633236D01*
X139606860Y-69636000D01*
X137693140Y-69636000D01*
X137665072Y-69633236D01*
X137643991Y-69626840D01*
X137624555Y-69616452D01*
X137607524Y-69602476D01*
X137593548Y-69585445D01*
X137583160Y-69566009D01*
X137576764Y-69544928D01*
X137574000Y-69516860D01*
X137574000Y-69053140D01*
X137576764Y-69025072D01*
X137583160Y-69003991D01*
X137593548Y-68984555D01*
X137607524Y-68967524D01*
X137624555Y-68953548D01*
X137643991Y-68943160D01*
X137665072Y-68936764D01*
X137693140Y-68934000D01*
X139606860Y-68934000D01*
X139634928Y-68936764D01*
G37*
G36*
X116613512Y-66643927D02*
G01*
X116762812Y-66673624D01*
X116926784Y-66741544D01*
X117074354Y-66840147D01*
X117199853Y-66965646D01*
X117298456Y-67113216D01*
X117366376Y-67277188D01*
X117401000Y-67451259D01*
X117401000Y-67628741D01*
X117366376Y-67802812D01*
X117298456Y-67966784D01*
X117199853Y-68114354D01*
X117074354Y-68239853D01*
X116926784Y-68338456D01*
X116762812Y-68406376D01*
X116613512Y-68436073D01*
X116588742Y-68441000D01*
X116411258Y-68441000D01*
X116386488Y-68436073D01*
X116237188Y-68406376D01*
X116073216Y-68338456D01*
X115925646Y-68239853D01*
X115800147Y-68114354D01*
X115701544Y-67966784D01*
X115633624Y-67802812D01*
X115599000Y-67628741D01*
X115599000Y-67451259D01*
X115633624Y-67277188D01*
X115701544Y-67113216D01*
X115800147Y-66965646D01*
X115925646Y-66840147D01*
X116073216Y-66741544D01*
X116237188Y-66673624D01*
X116386488Y-66643927D01*
X116411258Y-66639000D01*
X116588742Y-66639000D01*
X116613512Y-66643927D01*
G37*
G36*
X144613512Y-66643927D02*
G01*
X144762812Y-66673624D01*
X144926784Y-66741544D01*
X145074354Y-66840147D01*
X145199853Y-66965646D01*
X145298456Y-67113216D01*
X145366376Y-67277188D01*
X145401000Y-67451259D01*
X145401000Y-67628741D01*
X145366376Y-67802812D01*
X145298456Y-67966784D01*
X145199853Y-68114354D01*
X145074354Y-68239853D01*
X144926784Y-68338456D01*
X144762812Y-68406376D01*
X144613512Y-68436073D01*
X144588742Y-68441000D01*
X144411258Y-68441000D01*
X144386488Y-68436073D01*
X144237188Y-68406376D01*
X144073216Y-68338456D01*
X143925646Y-68239853D01*
X143800147Y-68114354D01*
X143701544Y-67966784D01*
X143633624Y-67802812D01*
X143599000Y-67628741D01*
X143599000Y-67451259D01*
X143633624Y-67277188D01*
X143701544Y-67113216D01*
X143800147Y-66965646D01*
X143925646Y-66840147D01*
X144073216Y-66741544D01*
X144237188Y-66673624D01*
X144386488Y-66643927D01*
X144411258Y-66639000D01*
X144588742Y-66639000D01*
X144613512Y-66643927D01*
G37*
G36*
X130334928Y-67666764D02*
G01*
X130356009Y-67673160D01*
X130375445Y-67683548D01*
X130392476Y-67697524D01*
X130406452Y-67714555D01*
X130416840Y-67733991D01*
X130423236Y-67755072D01*
X130426000Y-67783140D01*
X130426000Y-68246860D01*
X130423236Y-68274928D01*
X130416840Y-68296009D01*
X130406452Y-68315445D01*
X130392476Y-68332476D01*
X130375445Y-68346452D01*
X130356009Y-68356840D01*
X130334928Y-68363236D01*
X130306860Y-68366000D01*
X128393140Y-68366000D01*
X128365072Y-68363236D01*
X128343991Y-68356840D01*
X128324555Y-68346452D01*
X128307524Y-68332476D01*
X128293548Y-68315445D01*
X128283160Y-68296009D01*
X128276764Y-68274928D01*
X128274000Y-68246860D01*
X128274000Y-67783140D01*
X128276764Y-67755072D01*
X128283160Y-67733991D01*
X128293548Y-67714555D01*
X128307524Y-67697524D01*
X128324555Y-67683548D01*
X128343991Y-67673160D01*
X128365072Y-67666764D01*
X128393140Y-67664000D01*
X130306860Y-67664000D01*
X130334928Y-67666764D01*
G37*
G36*
X139634928Y-67666764D02*
G01*
X139656009Y-67673160D01*
X139675445Y-67683548D01*
X139692476Y-67697524D01*
X139706452Y-67714555D01*
X139716840Y-67733991D01*
X139723236Y-67755072D01*
X139726000Y-67783140D01*
X139726000Y-68246860D01*
X139723236Y-68274928D01*
X139716840Y-68296009D01*
X139706452Y-68315445D01*
X139692476Y-68332476D01*
X139675445Y-68346452D01*
X139656009Y-68356840D01*
X139634928Y-68363236D01*
X139606860Y-68366000D01*
X137693140Y-68366000D01*
X137665072Y-68363236D01*
X137643991Y-68356840D01*
X137624555Y-68346452D01*
X137607524Y-68332476D01*
X137593548Y-68315445D01*
X137583160Y-68296009D01*
X137576764Y-68274928D01*
X137574000Y-68246860D01*
X137574000Y-67783140D01*
X137576764Y-67755072D01*
X137583160Y-67733991D01*
X137593548Y-67714555D01*
X137607524Y-67697524D01*
X137624555Y-67683548D01*
X137643991Y-67673160D01*
X137665072Y-67666764D01*
X137693140Y-67664000D01*
X139606860Y-67664000D01*
X139634928Y-67666764D01*
G37*
G36*
X130334928Y-66396764D02*
G01*
X130356009Y-66403160D01*
X130375445Y-66413548D01*
X130392476Y-66427524D01*
X130406452Y-66444555D01*
X130416840Y-66463991D01*
X130423236Y-66485072D01*
X130426000Y-66513140D01*
X130426000Y-66976860D01*
X130423236Y-67004928D01*
X130416840Y-67026009D01*
X130406452Y-67045445D01*
X130392476Y-67062476D01*
X130375445Y-67076452D01*
X130356009Y-67086840D01*
X130334928Y-67093236D01*
X130306860Y-67096000D01*
X128393140Y-67096000D01*
X128365072Y-67093236D01*
X128343991Y-67086840D01*
X128324555Y-67076452D01*
X128307524Y-67062476D01*
X128293548Y-67045445D01*
X128283160Y-67026009D01*
X128276764Y-67004928D01*
X128274000Y-66976860D01*
X128274000Y-66513140D01*
X128276764Y-66485072D01*
X128283160Y-66463991D01*
X128293548Y-66444555D01*
X128307524Y-66427524D01*
X128324555Y-66413548D01*
X128343991Y-66403160D01*
X128365072Y-66396764D01*
X128393140Y-66394000D01*
X130306860Y-66394000D01*
X130334928Y-66396764D01*
G37*
G36*
X139634928Y-66396764D02*
G01*
X139656009Y-66403160D01*
X139675445Y-66413548D01*
X139692476Y-66427524D01*
X139706452Y-66444555D01*
X139716840Y-66463991D01*
X139723236Y-66485072D01*
X139726000Y-66513140D01*
X139726000Y-66976860D01*
X139723236Y-67004928D01*
X139716840Y-67026009D01*
X139706452Y-67045445D01*
X139692476Y-67062476D01*
X139675445Y-67076452D01*
X139656009Y-67086840D01*
X139634928Y-67093236D01*
X139606860Y-67096000D01*
X137693140Y-67096000D01*
X137665072Y-67093236D01*
X137643991Y-67086840D01*
X137624555Y-67076452D01*
X137607524Y-67062476D01*
X137593548Y-67045445D01*
X137583160Y-67026009D01*
X137576764Y-67004928D01*
X137574000Y-66976860D01*
X137574000Y-66513140D01*
X137576764Y-66485072D01*
X137583160Y-66463991D01*
X137593548Y-66444555D01*
X137607524Y-66427524D01*
X137624555Y-66413548D01*
X137643991Y-66403160D01*
X137665072Y-66396764D01*
X137693140Y-66394000D01*
X139606860Y-66394000D01*
X139634928Y-66396764D01*
G37*
G36*
X117401000Y-65901000D02*
G01*
X115599000Y-65901000D01*
X115599000Y-64099000D01*
X117401000Y-64099000D01*
X117401000Y-65901000D01*
G37*
G36*
X145401000Y-65901000D02*
G01*
X143599000Y-65901000D01*
X143599000Y-64099000D01*
X145401000Y-64099000D01*
X145401000Y-65901000D01*
G37*
M02*
