G04 #@! TF.GenerationSoftware,KiCad,Pcbnew,(5.1.5)-3*
G04 #@! TF.CreationDate,2020-04-23T23:36:20+02:00*
G04 #@! TF.ProjectId,01_spi_pont_H,30315f73-7069-45f7-906f-6e745f482e6b,rev?*
G04 #@! TF.SameCoordinates,Original*
G04 #@! TF.FileFunction,Copper,L2,Bot*
G04 #@! TF.FilePolarity,Positive*
%FSLAX46Y46*%
G04 Gerber Fmt 4.6, Leading zero omitted, Abs format (unit mm)*
G04 Created by KiCad (PCBNEW (5.1.5)-3) date 2020-04-23 23:36:20*
%MOMM*%
%LPD*%
G04 APERTURE LIST*
%ADD10R,1.700000X1.700000*%
%ADD11O,1.700000X1.700000*%
%ADD12C,0.900000*%
%ADD13C,0.600000*%
%ADD14C,0.500000*%
%ADD15C,0.254000*%
G04 APERTURE END LIST*
D10*
X116500000Y-65000000D03*
D11*
X116500000Y-67540000D03*
X116500000Y-70080000D03*
X116500000Y-72620000D03*
X116500000Y-75160000D03*
X116500000Y-77700000D03*
X116500000Y-80240000D03*
X116500000Y-82780000D03*
X116500000Y-85320000D03*
X116500000Y-87860000D03*
X144500000Y-87860000D03*
X144500000Y-85320000D03*
X144500000Y-82780000D03*
X144500000Y-80240000D03*
X144500000Y-77700000D03*
X144500000Y-75160000D03*
X144500000Y-72620000D03*
X144500000Y-70080000D03*
X144500000Y-67540000D03*
D10*
X144500000Y-65000000D03*
D12*
X125500000Y-71490000D03*
X125537500Y-78900000D03*
X132000000Y-65000000D03*
X134000000Y-65000000D03*
X136000000Y-65000000D03*
X132000000Y-67000000D03*
X134000000Y-67000000D03*
X136000000Y-67000000D03*
X132000000Y-69000000D03*
X134000000Y-69000000D03*
X136000000Y-69000000D03*
X132000000Y-71000000D03*
X134000000Y-71000000D03*
X136000000Y-71000000D03*
X132000000Y-73000000D03*
X134000000Y-73000000D03*
X136000000Y-73000000D03*
X132000000Y-75000000D03*
X134000000Y-75000000D03*
X136000000Y-75000000D03*
X132000000Y-77000000D03*
X134000000Y-77000000D03*
X136000000Y-77000000D03*
X132000000Y-79000000D03*
X134000000Y-79000000D03*
X136000000Y-79000000D03*
X132000000Y-81000000D03*
X134000000Y-81000000D03*
X136000000Y-81000000D03*
X132000000Y-83000000D03*
X134000000Y-83000000D03*
X136000000Y-83000000D03*
X132000000Y-85000000D03*
X134000000Y-85000000D03*
X136000000Y-85000000D03*
X132000000Y-87000000D03*
X134000000Y-87000000D03*
X136000000Y-87000000D03*
X119000000Y-79000000D03*
X121000000Y-79000000D03*
X141000000Y-75000000D03*
X119000000Y-81500000D03*
X119000000Y-84000000D03*
X119000000Y-86500000D03*
X119000000Y-66500000D03*
X127150000Y-70520000D03*
D13*
X125500000Y-78862500D02*
X125537500Y-78900000D01*
X125500000Y-71490000D02*
X125500000Y-78862500D01*
X119000000Y-79000000D02*
X119000000Y-81500000D01*
X119000000Y-81500000D02*
X119000000Y-84000000D01*
X119000000Y-84000000D02*
X119000000Y-86500000D01*
X132000000Y-65000000D02*
X120500000Y-65000000D01*
X120500000Y-65000000D02*
X119000000Y-66500000D01*
D14*
X118870000Y-72620000D02*
X116975010Y-72620000D01*
D13*
X127150000Y-70520000D02*
X120980000Y-70520000D01*
X120980000Y-70520000D02*
X118900000Y-72600000D01*
D14*
X118900000Y-72600000D02*
X118870000Y-72620000D01*
D13*
X118900000Y-72600000D02*
X117025010Y-72600000D01*
D15*
G36*
X143198815Y-63698815D02*
G01*
X143119463Y-63795506D01*
X143060498Y-63905820D01*
X143024188Y-64025518D01*
X143011928Y-64150000D01*
X143011928Y-65850000D01*
X143024188Y-65974482D01*
X143060498Y-66094180D01*
X143119463Y-66204494D01*
X143198815Y-66301185D01*
X143295506Y-66380537D01*
X143405820Y-66439502D01*
X143478380Y-66461513D01*
X143346525Y-66593368D01*
X143184010Y-66836589D01*
X143072068Y-67106842D01*
X143015000Y-67393740D01*
X143015000Y-67686260D01*
X143072068Y-67973158D01*
X143184010Y-68243411D01*
X143346525Y-68486632D01*
X143553368Y-68693475D01*
X143727760Y-68810000D01*
X143553368Y-68926525D01*
X143346525Y-69133368D01*
X143184010Y-69376589D01*
X143072068Y-69646842D01*
X143015000Y-69933740D01*
X143015000Y-70226260D01*
X143072068Y-70513158D01*
X143184010Y-70783411D01*
X143346525Y-71026632D01*
X143553368Y-71233475D01*
X143727760Y-71350000D01*
X143553368Y-71466525D01*
X143346525Y-71673368D01*
X143184010Y-71916589D01*
X143072068Y-72186842D01*
X143015000Y-72473740D01*
X143015000Y-72766260D01*
X143072068Y-73053158D01*
X143184010Y-73323411D01*
X143346525Y-73566632D01*
X143553368Y-73773475D01*
X143727760Y-73890000D01*
X143553368Y-74006525D01*
X143346525Y-74213368D01*
X143184010Y-74456589D01*
X143072068Y-74726842D01*
X143015000Y-75013740D01*
X143015000Y-75306260D01*
X143072068Y-75593158D01*
X143184010Y-75863411D01*
X143346525Y-76106632D01*
X143553368Y-76313475D01*
X143727760Y-76430000D01*
X143553368Y-76546525D01*
X143346525Y-76753368D01*
X143184010Y-76996589D01*
X143072068Y-77266842D01*
X143015000Y-77553740D01*
X143015000Y-77846260D01*
X143072068Y-78133158D01*
X143184010Y-78403411D01*
X143346525Y-78646632D01*
X143553368Y-78853475D01*
X143727760Y-78970000D01*
X143553368Y-79086525D01*
X143346525Y-79293368D01*
X143184010Y-79536589D01*
X143072068Y-79806842D01*
X143015000Y-80093740D01*
X143015000Y-80386260D01*
X143072068Y-80673158D01*
X143184010Y-80943411D01*
X143346525Y-81186632D01*
X143553368Y-81393475D01*
X143727760Y-81510000D01*
X143553368Y-81626525D01*
X143346525Y-81833368D01*
X143184010Y-82076589D01*
X143072068Y-82346842D01*
X143015000Y-82633740D01*
X143015000Y-82926260D01*
X143072068Y-83213158D01*
X143184010Y-83483411D01*
X143346525Y-83726632D01*
X143553368Y-83933475D01*
X143727760Y-84050000D01*
X143553368Y-84166525D01*
X143346525Y-84373368D01*
X143184010Y-84616589D01*
X143072068Y-84886842D01*
X143015000Y-85173740D01*
X143015000Y-85466260D01*
X143072068Y-85753158D01*
X143184010Y-86023411D01*
X143346525Y-86266632D01*
X143553368Y-86473475D01*
X143727760Y-86590000D01*
X143553368Y-86706525D01*
X143346525Y-86913368D01*
X143184010Y-87156589D01*
X143072068Y-87426842D01*
X143015000Y-87713740D01*
X143015000Y-88006260D01*
X143072068Y-88293158D01*
X143184010Y-88563411D01*
X143346525Y-88806632D01*
X143553368Y-89013475D01*
X143796589Y-89175990D01*
X143840001Y-89193972D01*
X143840001Y-89340000D01*
X117160000Y-89340000D01*
X117160000Y-89193971D01*
X117203411Y-89175990D01*
X117446632Y-89013475D01*
X117653475Y-88806632D01*
X117815990Y-88563411D01*
X117927932Y-88293158D01*
X117985000Y-88006260D01*
X117985000Y-87713740D01*
X117927932Y-87426842D01*
X117815990Y-87156589D01*
X117653475Y-86913368D01*
X117446632Y-86706525D01*
X117272240Y-86590000D01*
X117446632Y-86473475D01*
X117653475Y-86266632D01*
X117815990Y-86023411D01*
X117927932Y-85753158D01*
X117985000Y-85466260D01*
X117985000Y-85173740D01*
X117927932Y-84886842D01*
X117815990Y-84616589D01*
X117653475Y-84373368D01*
X117446632Y-84166525D01*
X117272240Y-84050000D01*
X117446632Y-83933475D01*
X117653475Y-83726632D01*
X117815990Y-83483411D01*
X117927932Y-83213158D01*
X117985000Y-82926260D01*
X117985000Y-82633740D01*
X117927932Y-82346842D01*
X117815990Y-82076589D01*
X117653475Y-81833368D01*
X117446632Y-81626525D01*
X117272240Y-81510000D01*
X117446632Y-81393475D01*
X117653475Y-81186632D01*
X117815990Y-80943411D01*
X117927932Y-80673158D01*
X117985000Y-80386260D01*
X117985000Y-80093740D01*
X117927932Y-79806842D01*
X117815990Y-79536589D01*
X117653475Y-79293368D01*
X117446632Y-79086525D01*
X117264466Y-78964805D01*
X117381355Y-78895178D01*
X117597588Y-78700269D01*
X117771641Y-78466920D01*
X117896825Y-78204099D01*
X117941476Y-78056890D01*
X117820155Y-77827000D01*
X117160000Y-77827000D01*
X117160000Y-77573000D01*
X117820155Y-77573000D01*
X117941476Y-77343110D01*
X117896825Y-77195901D01*
X117771641Y-76933080D01*
X117597588Y-76699731D01*
X117381355Y-76504822D01*
X117264466Y-76435195D01*
X117446632Y-76313475D01*
X117653475Y-76106632D01*
X117815990Y-75863411D01*
X117927932Y-75593158D01*
X117985000Y-75306260D01*
X117985000Y-75013740D01*
X117927932Y-74726842D01*
X117815990Y-74456589D01*
X117653475Y-74213368D01*
X117446632Y-74006525D01*
X117272240Y-73890000D01*
X117446632Y-73773475D01*
X117653475Y-73566632D01*
X117674611Y-73535000D01*
X118854068Y-73535000D01*
X118900000Y-73539524D01*
X118945932Y-73535000D01*
X119083292Y-73521471D01*
X119259540Y-73468007D01*
X119421972Y-73381186D01*
X119564344Y-73264344D01*
X119593630Y-73228659D01*
X121367290Y-71455000D01*
X124415000Y-71455000D01*
X124415000Y-71596863D01*
X124456696Y-71806483D01*
X124538485Y-72003940D01*
X124565000Y-72043623D01*
X124565001Y-78412578D01*
X124494196Y-78583517D01*
X124452500Y-78793137D01*
X124452500Y-79006863D01*
X124494196Y-79216483D01*
X124575985Y-79413940D01*
X124694725Y-79591647D01*
X124845853Y-79742775D01*
X125023560Y-79861515D01*
X125221017Y-79943304D01*
X125430637Y-79985000D01*
X125644363Y-79985000D01*
X125853983Y-79943304D01*
X126051440Y-79861515D01*
X126229147Y-79742775D01*
X126380275Y-79591647D01*
X126499015Y-79413940D01*
X126580804Y-79216483D01*
X126622500Y-79006863D01*
X126622500Y-78793137D01*
X126580804Y-78583517D01*
X126499015Y-78386060D01*
X126435000Y-78290255D01*
X126435000Y-72043623D01*
X126461515Y-72003940D01*
X126543304Y-71806483D01*
X126585000Y-71596863D01*
X126585000Y-71455000D01*
X126596377Y-71455000D01*
X126636060Y-71481515D01*
X126833517Y-71563304D01*
X127043137Y-71605000D01*
X127256863Y-71605000D01*
X127466483Y-71563304D01*
X127663940Y-71481515D01*
X127841647Y-71362775D01*
X127992775Y-71211647D01*
X128111515Y-71033940D01*
X128193304Y-70836483D01*
X128235000Y-70626863D01*
X128235000Y-70413137D01*
X128193304Y-70203517D01*
X128111515Y-70006060D01*
X127992775Y-69828353D01*
X127841647Y-69677225D01*
X127663940Y-69558485D01*
X127466483Y-69476696D01*
X127256863Y-69435000D01*
X127043137Y-69435000D01*
X126833517Y-69476696D01*
X126636060Y-69558485D01*
X126596377Y-69585000D01*
X121025931Y-69585000D01*
X120979999Y-69580476D01*
X120796707Y-69598529D01*
X120743243Y-69614747D01*
X120620460Y-69651993D01*
X120458028Y-69738814D01*
X120315656Y-69855656D01*
X120286374Y-69891336D01*
X118512711Y-71665000D01*
X117645107Y-71665000D01*
X117446632Y-71466525D01*
X117272240Y-71350000D01*
X117446632Y-71233475D01*
X117653475Y-71026632D01*
X117815990Y-70783411D01*
X117927932Y-70513158D01*
X117985000Y-70226260D01*
X117985000Y-69933740D01*
X117927932Y-69646842D01*
X117815990Y-69376589D01*
X117653475Y-69133368D01*
X117446632Y-68926525D01*
X117272240Y-68810000D01*
X117446632Y-68693475D01*
X117653475Y-68486632D01*
X117815990Y-68243411D01*
X117927932Y-67973158D01*
X117985000Y-67686260D01*
X117985000Y-67393740D01*
X117927932Y-67106842D01*
X117815990Y-66836589D01*
X117653475Y-66593368D01*
X117521620Y-66461513D01*
X117594180Y-66439502D01*
X117704494Y-66380537D01*
X117801185Y-66301185D01*
X117880537Y-66204494D01*
X117939502Y-66094180D01*
X117975812Y-65974482D01*
X117988072Y-65850000D01*
X117988072Y-64150000D01*
X117975812Y-64025518D01*
X117939502Y-63905820D01*
X117880537Y-63795506D01*
X117801185Y-63698815D01*
X117753889Y-63660000D01*
X143246111Y-63660000D01*
X143198815Y-63698815D01*
G37*
X143198815Y-63698815D02*
X143119463Y-63795506D01*
X143060498Y-63905820D01*
X143024188Y-64025518D01*
X143011928Y-64150000D01*
X143011928Y-65850000D01*
X143024188Y-65974482D01*
X143060498Y-66094180D01*
X143119463Y-66204494D01*
X143198815Y-66301185D01*
X143295506Y-66380537D01*
X143405820Y-66439502D01*
X143478380Y-66461513D01*
X143346525Y-66593368D01*
X143184010Y-66836589D01*
X143072068Y-67106842D01*
X143015000Y-67393740D01*
X143015000Y-67686260D01*
X143072068Y-67973158D01*
X143184010Y-68243411D01*
X143346525Y-68486632D01*
X143553368Y-68693475D01*
X143727760Y-68810000D01*
X143553368Y-68926525D01*
X143346525Y-69133368D01*
X143184010Y-69376589D01*
X143072068Y-69646842D01*
X143015000Y-69933740D01*
X143015000Y-70226260D01*
X143072068Y-70513158D01*
X143184010Y-70783411D01*
X143346525Y-71026632D01*
X143553368Y-71233475D01*
X143727760Y-71350000D01*
X143553368Y-71466525D01*
X143346525Y-71673368D01*
X143184010Y-71916589D01*
X143072068Y-72186842D01*
X143015000Y-72473740D01*
X143015000Y-72766260D01*
X143072068Y-73053158D01*
X143184010Y-73323411D01*
X143346525Y-73566632D01*
X143553368Y-73773475D01*
X143727760Y-73890000D01*
X143553368Y-74006525D01*
X143346525Y-74213368D01*
X143184010Y-74456589D01*
X143072068Y-74726842D01*
X143015000Y-75013740D01*
X143015000Y-75306260D01*
X143072068Y-75593158D01*
X143184010Y-75863411D01*
X143346525Y-76106632D01*
X143553368Y-76313475D01*
X143727760Y-76430000D01*
X143553368Y-76546525D01*
X143346525Y-76753368D01*
X143184010Y-76996589D01*
X143072068Y-77266842D01*
X143015000Y-77553740D01*
X143015000Y-77846260D01*
X143072068Y-78133158D01*
X143184010Y-78403411D01*
X143346525Y-78646632D01*
X143553368Y-78853475D01*
X143727760Y-78970000D01*
X143553368Y-79086525D01*
X143346525Y-79293368D01*
X143184010Y-79536589D01*
X143072068Y-79806842D01*
X143015000Y-80093740D01*
X143015000Y-80386260D01*
X143072068Y-80673158D01*
X143184010Y-80943411D01*
X143346525Y-81186632D01*
X143553368Y-81393475D01*
X143727760Y-81510000D01*
X143553368Y-81626525D01*
X143346525Y-81833368D01*
X143184010Y-82076589D01*
X143072068Y-82346842D01*
X143015000Y-82633740D01*
X143015000Y-82926260D01*
X143072068Y-83213158D01*
X143184010Y-83483411D01*
X143346525Y-83726632D01*
X143553368Y-83933475D01*
X143727760Y-84050000D01*
X143553368Y-84166525D01*
X143346525Y-84373368D01*
X143184010Y-84616589D01*
X143072068Y-84886842D01*
X143015000Y-85173740D01*
X143015000Y-85466260D01*
X143072068Y-85753158D01*
X143184010Y-86023411D01*
X143346525Y-86266632D01*
X143553368Y-86473475D01*
X143727760Y-86590000D01*
X143553368Y-86706525D01*
X143346525Y-86913368D01*
X143184010Y-87156589D01*
X143072068Y-87426842D01*
X143015000Y-87713740D01*
X143015000Y-88006260D01*
X143072068Y-88293158D01*
X143184010Y-88563411D01*
X143346525Y-88806632D01*
X143553368Y-89013475D01*
X143796589Y-89175990D01*
X143840001Y-89193972D01*
X143840001Y-89340000D01*
X117160000Y-89340000D01*
X117160000Y-89193971D01*
X117203411Y-89175990D01*
X117446632Y-89013475D01*
X117653475Y-88806632D01*
X117815990Y-88563411D01*
X117927932Y-88293158D01*
X117985000Y-88006260D01*
X117985000Y-87713740D01*
X117927932Y-87426842D01*
X117815990Y-87156589D01*
X117653475Y-86913368D01*
X117446632Y-86706525D01*
X117272240Y-86590000D01*
X117446632Y-86473475D01*
X117653475Y-86266632D01*
X117815990Y-86023411D01*
X117927932Y-85753158D01*
X117985000Y-85466260D01*
X117985000Y-85173740D01*
X117927932Y-84886842D01*
X117815990Y-84616589D01*
X117653475Y-84373368D01*
X117446632Y-84166525D01*
X117272240Y-84050000D01*
X117446632Y-83933475D01*
X117653475Y-83726632D01*
X117815990Y-83483411D01*
X117927932Y-83213158D01*
X117985000Y-82926260D01*
X117985000Y-82633740D01*
X117927932Y-82346842D01*
X117815990Y-82076589D01*
X117653475Y-81833368D01*
X117446632Y-81626525D01*
X117272240Y-81510000D01*
X117446632Y-81393475D01*
X117653475Y-81186632D01*
X117815990Y-80943411D01*
X117927932Y-80673158D01*
X117985000Y-80386260D01*
X117985000Y-80093740D01*
X117927932Y-79806842D01*
X117815990Y-79536589D01*
X117653475Y-79293368D01*
X117446632Y-79086525D01*
X117264466Y-78964805D01*
X117381355Y-78895178D01*
X117597588Y-78700269D01*
X117771641Y-78466920D01*
X117896825Y-78204099D01*
X117941476Y-78056890D01*
X117820155Y-77827000D01*
X117160000Y-77827000D01*
X117160000Y-77573000D01*
X117820155Y-77573000D01*
X117941476Y-77343110D01*
X117896825Y-77195901D01*
X117771641Y-76933080D01*
X117597588Y-76699731D01*
X117381355Y-76504822D01*
X117264466Y-76435195D01*
X117446632Y-76313475D01*
X117653475Y-76106632D01*
X117815990Y-75863411D01*
X117927932Y-75593158D01*
X117985000Y-75306260D01*
X117985000Y-75013740D01*
X117927932Y-74726842D01*
X117815990Y-74456589D01*
X117653475Y-74213368D01*
X117446632Y-74006525D01*
X117272240Y-73890000D01*
X117446632Y-73773475D01*
X117653475Y-73566632D01*
X117674611Y-73535000D01*
X118854068Y-73535000D01*
X118900000Y-73539524D01*
X118945932Y-73535000D01*
X119083292Y-73521471D01*
X119259540Y-73468007D01*
X119421972Y-73381186D01*
X119564344Y-73264344D01*
X119593630Y-73228659D01*
X121367290Y-71455000D01*
X124415000Y-71455000D01*
X124415000Y-71596863D01*
X124456696Y-71806483D01*
X124538485Y-72003940D01*
X124565000Y-72043623D01*
X124565001Y-78412578D01*
X124494196Y-78583517D01*
X124452500Y-78793137D01*
X124452500Y-79006863D01*
X124494196Y-79216483D01*
X124575985Y-79413940D01*
X124694725Y-79591647D01*
X124845853Y-79742775D01*
X125023560Y-79861515D01*
X125221017Y-79943304D01*
X125430637Y-79985000D01*
X125644363Y-79985000D01*
X125853983Y-79943304D01*
X126051440Y-79861515D01*
X126229147Y-79742775D01*
X126380275Y-79591647D01*
X126499015Y-79413940D01*
X126580804Y-79216483D01*
X126622500Y-79006863D01*
X126622500Y-78793137D01*
X126580804Y-78583517D01*
X126499015Y-78386060D01*
X126435000Y-78290255D01*
X126435000Y-72043623D01*
X126461515Y-72003940D01*
X126543304Y-71806483D01*
X126585000Y-71596863D01*
X126585000Y-71455000D01*
X126596377Y-71455000D01*
X126636060Y-71481515D01*
X126833517Y-71563304D01*
X127043137Y-71605000D01*
X127256863Y-71605000D01*
X127466483Y-71563304D01*
X127663940Y-71481515D01*
X127841647Y-71362775D01*
X127992775Y-71211647D01*
X128111515Y-71033940D01*
X128193304Y-70836483D01*
X128235000Y-70626863D01*
X128235000Y-70413137D01*
X128193304Y-70203517D01*
X128111515Y-70006060D01*
X127992775Y-69828353D01*
X127841647Y-69677225D01*
X127663940Y-69558485D01*
X127466483Y-69476696D01*
X127256863Y-69435000D01*
X127043137Y-69435000D01*
X126833517Y-69476696D01*
X126636060Y-69558485D01*
X126596377Y-69585000D01*
X121025931Y-69585000D01*
X120979999Y-69580476D01*
X120796707Y-69598529D01*
X120743243Y-69614747D01*
X120620460Y-69651993D01*
X120458028Y-69738814D01*
X120315656Y-69855656D01*
X120286374Y-69891336D01*
X118512711Y-71665000D01*
X117645107Y-71665000D01*
X117446632Y-71466525D01*
X117272240Y-71350000D01*
X117446632Y-71233475D01*
X117653475Y-71026632D01*
X117815990Y-70783411D01*
X117927932Y-70513158D01*
X117985000Y-70226260D01*
X117985000Y-69933740D01*
X117927932Y-69646842D01*
X117815990Y-69376589D01*
X117653475Y-69133368D01*
X117446632Y-68926525D01*
X117272240Y-68810000D01*
X117446632Y-68693475D01*
X117653475Y-68486632D01*
X117815990Y-68243411D01*
X117927932Y-67973158D01*
X117985000Y-67686260D01*
X117985000Y-67393740D01*
X117927932Y-67106842D01*
X117815990Y-66836589D01*
X117653475Y-66593368D01*
X117521620Y-66461513D01*
X117594180Y-66439502D01*
X117704494Y-66380537D01*
X117801185Y-66301185D01*
X117880537Y-66204494D01*
X117939502Y-66094180D01*
X117975812Y-65974482D01*
X117988072Y-65850000D01*
X117988072Y-64150000D01*
X117975812Y-64025518D01*
X117939502Y-63905820D01*
X117880537Y-63795506D01*
X117801185Y-63698815D01*
X117753889Y-63660000D01*
X143246111Y-63660000D01*
X143198815Y-63698815D01*
M02*
