G04 #@! TF.GenerationSoftware,KiCad,Pcbnew,(5.1.5)-3*
G04 #@! TF.CreationDate,2020-04-23T23:36:20+02:00*
G04 #@! TF.ProjectId,01_spi_pont_H,30315f73-7069-45f7-906f-6e745f482e6b,rev?*
G04 #@! TF.SameCoordinates,Original*
G04 #@! TF.FileFunction,Copper,L1,Top*
G04 #@! TF.FilePolarity,Positive*
%FSLAX46Y46*%
G04 Gerber Fmt 4.6, Leading zero omitted, Abs format (unit mm)*
G04 Created by KiCad (PCBNEW (5.1.5)-3) date 2020-04-23 23:36:20*
%MOMM*%
%LPD*%
G04 APERTURE LIST*
%ADD10C,0.100000*%
%ADD11R,1.800000X2.500000*%
%ADD12R,1.700000X1.700000*%
%ADD13O,1.700000X1.700000*%
%ADD14C,0.900000*%
%ADD15C,0.500000*%
%ADD16C,0.600000*%
%ADD17C,0.254000*%
G04 APERTURE END LIST*
G04 #@! TA.AperFunction,SMDPad,CuDef*
D10*
G36*
X126980142Y-71576174D02*
G01*
X127003803Y-71579684D01*
X127027007Y-71585496D01*
X127049529Y-71593554D01*
X127071153Y-71603782D01*
X127091670Y-71616079D01*
X127110883Y-71630329D01*
X127128607Y-71646393D01*
X127144671Y-71664117D01*
X127158921Y-71683330D01*
X127171218Y-71703847D01*
X127181446Y-71725471D01*
X127189504Y-71747993D01*
X127195316Y-71771197D01*
X127198826Y-71794858D01*
X127200000Y-71818750D01*
X127200000Y-72306250D01*
X127198826Y-72330142D01*
X127195316Y-72353803D01*
X127189504Y-72377007D01*
X127181446Y-72399529D01*
X127171218Y-72421153D01*
X127158921Y-72441670D01*
X127144671Y-72460883D01*
X127128607Y-72478607D01*
X127110883Y-72494671D01*
X127091670Y-72508921D01*
X127071153Y-72521218D01*
X127049529Y-72531446D01*
X127027007Y-72539504D01*
X127003803Y-72545316D01*
X126980142Y-72548826D01*
X126956250Y-72550000D01*
X126043750Y-72550000D01*
X126019858Y-72548826D01*
X125996197Y-72545316D01*
X125972993Y-72539504D01*
X125950471Y-72531446D01*
X125928847Y-72521218D01*
X125908330Y-72508921D01*
X125889117Y-72494671D01*
X125871393Y-72478607D01*
X125855329Y-72460883D01*
X125841079Y-72441670D01*
X125828782Y-72421153D01*
X125818554Y-72399529D01*
X125810496Y-72377007D01*
X125804684Y-72353803D01*
X125801174Y-72330142D01*
X125800000Y-72306250D01*
X125800000Y-71818750D01*
X125801174Y-71794858D01*
X125804684Y-71771197D01*
X125810496Y-71747993D01*
X125818554Y-71725471D01*
X125828782Y-71703847D01*
X125841079Y-71683330D01*
X125855329Y-71664117D01*
X125871393Y-71646393D01*
X125889117Y-71630329D01*
X125908330Y-71616079D01*
X125928847Y-71603782D01*
X125950471Y-71593554D01*
X125972993Y-71585496D01*
X125996197Y-71579684D01*
X126019858Y-71576174D01*
X126043750Y-71575000D01*
X126956250Y-71575000D01*
X126980142Y-71576174D01*
G37*
G04 #@! TD.AperFunction*
G04 #@! TA.AperFunction,SMDPad,CuDef*
G36*
X126980142Y-73451174D02*
G01*
X127003803Y-73454684D01*
X127027007Y-73460496D01*
X127049529Y-73468554D01*
X127071153Y-73478782D01*
X127091670Y-73491079D01*
X127110883Y-73505329D01*
X127128607Y-73521393D01*
X127144671Y-73539117D01*
X127158921Y-73558330D01*
X127171218Y-73578847D01*
X127181446Y-73600471D01*
X127189504Y-73622993D01*
X127195316Y-73646197D01*
X127198826Y-73669858D01*
X127200000Y-73693750D01*
X127200000Y-74181250D01*
X127198826Y-74205142D01*
X127195316Y-74228803D01*
X127189504Y-74252007D01*
X127181446Y-74274529D01*
X127171218Y-74296153D01*
X127158921Y-74316670D01*
X127144671Y-74335883D01*
X127128607Y-74353607D01*
X127110883Y-74369671D01*
X127091670Y-74383921D01*
X127071153Y-74396218D01*
X127049529Y-74406446D01*
X127027007Y-74414504D01*
X127003803Y-74420316D01*
X126980142Y-74423826D01*
X126956250Y-74425000D01*
X126043750Y-74425000D01*
X126019858Y-74423826D01*
X125996197Y-74420316D01*
X125972993Y-74414504D01*
X125950471Y-74406446D01*
X125928847Y-74396218D01*
X125908330Y-74383921D01*
X125889117Y-74369671D01*
X125871393Y-74353607D01*
X125855329Y-74335883D01*
X125841079Y-74316670D01*
X125828782Y-74296153D01*
X125818554Y-74274529D01*
X125810496Y-74252007D01*
X125804684Y-74228803D01*
X125801174Y-74205142D01*
X125800000Y-74181250D01*
X125800000Y-73693750D01*
X125801174Y-73669858D01*
X125804684Y-73646197D01*
X125810496Y-73622993D01*
X125818554Y-73600471D01*
X125828782Y-73578847D01*
X125841079Y-73558330D01*
X125855329Y-73539117D01*
X125871393Y-73521393D01*
X125889117Y-73505329D01*
X125908330Y-73491079D01*
X125928847Y-73478782D01*
X125950471Y-73468554D01*
X125972993Y-73460496D01*
X125996197Y-73454684D01*
X126019858Y-73451174D01*
X126043750Y-73450000D01*
X126956250Y-73450000D01*
X126980142Y-73451174D01*
G37*
G04 #@! TD.AperFunction*
G04 #@! TA.AperFunction,SMDPad,CuDef*
G36*
X126980142Y-75576174D02*
G01*
X127003803Y-75579684D01*
X127027007Y-75585496D01*
X127049529Y-75593554D01*
X127071153Y-75603782D01*
X127091670Y-75616079D01*
X127110883Y-75630329D01*
X127128607Y-75646393D01*
X127144671Y-75664117D01*
X127158921Y-75683330D01*
X127171218Y-75703847D01*
X127181446Y-75725471D01*
X127189504Y-75747993D01*
X127195316Y-75771197D01*
X127198826Y-75794858D01*
X127200000Y-75818750D01*
X127200000Y-76306250D01*
X127198826Y-76330142D01*
X127195316Y-76353803D01*
X127189504Y-76377007D01*
X127181446Y-76399529D01*
X127171218Y-76421153D01*
X127158921Y-76441670D01*
X127144671Y-76460883D01*
X127128607Y-76478607D01*
X127110883Y-76494671D01*
X127091670Y-76508921D01*
X127071153Y-76521218D01*
X127049529Y-76531446D01*
X127027007Y-76539504D01*
X127003803Y-76545316D01*
X126980142Y-76548826D01*
X126956250Y-76550000D01*
X126043750Y-76550000D01*
X126019858Y-76548826D01*
X125996197Y-76545316D01*
X125972993Y-76539504D01*
X125950471Y-76531446D01*
X125928847Y-76521218D01*
X125908330Y-76508921D01*
X125889117Y-76494671D01*
X125871393Y-76478607D01*
X125855329Y-76460883D01*
X125841079Y-76441670D01*
X125828782Y-76421153D01*
X125818554Y-76399529D01*
X125810496Y-76377007D01*
X125804684Y-76353803D01*
X125801174Y-76330142D01*
X125800000Y-76306250D01*
X125800000Y-75818750D01*
X125801174Y-75794858D01*
X125804684Y-75771197D01*
X125810496Y-75747993D01*
X125818554Y-75725471D01*
X125828782Y-75703847D01*
X125841079Y-75683330D01*
X125855329Y-75664117D01*
X125871393Y-75646393D01*
X125889117Y-75630329D01*
X125908330Y-75616079D01*
X125928847Y-75603782D01*
X125950471Y-75593554D01*
X125972993Y-75585496D01*
X125996197Y-75579684D01*
X126019858Y-75576174D01*
X126043750Y-75575000D01*
X126956250Y-75575000D01*
X126980142Y-75576174D01*
G37*
G04 #@! TD.AperFunction*
G04 #@! TA.AperFunction,SMDPad,CuDef*
G36*
X126980142Y-77451174D02*
G01*
X127003803Y-77454684D01*
X127027007Y-77460496D01*
X127049529Y-77468554D01*
X127071153Y-77478782D01*
X127091670Y-77491079D01*
X127110883Y-77505329D01*
X127128607Y-77521393D01*
X127144671Y-77539117D01*
X127158921Y-77558330D01*
X127171218Y-77578847D01*
X127181446Y-77600471D01*
X127189504Y-77622993D01*
X127195316Y-77646197D01*
X127198826Y-77669858D01*
X127200000Y-77693750D01*
X127200000Y-78181250D01*
X127198826Y-78205142D01*
X127195316Y-78228803D01*
X127189504Y-78252007D01*
X127181446Y-78274529D01*
X127171218Y-78296153D01*
X127158921Y-78316670D01*
X127144671Y-78335883D01*
X127128607Y-78353607D01*
X127110883Y-78369671D01*
X127091670Y-78383921D01*
X127071153Y-78396218D01*
X127049529Y-78406446D01*
X127027007Y-78414504D01*
X127003803Y-78420316D01*
X126980142Y-78423826D01*
X126956250Y-78425000D01*
X126043750Y-78425000D01*
X126019858Y-78423826D01*
X125996197Y-78420316D01*
X125972993Y-78414504D01*
X125950471Y-78406446D01*
X125928847Y-78396218D01*
X125908330Y-78383921D01*
X125889117Y-78369671D01*
X125871393Y-78353607D01*
X125855329Y-78335883D01*
X125841079Y-78316670D01*
X125828782Y-78296153D01*
X125818554Y-78274529D01*
X125810496Y-78252007D01*
X125804684Y-78228803D01*
X125801174Y-78205142D01*
X125800000Y-78181250D01*
X125800000Y-77693750D01*
X125801174Y-77669858D01*
X125804684Y-77646197D01*
X125810496Y-77622993D01*
X125818554Y-77600471D01*
X125828782Y-77578847D01*
X125841079Y-77558330D01*
X125855329Y-77539117D01*
X125871393Y-77521393D01*
X125889117Y-77505329D01*
X125908330Y-77491079D01*
X125928847Y-77478782D01*
X125950471Y-77468554D01*
X125972993Y-77460496D01*
X125996197Y-77454684D01*
X126019858Y-77451174D01*
X126043750Y-77450000D01*
X126956250Y-77450000D01*
X126980142Y-77451174D01*
G37*
G04 #@! TD.AperFunction*
G04 #@! TA.AperFunction,SMDPad,CuDef*
G36*
X124649504Y-70876204D02*
G01*
X124673773Y-70879804D01*
X124697571Y-70885765D01*
X124720671Y-70894030D01*
X124742849Y-70904520D01*
X124763893Y-70917133D01*
X124783598Y-70931747D01*
X124801777Y-70948223D01*
X124818253Y-70966402D01*
X124832867Y-70986107D01*
X124845480Y-71007151D01*
X124855970Y-71029329D01*
X124864235Y-71052429D01*
X124870196Y-71076227D01*
X124873796Y-71100496D01*
X124875000Y-71125000D01*
X124875000Y-71875000D01*
X124873796Y-71899504D01*
X124870196Y-71923773D01*
X124864235Y-71947571D01*
X124855970Y-71970671D01*
X124845480Y-71992849D01*
X124832867Y-72013893D01*
X124818253Y-72033598D01*
X124801777Y-72051777D01*
X124783598Y-72068253D01*
X124763893Y-72082867D01*
X124742849Y-72095480D01*
X124720671Y-72105970D01*
X124697571Y-72114235D01*
X124673773Y-72120196D01*
X124649504Y-72123796D01*
X124625000Y-72125000D01*
X123375000Y-72125000D01*
X123350496Y-72123796D01*
X123326227Y-72120196D01*
X123302429Y-72114235D01*
X123279329Y-72105970D01*
X123257151Y-72095480D01*
X123236107Y-72082867D01*
X123216402Y-72068253D01*
X123198223Y-72051777D01*
X123181747Y-72033598D01*
X123167133Y-72013893D01*
X123154520Y-71992849D01*
X123144030Y-71970671D01*
X123135765Y-71947571D01*
X123129804Y-71923773D01*
X123126204Y-71899504D01*
X123125000Y-71875000D01*
X123125000Y-71125000D01*
X123126204Y-71100496D01*
X123129804Y-71076227D01*
X123135765Y-71052429D01*
X123144030Y-71029329D01*
X123154520Y-71007151D01*
X123167133Y-70986107D01*
X123181747Y-70966402D01*
X123198223Y-70948223D01*
X123216402Y-70931747D01*
X123236107Y-70917133D01*
X123257151Y-70904520D01*
X123279329Y-70894030D01*
X123302429Y-70885765D01*
X123326227Y-70879804D01*
X123350496Y-70876204D01*
X123375000Y-70875000D01*
X124625000Y-70875000D01*
X124649504Y-70876204D01*
G37*
G04 #@! TD.AperFunction*
G04 #@! TA.AperFunction,SMDPad,CuDef*
G36*
X124649504Y-73676204D02*
G01*
X124673773Y-73679804D01*
X124697571Y-73685765D01*
X124720671Y-73694030D01*
X124742849Y-73704520D01*
X124763893Y-73717133D01*
X124783598Y-73731747D01*
X124801777Y-73748223D01*
X124818253Y-73766402D01*
X124832867Y-73786107D01*
X124845480Y-73807151D01*
X124855970Y-73829329D01*
X124864235Y-73852429D01*
X124870196Y-73876227D01*
X124873796Y-73900496D01*
X124875000Y-73925000D01*
X124875000Y-74675000D01*
X124873796Y-74699504D01*
X124870196Y-74723773D01*
X124864235Y-74747571D01*
X124855970Y-74770671D01*
X124845480Y-74792849D01*
X124832867Y-74813893D01*
X124818253Y-74833598D01*
X124801777Y-74851777D01*
X124783598Y-74868253D01*
X124763893Y-74882867D01*
X124742849Y-74895480D01*
X124720671Y-74905970D01*
X124697571Y-74914235D01*
X124673773Y-74920196D01*
X124649504Y-74923796D01*
X124625000Y-74925000D01*
X123375000Y-74925000D01*
X123350496Y-74923796D01*
X123326227Y-74920196D01*
X123302429Y-74914235D01*
X123279329Y-74905970D01*
X123257151Y-74895480D01*
X123236107Y-74882867D01*
X123216402Y-74868253D01*
X123198223Y-74851777D01*
X123181747Y-74833598D01*
X123167133Y-74813893D01*
X123154520Y-74792849D01*
X123144030Y-74770671D01*
X123135765Y-74747571D01*
X123129804Y-74723773D01*
X123126204Y-74699504D01*
X123125000Y-74675000D01*
X123125000Y-73925000D01*
X123126204Y-73900496D01*
X123129804Y-73876227D01*
X123135765Y-73852429D01*
X123144030Y-73829329D01*
X123154520Y-73807151D01*
X123167133Y-73786107D01*
X123181747Y-73766402D01*
X123198223Y-73748223D01*
X123216402Y-73731747D01*
X123236107Y-73717133D01*
X123257151Y-73704520D01*
X123279329Y-73694030D01*
X123302429Y-73685765D01*
X123326227Y-73679804D01*
X123350496Y-73676204D01*
X123375000Y-73675000D01*
X124625000Y-73675000D01*
X124649504Y-73676204D01*
G37*
G04 #@! TD.AperFunction*
G04 #@! TA.AperFunction,SMDPad,CuDef*
G36*
X141980142Y-77513674D02*
G01*
X142003803Y-77517184D01*
X142027007Y-77522996D01*
X142049529Y-77531054D01*
X142071153Y-77541282D01*
X142091670Y-77553579D01*
X142110883Y-77567829D01*
X142128607Y-77583893D01*
X142144671Y-77601617D01*
X142158921Y-77620830D01*
X142171218Y-77641347D01*
X142181446Y-77662971D01*
X142189504Y-77685493D01*
X142195316Y-77708697D01*
X142198826Y-77732358D01*
X142200000Y-77756250D01*
X142200000Y-78243750D01*
X142198826Y-78267642D01*
X142195316Y-78291303D01*
X142189504Y-78314507D01*
X142181446Y-78337029D01*
X142171218Y-78358653D01*
X142158921Y-78379170D01*
X142144671Y-78398383D01*
X142128607Y-78416107D01*
X142110883Y-78432171D01*
X142091670Y-78446421D01*
X142071153Y-78458718D01*
X142049529Y-78468946D01*
X142027007Y-78477004D01*
X142003803Y-78482816D01*
X141980142Y-78486326D01*
X141956250Y-78487500D01*
X141043750Y-78487500D01*
X141019858Y-78486326D01*
X140996197Y-78482816D01*
X140972993Y-78477004D01*
X140950471Y-78468946D01*
X140928847Y-78458718D01*
X140908330Y-78446421D01*
X140889117Y-78432171D01*
X140871393Y-78416107D01*
X140855329Y-78398383D01*
X140841079Y-78379170D01*
X140828782Y-78358653D01*
X140818554Y-78337029D01*
X140810496Y-78314507D01*
X140804684Y-78291303D01*
X140801174Y-78267642D01*
X140800000Y-78243750D01*
X140800000Y-77756250D01*
X140801174Y-77732358D01*
X140804684Y-77708697D01*
X140810496Y-77685493D01*
X140818554Y-77662971D01*
X140828782Y-77641347D01*
X140841079Y-77620830D01*
X140855329Y-77601617D01*
X140871393Y-77583893D01*
X140889117Y-77567829D01*
X140908330Y-77553579D01*
X140928847Y-77541282D01*
X140950471Y-77531054D01*
X140972993Y-77522996D01*
X140996197Y-77517184D01*
X141019858Y-77513674D01*
X141043750Y-77512500D01*
X141956250Y-77512500D01*
X141980142Y-77513674D01*
G37*
G04 #@! TD.AperFunction*
G04 #@! TA.AperFunction,SMDPad,CuDef*
G36*
X141980142Y-75638674D02*
G01*
X142003803Y-75642184D01*
X142027007Y-75647996D01*
X142049529Y-75656054D01*
X142071153Y-75666282D01*
X142091670Y-75678579D01*
X142110883Y-75692829D01*
X142128607Y-75708893D01*
X142144671Y-75726617D01*
X142158921Y-75745830D01*
X142171218Y-75766347D01*
X142181446Y-75787971D01*
X142189504Y-75810493D01*
X142195316Y-75833697D01*
X142198826Y-75857358D01*
X142200000Y-75881250D01*
X142200000Y-76368750D01*
X142198826Y-76392642D01*
X142195316Y-76416303D01*
X142189504Y-76439507D01*
X142181446Y-76462029D01*
X142171218Y-76483653D01*
X142158921Y-76504170D01*
X142144671Y-76523383D01*
X142128607Y-76541107D01*
X142110883Y-76557171D01*
X142091670Y-76571421D01*
X142071153Y-76583718D01*
X142049529Y-76593946D01*
X142027007Y-76602004D01*
X142003803Y-76607816D01*
X141980142Y-76611326D01*
X141956250Y-76612500D01*
X141043750Y-76612500D01*
X141019858Y-76611326D01*
X140996197Y-76607816D01*
X140972993Y-76602004D01*
X140950471Y-76593946D01*
X140928847Y-76583718D01*
X140908330Y-76571421D01*
X140889117Y-76557171D01*
X140871393Y-76541107D01*
X140855329Y-76523383D01*
X140841079Y-76504170D01*
X140828782Y-76483653D01*
X140818554Y-76462029D01*
X140810496Y-76439507D01*
X140804684Y-76416303D01*
X140801174Y-76392642D01*
X140800000Y-76368750D01*
X140800000Y-75881250D01*
X140801174Y-75857358D01*
X140804684Y-75833697D01*
X140810496Y-75810493D01*
X140818554Y-75787971D01*
X140828782Y-75766347D01*
X140841079Y-75745830D01*
X140855329Y-75726617D01*
X140871393Y-75708893D01*
X140889117Y-75692829D01*
X140908330Y-75678579D01*
X140928847Y-75666282D01*
X140950471Y-75656054D01*
X140972993Y-75647996D01*
X140996197Y-75642184D01*
X141019858Y-75638674D01*
X141043750Y-75637500D01*
X141956250Y-75637500D01*
X141980142Y-75638674D01*
G37*
G04 #@! TD.AperFunction*
D11*
X120500000Y-72000000D03*
X120500000Y-76000000D03*
D12*
X116500000Y-65000000D03*
D13*
X116500000Y-67540000D03*
X116500000Y-70080000D03*
X116500000Y-72620000D03*
X116500000Y-75160000D03*
X116500000Y-77700000D03*
X116500000Y-80240000D03*
X116500000Y-82780000D03*
X116500000Y-85320000D03*
X116500000Y-87860000D03*
X144500000Y-87860000D03*
X144500000Y-85320000D03*
X144500000Y-82780000D03*
X144500000Y-80240000D03*
X144500000Y-77700000D03*
X144500000Y-75160000D03*
X144500000Y-72620000D03*
X144500000Y-70080000D03*
X144500000Y-67540000D03*
D12*
X144500000Y-65000000D03*
G04 #@! TA.AperFunction,SMDPad,CuDef*
D10*
G36*
X130239703Y-66445722D02*
G01*
X130254264Y-66447882D01*
X130268543Y-66451459D01*
X130282403Y-66456418D01*
X130295710Y-66462712D01*
X130308336Y-66470280D01*
X130320159Y-66479048D01*
X130331066Y-66488934D01*
X130340952Y-66499841D01*
X130349720Y-66511664D01*
X130357288Y-66524290D01*
X130363582Y-66537597D01*
X130368541Y-66551457D01*
X130372118Y-66565736D01*
X130374278Y-66580297D01*
X130375000Y-66595000D01*
X130375000Y-66895000D01*
X130374278Y-66909703D01*
X130372118Y-66924264D01*
X130368541Y-66938543D01*
X130363582Y-66952403D01*
X130357288Y-66965710D01*
X130349720Y-66978336D01*
X130340952Y-66990159D01*
X130331066Y-67001066D01*
X130320159Y-67010952D01*
X130308336Y-67019720D01*
X130295710Y-67027288D01*
X130282403Y-67033582D01*
X130268543Y-67038541D01*
X130254264Y-67042118D01*
X130239703Y-67044278D01*
X130225000Y-67045000D01*
X128475000Y-67045000D01*
X128460297Y-67044278D01*
X128445736Y-67042118D01*
X128431457Y-67038541D01*
X128417597Y-67033582D01*
X128404290Y-67027288D01*
X128391664Y-67019720D01*
X128379841Y-67010952D01*
X128368934Y-67001066D01*
X128359048Y-66990159D01*
X128350280Y-66978336D01*
X128342712Y-66965710D01*
X128336418Y-66952403D01*
X128331459Y-66938543D01*
X128327882Y-66924264D01*
X128325722Y-66909703D01*
X128325000Y-66895000D01*
X128325000Y-66595000D01*
X128325722Y-66580297D01*
X128327882Y-66565736D01*
X128331459Y-66551457D01*
X128336418Y-66537597D01*
X128342712Y-66524290D01*
X128350280Y-66511664D01*
X128359048Y-66499841D01*
X128368934Y-66488934D01*
X128379841Y-66479048D01*
X128391664Y-66470280D01*
X128404290Y-66462712D01*
X128417597Y-66456418D01*
X128431457Y-66451459D01*
X128445736Y-66447882D01*
X128460297Y-66445722D01*
X128475000Y-66445000D01*
X130225000Y-66445000D01*
X130239703Y-66445722D01*
G37*
G04 #@! TD.AperFunction*
G04 #@! TA.AperFunction,SMDPad,CuDef*
G36*
X130239703Y-67715722D02*
G01*
X130254264Y-67717882D01*
X130268543Y-67721459D01*
X130282403Y-67726418D01*
X130295710Y-67732712D01*
X130308336Y-67740280D01*
X130320159Y-67749048D01*
X130331066Y-67758934D01*
X130340952Y-67769841D01*
X130349720Y-67781664D01*
X130357288Y-67794290D01*
X130363582Y-67807597D01*
X130368541Y-67821457D01*
X130372118Y-67835736D01*
X130374278Y-67850297D01*
X130375000Y-67865000D01*
X130375000Y-68165000D01*
X130374278Y-68179703D01*
X130372118Y-68194264D01*
X130368541Y-68208543D01*
X130363582Y-68222403D01*
X130357288Y-68235710D01*
X130349720Y-68248336D01*
X130340952Y-68260159D01*
X130331066Y-68271066D01*
X130320159Y-68280952D01*
X130308336Y-68289720D01*
X130295710Y-68297288D01*
X130282403Y-68303582D01*
X130268543Y-68308541D01*
X130254264Y-68312118D01*
X130239703Y-68314278D01*
X130225000Y-68315000D01*
X128475000Y-68315000D01*
X128460297Y-68314278D01*
X128445736Y-68312118D01*
X128431457Y-68308541D01*
X128417597Y-68303582D01*
X128404290Y-68297288D01*
X128391664Y-68289720D01*
X128379841Y-68280952D01*
X128368934Y-68271066D01*
X128359048Y-68260159D01*
X128350280Y-68248336D01*
X128342712Y-68235710D01*
X128336418Y-68222403D01*
X128331459Y-68208543D01*
X128327882Y-68194264D01*
X128325722Y-68179703D01*
X128325000Y-68165000D01*
X128325000Y-67865000D01*
X128325722Y-67850297D01*
X128327882Y-67835736D01*
X128331459Y-67821457D01*
X128336418Y-67807597D01*
X128342712Y-67794290D01*
X128350280Y-67781664D01*
X128359048Y-67769841D01*
X128368934Y-67758934D01*
X128379841Y-67749048D01*
X128391664Y-67740280D01*
X128404290Y-67732712D01*
X128417597Y-67726418D01*
X128431457Y-67721459D01*
X128445736Y-67717882D01*
X128460297Y-67715722D01*
X128475000Y-67715000D01*
X130225000Y-67715000D01*
X130239703Y-67715722D01*
G37*
G04 #@! TD.AperFunction*
G04 #@! TA.AperFunction,SMDPad,CuDef*
G36*
X130239703Y-68985722D02*
G01*
X130254264Y-68987882D01*
X130268543Y-68991459D01*
X130282403Y-68996418D01*
X130295710Y-69002712D01*
X130308336Y-69010280D01*
X130320159Y-69019048D01*
X130331066Y-69028934D01*
X130340952Y-69039841D01*
X130349720Y-69051664D01*
X130357288Y-69064290D01*
X130363582Y-69077597D01*
X130368541Y-69091457D01*
X130372118Y-69105736D01*
X130374278Y-69120297D01*
X130375000Y-69135000D01*
X130375000Y-69435000D01*
X130374278Y-69449703D01*
X130372118Y-69464264D01*
X130368541Y-69478543D01*
X130363582Y-69492403D01*
X130357288Y-69505710D01*
X130349720Y-69518336D01*
X130340952Y-69530159D01*
X130331066Y-69541066D01*
X130320159Y-69550952D01*
X130308336Y-69559720D01*
X130295710Y-69567288D01*
X130282403Y-69573582D01*
X130268543Y-69578541D01*
X130254264Y-69582118D01*
X130239703Y-69584278D01*
X130225000Y-69585000D01*
X128475000Y-69585000D01*
X128460297Y-69584278D01*
X128445736Y-69582118D01*
X128431457Y-69578541D01*
X128417597Y-69573582D01*
X128404290Y-69567288D01*
X128391664Y-69559720D01*
X128379841Y-69550952D01*
X128368934Y-69541066D01*
X128359048Y-69530159D01*
X128350280Y-69518336D01*
X128342712Y-69505710D01*
X128336418Y-69492403D01*
X128331459Y-69478543D01*
X128327882Y-69464264D01*
X128325722Y-69449703D01*
X128325000Y-69435000D01*
X128325000Y-69135000D01*
X128325722Y-69120297D01*
X128327882Y-69105736D01*
X128331459Y-69091457D01*
X128336418Y-69077597D01*
X128342712Y-69064290D01*
X128350280Y-69051664D01*
X128359048Y-69039841D01*
X128368934Y-69028934D01*
X128379841Y-69019048D01*
X128391664Y-69010280D01*
X128404290Y-69002712D01*
X128417597Y-68996418D01*
X128431457Y-68991459D01*
X128445736Y-68987882D01*
X128460297Y-68985722D01*
X128475000Y-68985000D01*
X130225000Y-68985000D01*
X130239703Y-68985722D01*
G37*
G04 #@! TD.AperFunction*
G04 #@! TA.AperFunction,SMDPad,CuDef*
G36*
X130239703Y-70255722D02*
G01*
X130254264Y-70257882D01*
X130268543Y-70261459D01*
X130282403Y-70266418D01*
X130295710Y-70272712D01*
X130308336Y-70280280D01*
X130320159Y-70289048D01*
X130331066Y-70298934D01*
X130340952Y-70309841D01*
X130349720Y-70321664D01*
X130357288Y-70334290D01*
X130363582Y-70347597D01*
X130368541Y-70361457D01*
X130372118Y-70375736D01*
X130374278Y-70390297D01*
X130375000Y-70405000D01*
X130375000Y-70705000D01*
X130374278Y-70719703D01*
X130372118Y-70734264D01*
X130368541Y-70748543D01*
X130363582Y-70762403D01*
X130357288Y-70775710D01*
X130349720Y-70788336D01*
X130340952Y-70800159D01*
X130331066Y-70811066D01*
X130320159Y-70820952D01*
X130308336Y-70829720D01*
X130295710Y-70837288D01*
X130282403Y-70843582D01*
X130268543Y-70848541D01*
X130254264Y-70852118D01*
X130239703Y-70854278D01*
X130225000Y-70855000D01*
X128475000Y-70855000D01*
X128460297Y-70854278D01*
X128445736Y-70852118D01*
X128431457Y-70848541D01*
X128417597Y-70843582D01*
X128404290Y-70837288D01*
X128391664Y-70829720D01*
X128379841Y-70820952D01*
X128368934Y-70811066D01*
X128359048Y-70800159D01*
X128350280Y-70788336D01*
X128342712Y-70775710D01*
X128336418Y-70762403D01*
X128331459Y-70748543D01*
X128327882Y-70734264D01*
X128325722Y-70719703D01*
X128325000Y-70705000D01*
X128325000Y-70405000D01*
X128325722Y-70390297D01*
X128327882Y-70375736D01*
X128331459Y-70361457D01*
X128336418Y-70347597D01*
X128342712Y-70334290D01*
X128350280Y-70321664D01*
X128359048Y-70309841D01*
X128368934Y-70298934D01*
X128379841Y-70289048D01*
X128391664Y-70280280D01*
X128404290Y-70272712D01*
X128417597Y-70266418D01*
X128431457Y-70261459D01*
X128445736Y-70257882D01*
X128460297Y-70255722D01*
X128475000Y-70255000D01*
X130225000Y-70255000D01*
X130239703Y-70255722D01*
G37*
G04 #@! TD.AperFunction*
G04 #@! TA.AperFunction,SMDPad,CuDef*
G36*
X130239703Y-71525722D02*
G01*
X130254264Y-71527882D01*
X130268543Y-71531459D01*
X130282403Y-71536418D01*
X130295710Y-71542712D01*
X130308336Y-71550280D01*
X130320159Y-71559048D01*
X130331066Y-71568934D01*
X130340952Y-71579841D01*
X130349720Y-71591664D01*
X130357288Y-71604290D01*
X130363582Y-71617597D01*
X130368541Y-71631457D01*
X130372118Y-71645736D01*
X130374278Y-71660297D01*
X130375000Y-71675000D01*
X130375000Y-71975000D01*
X130374278Y-71989703D01*
X130372118Y-72004264D01*
X130368541Y-72018543D01*
X130363582Y-72032403D01*
X130357288Y-72045710D01*
X130349720Y-72058336D01*
X130340952Y-72070159D01*
X130331066Y-72081066D01*
X130320159Y-72090952D01*
X130308336Y-72099720D01*
X130295710Y-72107288D01*
X130282403Y-72113582D01*
X130268543Y-72118541D01*
X130254264Y-72122118D01*
X130239703Y-72124278D01*
X130225000Y-72125000D01*
X128475000Y-72125000D01*
X128460297Y-72124278D01*
X128445736Y-72122118D01*
X128431457Y-72118541D01*
X128417597Y-72113582D01*
X128404290Y-72107288D01*
X128391664Y-72099720D01*
X128379841Y-72090952D01*
X128368934Y-72081066D01*
X128359048Y-72070159D01*
X128350280Y-72058336D01*
X128342712Y-72045710D01*
X128336418Y-72032403D01*
X128331459Y-72018543D01*
X128327882Y-72004264D01*
X128325722Y-71989703D01*
X128325000Y-71975000D01*
X128325000Y-71675000D01*
X128325722Y-71660297D01*
X128327882Y-71645736D01*
X128331459Y-71631457D01*
X128336418Y-71617597D01*
X128342712Y-71604290D01*
X128350280Y-71591664D01*
X128359048Y-71579841D01*
X128368934Y-71568934D01*
X128379841Y-71559048D01*
X128391664Y-71550280D01*
X128404290Y-71542712D01*
X128417597Y-71536418D01*
X128431457Y-71531459D01*
X128445736Y-71527882D01*
X128460297Y-71525722D01*
X128475000Y-71525000D01*
X130225000Y-71525000D01*
X130239703Y-71525722D01*
G37*
G04 #@! TD.AperFunction*
G04 #@! TA.AperFunction,SMDPad,CuDef*
G36*
X130239703Y-72795722D02*
G01*
X130254264Y-72797882D01*
X130268543Y-72801459D01*
X130282403Y-72806418D01*
X130295710Y-72812712D01*
X130308336Y-72820280D01*
X130320159Y-72829048D01*
X130331066Y-72838934D01*
X130340952Y-72849841D01*
X130349720Y-72861664D01*
X130357288Y-72874290D01*
X130363582Y-72887597D01*
X130368541Y-72901457D01*
X130372118Y-72915736D01*
X130374278Y-72930297D01*
X130375000Y-72945000D01*
X130375000Y-73245000D01*
X130374278Y-73259703D01*
X130372118Y-73274264D01*
X130368541Y-73288543D01*
X130363582Y-73302403D01*
X130357288Y-73315710D01*
X130349720Y-73328336D01*
X130340952Y-73340159D01*
X130331066Y-73351066D01*
X130320159Y-73360952D01*
X130308336Y-73369720D01*
X130295710Y-73377288D01*
X130282403Y-73383582D01*
X130268543Y-73388541D01*
X130254264Y-73392118D01*
X130239703Y-73394278D01*
X130225000Y-73395000D01*
X128475000Y-73395000D01*
X128460297Y-73394278D01*
X128445736Y-73392118D01*
X128431457Y-73388541D01*
X128417597Y-73383582D01*
X128404290Y-73377288D01*
X128391664Y-73369720D01*
X128379841Y-73360952D01*
X128368934Y-73351066D01*
X128359048Y-73340159D01*
X128350280Y-73328336D01*
X128342712Y-73315710D01*
X128336418Y-73302403D01*
X128331459Y-73288543D01*
X128327882Y-73274264D01*
X128325722Y-73259703D01*
X128325000Y-73245000D01*
X128325000Y-72945000D01*
X128325722Y-72930297D01*
X128327882Y-72915736D01*
X128331459Y-72901457D01*
X128336418Y-72887597D01*
X128342712Y-72874290D01*
X128350280Y-72861664D01*
X128359048Y-72849841D01*
X128368934Y-72838934D01*
X128379841Y-72829048D01*
X128391664Y-72820280D01*
X128404290Y-72812712D01*
X128417597Y-72806418D01*
X128431457Y-72801459D01*
X128445736Y-72797882D01*
X128460297Y-72795722D01*
X128475000Y-72795000D01*
X130225000Y-72795000D01*
X130239703Y-72795722D01*
G37*
G04 #@! TD.AperFunction*
G04 #@! TA.AperFunction,SMDPad,CuDef*
G36*
X130239703Y-74065722D02*
G01*
X130254264Y-74067882D01*
X130268543Y-74071459D01*
X130282403Y-74076418D01*
X130295710Y-74082712D01*
X130308336Y-74090280D01*
X130320159Y-74099048D01*
X130331066Y-74108934D01*
X130340952Y-74119841D01*
X130349720Y-74131664D01*
X130357288Y-74144290D01*
X130363582Y-74157597D01*
X130368541Y-74171457D01*
X130372118Y-74185736D01*
X130374278Y-74200297D01*
X130375000Y-74215000D01*
X130375000Y-74515000D01*
X130374278Y-74529703D01*
X130372118Y-74544264D01*
X130368541Y-74558543D01*
X130363582Y-74572403D01*
X130357288Y-74585710D01*
X130349720Y-74598336D01*
X130340952Y-74610159D01*
X130331066Y-74621066D01*
X130320159Y-74630952D01*
X130308336Y-74639720D01*
X130295710Y-74647288D01*
X130282403Y-74653582D01*
X130268543Y-74658541D01*
X130254264Y-74662118D01*
X130239703Y-74664278D01*
X130225000Y-74665000D01*
X128475000Y-74665000D01*
X128460297Y-74664278D01*
X128445736Y-74662118D01*
X128431457Y-74658541D01*
X128417597Y-74653582D01*
X128404290Y-74647288D01*
X128391664Y-74639720D01*
X128379841Y-74630952D01*
X128368934Y-74621066D01*
X128359048Y-74610159D01*
X128350280Y-74598336D01*
X128342712Y-74585710D01*
X128336418Y-74572403D01*
X128331459Y-74558543D01*
X128327882Y-74544264D01*
X128325722Y-74529703D01*
X128325000Y-74515000D01*
X128325000Y-74215000D01*
X128325722Y-74200297D01*
X128327882Y-74185736D01*
X128331459Y-74171457D01*
X128336418Y-74157597D01*
X128342712Y-74144290D01*
X128350280Y-74131664D01*
X128359048Y-74119841D01*
X128368934Y-74108934D01*
X128379841Y-74099048D01*
X128391664Y-74090280D01*
X128404290Y-74082712D01*
X128417597Y-74076418D01*
X128431457Y-74071459D01*
X128445736Y-74067882D01*
X128460297Y-74065722D01*
X128475000Y-74065000D01*
X130225000Y-74065000D01*
X130239703Y-74065722D01*
G37*
G04 #@! TD.AperFunction*
G04 #@! TA.AperFunction,SMDPad,CuDef*
G36*
X130239703Y-75335722D02*
G01*
X130254264Y-75337882D01*
X130268543Y-75341459D01*
X130282403Y-75346418D01*
X130295710Y-75352712D01*
X130308336Y-75360280D01*
X130320159Y-75369048D01*
X130331066Y-75378934D01*
X130340952Y-75389841D01*
X130349720Y-75401664D01*
X130357288Y-75414290D01*
X130363582Y-75427597D01*
X130368541Y-75441457D01*
X130372118Y-75455736D01*
X130374278Y-75470297D01*
X130375000Y-75485000D01*
X130375000Y-75785000D01*
X130374278Y-75799703D01*
X130372118Y-75814264D01*
X130368541Y-75828543D01*
X130363582Y-75842403D01*
X130357288Y-75855710D01*
X130349720Y-75868336D01*
X130340952Y-75880159D01*
X130331066Y-75891066D01*
X130320159Y-75900952D01*
X130308336Y-75909720D01*
X130295710Y-75917288D01*
X130282403Y-75923582D01*
X130268543Y-75928541D01*
X130254264Y-75932118D01*
X130239703Y-75934278D01*
X130225000Y-75935000D01*
X128475000Y-75935000D01*
X128460297Y-75934278D01*
X128445736Y-75932118D01*
X128431457Y-75928541D01*
X128417597Y-75923582D01*
X128404290Y-75917288D01*
X128391664Y-75909720D01*
X128379841Y-75900952D01*
X128368934Y-75891066D01*
X128359048Y-75880159D01*
X128350280Y-75868336D01*
X128342712Y-75855710D01*
X128336418Y-75842403D01*
X128331459Y-75828543D01*
X128327882Y-75814264D01*
X128325722Y-75799703D01*
X128325000Y-75785000D01*
X128325000Y-75485000D01*
X128325722Y-75470297D01*
X128327882Y-75455736D01*
X128331459Y-75441457D01*
X128336418Y-75427597D01*
X128342712Y-75414290D01*
X128350280Y-75401664D01*
X128359048Y-75389841D01*
X128368934Y-75378934D01*
X128379841Y-75369048D01*
X128391664Y-75360280D01*
X128404290Y-75352712D01*
X128417597Y-75346418D01*
X128431457Y-75341459D01*
X128445736Y-75337882D01*
X128460297Y-75335722D01*
X128475000Y-75335000D01*
X130225000Y-75335000D01*
X130239703Y-75335722D01*
G37*
G04 #@! TD.AperFunction*
G04 #@! TA.AperFunction,SMDPad,CuDef*
G36*
X130239703Y-76605722D02*
G01*
X130254264Y-76607882D01*
X130268543Y-76611459D01*
X130282403Y-76616418D01*
X130295710Y-76622712D01*
X130308336Y-76630280D01*
X130320159Y-76639048D01*
X130331066Y-76648934D01*
X130340952Y-76659841D01*
X130349720Y-76671664D01*
X130357288Y-76684290D01*
X130363582Y-76697597D01*
X130368541Y-76711457D01*
X130372118Y-76725736D01*
X130374278Y-76740297D01*
X130375000Y-76755000D01*
X130375000Y-77055000D01*
X130374278Y-77069703D01*
X130372118Y-77084264D01*
X130368541Y-77098543D01*
X130363582Y-77112403D01*
X130357288Y-77125710D01*
X130349720Y-77138336D01*
X130340952Y-77150159D01*
X130331066Y-77161066D01*
X130320159Y-77170952D01*
X130308336Y-77179720D01*
X130295710Y-77187288D01*
X130282403Y-77193582D01*
X130268543Y-77198541D01*
X130254264Y-77202118D01*
X130239703Y-77204278D01*
X130225000Y-77205000D01*
X128475000Y-77205000D01*
X128460297Y-77204278D01*
X128445736Y-77202118D01*
X128431457Y-77198541D01*
X128417597Y-77193582D01*
X128404290Y-77187288D01*
X128391664Y-77179720D01*
X128379841Y-77170952D01*
X128368934Y-77161066D01*
X128359048Y-77150159D01*
X128350280Y-77138336D01*
X128342712Y-77125710D01*
X128336418Y-77112403D01*
X128331459Y-77098543D01*
X128327882Y-77084264D01*
X128325722Y-77069703D01*
X128325000Y-77055000D01*
X128325000Y-76755000D01*
X128325722Y-76740297D01*
X128327882Y-76725736D01*
X128331459Y-76711457D01*
X128336418Y-76697597D01*
X128342712Y-76684290D01*
X128350280Y-76671664D01*
X128359048Y-76659841D01*
X128368934Y-76648934D01*
X128379841Y-76639048D01*
X128391664Y-76630280D01*
X128404290Y-76622712D01*
X128417597Y-76616418D01*
X128431457Y-76611459D01*
X128445736Y-76607882D01*
X128460297Y-76605722D01*
X128475000Y-76605000D01*
X130225000Y-76605000D01*
X130239703Y-76605722D01*
G37*
G04 #@! TD.AperFunction*
G04 #@! TA.AperFunction,SMDPad,CuDef*
G36*
X130239703Y-77875722D02*
G01*
X130254264Y-77877882D01*
X130268543Y-77881459D01*
X130282403Y-77886418D01*
X130295710Y-77892712D01*
X130308336Y-77900280D01*
X130320159Y-77909048D01*
X130331066Y-77918934D01*
X130340952Y-77929841D01*
X130349720Y-77941664D01*
X130357288Y-77954290D01*
X130363582Y-77967597D01*
X130368541Y-77981457D01*
X130372118Y-77995736D01*
X130374278Y-78010297D01*
X130375000Y-78025000D01*
X130375000Y-78325000D01*
X130374278Y-78339703D01*
X130372118Y-78354264D01*
X130368541Y-78368543D01*
X130363582Y-78382403D01*
X130357288Y-78395710D01*
X130349720Y-78408336D01*
X130340952Y-78420159D01*
X130331066Y-78431066D01*
X130320159Y-78440952D01*
X130308336Y-78449720D01*
X130295710Y-78457288D01*
X130282403Y-78463582D01*
X130268543Y-78468541D01*
X130254264Y-78472118D01*
X130239703Y-78474278D01*
X130225000Y-78475000D01*
X128475000Y-78475000D01*
X128460297Y-78474278D01*
X128445736Y-78472118D01*
X128431457Y-78468541D01*
X128417597Y-78463582D01*
X128404290Y-78457288D01*
X128391664Y-78449720D01*
X128379841Y-78440952D01*
X128368934Y-78431066D01*
X128359048Y-78420159D01*
X128350280Y-78408336D01*
X128342712Y-78395710D01*
X128336418Y-78382403D01*
X128331459Y-78368543D01*
X128327882Y-78354264D01*
X128325722Y-78339703D01*
X128325000Y-78325000D01*
X128325000Y-78025000D01*
X128325722Y-78010297D01*
X128327882Y-77995736D01*
X128331459Y-77981457D01*
X128336418Y-77967597D01*
X128342712Y-77954290D01*
X128350280Y-77941664D01*
X128359048Y-77929841D01*
X128368934Y-77918934D01*
X128379841Y-77909048D01*
X128391664Y-77900280D01*
X128404290Y-77892712D01*
X128417597Y-77886418D01*
X128431457Y-77881459D01*
X128445736Y-77877882D01*
X128460297Y-77875722D01*
X128475000Y-77875000D01*
X130225000Y-77875000D01*
X130239703Y-77875722D01*
G37*
G04 #@! TD.AperFunction*
G04 #@! TA.AperFunction,SMDPad,CuDef*
G36*
X130239703Y-79145722D02*
G01*
X130254264Y-79147882D01*
X130268543Y-79151459D01*
X130282403Y-79156418D01*
X130295710Y-79162712D01*
X130308336Y-79170280D01*
X130320159Y-79179048D01*
X130331066Y-79188934D01*
X130340952Y-79199841D01*
X130349720Y-79211664D01*
X130357288Y-79224290D01*
X130363582Y-79237597D01*
X130368541Y-79251457D01*
X130372118Y-79265736D01*
X130374278Y-79280297D01*
X130375000Y-79295000D01*
X130375000Y-79595000D01*
X130374278Y-79609703D01*
X130372118Y-79624264D01*
X130368541Y-79638543D01*
X130363582Y-79652403D01*
X130357288Y-79665710D01*
X130349720Y-79678336D01*
X130340952Y-79690159D01*
X130331066Y-79701066D01*
X130320159Y-79710952D01*
X130308336Y-79719720D01*
X130295710Y-79727288D01*
X130282403Y-79733582D01*
X130268543Y-79738541D01*
X130254264Y-79742118D01*
X130239703Y-79744278D01*
X130225000Y-79745000D01*
X128475000Y-79745000D01*
X128460297Y-79744278D01*
X128445736Y-79742118D01*
X128431457Y-79738541D01*
X128417597Y-79733582D01*
X128404290Y-79727288D01*
X128391664Y-79719720D01*
X128379841Y-79710952D01*
X128368934Y-79701066D01*
X128359048Y-79690159D01*
X128350280Y-79678336D01*
X128342712Y-79665710D01*
X128336418Y-79652403D01*
X128331459Y-79638543D01*
X128327882Y-79624264D01*
X128325722Y-79609703D01*
X128325000Y-79595000D01*
X128325000Y-79295000D01*
X128325722Y-79280297D01*
X128327882Y-79265736D01*
X128331459Y-79251457D01*
X128336418Y-79237597D01*
X128342712Y-79224290D01*
X128350280Y-79211664D01*
X128359048Y-79199841D01*
X128368934Y-79188934D01*
X128379841Y-79179048D01*
X128391664Y-79170280D01*
X128404290Y-79162712D01*
X128417597Y-79156418D01*
X128431457Y-79151459D01*
X128445736Y-79147882D01*
X128460297Y-79145722D01*
X128475000Y-79145000D01*
X130225000Y-79145000D01*
X130239703Y-79145722D01*
G37*
G04 #@! TD.AperFunction*
G04 #@! TA.AperFunction,SMDPad,CuDef*
G36*
X130239703Y-80415722D02*
G01*
X130254264Y-80417882D01*
X130268543Y-80421459D01*
X130282403Y-80426418D01*
X130295710Y-80432712D01*
X130308336Y-80440280D01*
X130320159Y-80449048D01*
X130331066Y-80458934D01*
X130340952Y-80469841D01*
X130349720Y-80481664D01*
X130357288Y-80494290D01*
X130363582Y-80507597D01*
X130368541Y-80521457D01*
X130372118Y-80535736D01*
X130374278Y-80550297D01*
X130375000Y-80565000D01*
X130375000Y-80865000D01*
X130374278Y-80879703D01*
X130372118Y-80894264D01*
X130368541Y-80908543D01*
X130363582Y-80922403D01*
X130357288Y-80935710D01*
X130349720Y-80948336D01*
X130340952Y-80960159D01*
X130331066Y-80971066D01*
X130320159Y-80980952D01*
X130308336Y-80989720D01*
X130295710Y-80997288D01*
X130282403Y-81003582D01*
X130268543Y-81008541D01*
X130254264Y-81012118D01*
X130239703Y-81014278D01*
X130225000Y-81015000D01*
X128475000Y-81015000D01*
X128460297Y-81014278D01*
X128445736Y-81012118D01*
X128431457Y-81008541D01*
X128417597Y-81003582D01*
X128404290Y-80997288D01*
X128391664Y-80989720D01*
X128379841Y-80980952D01*
X128368934Y-80971066D01*
X128359048Y-80960159D01*
X128350280Y-80948336D01*
X128342712Y-80935710D01*
X128336418Y-80922403D01*
X128331459Y-80908543D01*
X128327882Y-80894264D01*
X128325722Y-80879703D01*
X128325000Y-80865000D01*
X128325000Y-80565000D01*
X128325722Y-80550297D01*
X128327882Y-80535736D01*
X128331459Y-80521457D01*
X128336418Y-80507597D01*
X128342712Y-80494290D01*
X128350280Y-80481664D01*
X128359048Y-80469841D01*
X128368934Y-80458934D01*
X128379841Y-80449048D01*
X128391664Y-80440280D01*
X128404290Y-80432712D01*
X128417597Y-80426418D01*
X128431457Y-80421459D01*
X128445736Y-80417882D01*
X128460297Y-80415722D01*
X128475000Y-80415000D01*
X130225000Y-80415000D01*
X130239703Y-80415722D01*
G37*
G04 #@! TD.AperFunction*
G04 #@! TA.AperFunction,SMDPad,CuDef*
G36*
X130239703Y-81685722D02*
G01*
X130254264Y-81687882D01*
X130268543Y-81691459D01*
X130282403Y-81696418D01*
X130295710Y-81702712D01*
X130308336Y-81710280D01*
X130320159Y-81719048D01*
X130331066Y-81728934D01*
X130340952Y-81739841D01*
X130349720Y-81751664D01*
X130357288Y-81764290D01*
X130363582Y-81777597D01*
X130368541Y-81791457D01*
X130372118Y-81805736D01*
X130374278Y-81820297D01*
X130375000Y-81835000D01*
X130375000Y-82135000D01*
X130374278Y-82149703D01*
X130372118Y-82164264D01*
X130368541Y-82178543D01*
X130363582Y-82192403D01*
X130357288Y-82205710D01*
X130349720Y-82218336D01*
X130340952Y-82230159D01*
X130331066Y-82241066D01*
X130320159Y-82250952D01*
X130308336Y-82259720D01*
X130295710Y-82267288D01*
X130282403Y-82273582D01*
X130268543Y-82278541D01*
X130254264Y-82282118D01*
X130239703Y-82284278D01*
X130225000Y-82285000D01*
X128475000Y-82285000D01*
X128460297Y-82284278D01*
X128445736Y-82282118D01*
X128431457Y-82278541D01*
X128417597Y-82273582D01*
X128404290Y-82267288D01*
X128391664Y-82259720D01*
X128379841Y-82250952D01*
X128368934Y-82241066D01*
X128359048Y-82230159D01*
X128350280Y-82218336D01*
X128342712Y-82205710D01*
X128336418Y-82192403D01*
X128331459Y-82178543D01*
X128327882Y-82164264D01*
X128325722Y-82149703D01*
X128325000Y-82135000D01*
X128325000Y-81835000D01*
X128325722Y-81820297D01*
X128327882Y-81805736D01*
X128331459Y-81791457D01*
X128336418Y-81777597D01*
X128342712Y-81764290D01*
X128350280Y-81751664D01*
X128359048Y-81739841D01*
X128368934Y-81728934D01*
X128379841Y-81719048D01*
X128391664Y-81710280D01*
X128404290Y-81702712D01*
X128417597Y-81696418D01*
X128431457Y-81691459D01*
X128445736Y-81687882D01*
X128460297Y-81685722D01*
X128475000Y-81685000D01*
X130225000Y-81685000D01*
X130239703Y-81685722D01*
G37*
G04 #@! TD.AperFunction*
G04 #@! TA.AperFunction,SMDPad,CuDef*
G36*
X130239703Y-82955722D02*
G01*
X130254264Y-82957882D01*
X130268543Y-82961459D01*
X130282403Y-82966418D01*
X130295710Y-82972712D01*
X130308336Y-82980280D01*
X130320159Y-82989048D01*
X130331066Y-82998934D01*
X130340952Y-83009841D01*
X130349720Y-83021664D01*
X130357288Y-83034290D01*
X130363582Y-83047597D01*
X130368541Y-83061457D01*
X130372118Y-83075736D01*
X130374278Y-83090297D01*
X130375000Y-83105000D01*
X130375000Y-83405000D01*
X130374278Y-83419703D01*
X130372118Y-83434264D01*
X130368541Y-83448543D01*
X130363582Y-83462403D01*
X130357288Y-83475710D01*
X130349720Y-83488336D01*
X130340952Y-83500159D01*
X130331066Y-83511066D01*
X130320159Y-83520952D01*
X130308336Y-83529720D01*
X130295710Y-83537288D01*
X130282403Y-83543582D01*
X130268543Y-83548541D01*
X130254264Y-83552118D01*
X130239703Y-83554278D01*
X130225000Y-83555000D01*
X128475000Y-83555000D01*
X128460297Y-83554278D01*
X128445736Y-83552118D01*
X128431457Y-83548541D01*
X128417597Y-83543582D01*
X128404290Y-83537288D01*
X128391664Y-83529720D01*
X128379841Y-83520952D01*
X128368934Y-83511066D01*
X128359048Y-83500159D01*
X128350280Y-83488336D01*
X128342712Y-83475710D01*
X128336418Y-83462403D01*
X128331459Y-83448543D01*
X128327882Y-83434264D01*
X128325722Y-83419703D01*
X128325000Y-83405000D01*
X128325000Y-83105000D01*
X128325722Y-83090297D01*
X128327882Y-83075736D01*
X128331459Y-83061457D01*
X128336418Y-83047597D01*
X128342712Y-83034290D01*
X128350280Y-83021664D01*
X128359048Y-83009841D01*
X128368934Y-82998934D01*
X128379841Y-82989048D01*
X128391664Y-82980280D01*
X128404290Y-82972712D01*
X128417597Y-82966418D01*
X128431457Y-82961459D01*
X128445736Y-82957882D01*
X128460297Y-82955722D01*
X128475000Y-82955000D01*
X130225000Y-82955000D01*
X130239703Y-82955722D01*
G37*
G04 #@! TD.AperFunction*
G04 #@! TA.AperFunction,SMDPad,CuDef*
G36*
X139539703Y-82955722D02*
G01*
X139554264Y-82957882D01*
X139568543Y-82961459D01*
X139582403Y-82966418D01*
X139595710Y-82972712D01*
X139608336Y-82980280D01*
X139620159Y-82989048D01*
X139631066Y-82998934D01*
X139640952Y-83009841D01*
X139649720Y-83021664D01*
X139657288Y-83034290D01*
X139663582Y-83047597D01*
X139668541Y-83061457D01*
X139672118Y-83075736D01*
X139674278Y-83090297D01*
X139675000Y-83105000D01*
X139675000Y-83405000D01*
X139674278Y-83419703D01*
X139672118Y-83434264D01*
X139668541Y-83448543D01*
X139663582Y-83462403D01*
X139657288Y-83475710D01*
X139649720Y-83488336D01*
X139640952Y-83500159D01*
X139631066Y-83511066D01*
X139620159Y-83520952D01*
X139608336Y-83529720D01*
X139595710Y-83537288D01*
X139582403Y-83543582D01*
X139568543Y-83548541D01*
X139554264Y-83552118D01*
X139539703Y-83554278D01*
X139525000Y-83555000D01*
X137775000Y-83555000D01*
X137760297Y-83554278D01*
X137745736Y-83552118D01*
X137731457Y-83548541D01*
X137717597Y-83543582D01*
X137704290Y-83537288D01*
X137691664Y-83529720D01*
X137679841Y-83520952D01*
X137668934Y-83511066D01*
X137659048Y-83500159D01*
X137650280Y-83488336D01*
X137642712Y-83475710D01*
X137636418Y-83462403D01*
X137631459Y-83448543D01*
X137627882Y-83434264D01*
X137625722Y-83419703D01*
X137625000Y-83405000D01*
X137625000Y-83105000D01*
X137625722Y-83090297D01*
X137627882Y-83075736D01*
X137631459Y-83061457D01*
X137636418Y-83047597D01*
X137642712Y-83034290D01*
X137650280Y-83021664D01*
X137659048Y-83009841D01*
X137668934Y-82998934D01*
X137679841Y-82989048D01*
X137691664Y-82980280D01*
X137704290Y-82972712D01*
X137717597Y-82966418D01*
X137731457Y-82961459D01*
X137745736Y-82957882D01*
X137760297Y-82955722D01*
X137775000Y-82955000D01*
X139525000Y-82955000D01*
X139539703Y-82955722D01*
G37*
G04 #@! TD.AperFunction*
G04 #@! TA.AperFunction,SMDPad,CuDef*
G36*
X139539703Y-81685722D02*
G01*
X139554264Y-81687882D01*
X139568543Y-81691459D01*
X139582403Y-81696418D01*
X139595710Y-81702712D01*
X139608336Y-81710280D01*
X139620159Y-81719048D01*
X139631066Y-81728934D01*
X139640952Y-81739841D01*
X139649720Y-81751664D01*
X139657288Y-81764290D01*
X139663582Y-81777597D01*
X139668541Y-81791457D01*
X139672118Y-81805736D01*
X139674278Y-81820297D01*
X139675000Y-81835000D01*
X139675000Y-82135000D01*
X139674278Y-82149703D01*
X139672118Y-82164264D01*
X139668541Y-82178543D01*
X139663582Y-82192403D01*
X139657288Y-82205710D01*
X139649720Y-82218336D01*
X139640952Y-82230159D01*
X139631066Y-82241066D01*
X139620159Y-82250952D01*
X139608336Y-82259720D01*
X139595710Y-82267288D01*
X139582403Y-82273582D01*
X139568543Y-82278541D01*
X139554264Y-82282118D01*
X139539703Y-82284278D01*
X139525000Y-82285000D01*
X137775000Y-82285000D01*
X137760297Y-82284278D01*
X137745736Y-82282118D01*
X137731457Y-82278541D01*
X137717597Y-82273582D01*
X137704290Y-82267288D01*
X137691664Y-82259720D01*
X137679841Y-82250952D01*
X137668934Y-82241066D01*
X137659048Y-82230159D01*
X137650280Y-82218336D01*
X137642712Y-82205710D01*
X137636418Y-82192403D01*
X137631459Y-82178543D01*
X137627882Y-82164264D01*
X137625722Y-82149703D01*
X137625000Y-82135000D01*
X137625000Y-81835000D01*
X137625722Y-81820297D01*
X137627882Y-81805736D01*
X137631459Y-81791457D01*
X137636418Y-81777597D01*
X137642712Y-81764290D01*
X137650280Y-81751664D01*
X137659048Y-81739841D01*
X137668934Y-81728934D01*
X137679841Y-81719048D01*
X137691664Y-81710280D01*
X137704290Y-81702712D01*
X137717597Y-81696418D01*
X137731457Y-81691459D01*
X137745736Y-81687882D01*
X137760297Y-81685722D01*
X137775000Y-81685000D01*
X139525000Y-81685000D01*
X139539703Y-81685722D01*
G37*
G04 #@! TD.AperFunction*
G04 #@! TA.AperFunction,SMDPad,CuDef*
G36*
X139539703Y-80415722D02*
G01*
X139554264Y-80417882D01*
X139568543Y-80421459D01*
X139582403Y-80426418D01*
X139595710Y-80432712D01*
X139608336Y-80440280D01*
X139620159Y-80449048D01*
X139631066Y-80458934D01*
X139640952Y-80469841D01*
X139649720Y-80481664D01*
X139657288Y-80494290D01*
X139663582Y-80507597D01*
X139668541Y-80521457D01*
X139672118Y-80535736D01*
X139674278Y-80550297D01*
X139675000Y-80565000D01*
X139675000Y-80865000D01*
X139674278Y-80879703D01*
X139672118Y-80894264D01*
X139668541Y-80908543D01*
X139663582Y-80922403D01*
X139657288Y-80935710D01*
X139649720Y-80948336D01*
X139640952Y-80960159D01*
X139631066Y-80971066D01*
X139620159Y-80980952D01*
X139608336Y-80989720D01*
X139595710Y-80997288D01*
X139582403Y-81003582D01*
X139568543Y-81008541D01*
X139554264Y-81012118D01*
X139539703Y-81014278D01*
X139525000Y-81015000D01*
X137775000Y-81015000D01*
X137760297Y-81014278D01*
X137745736Y-81012118D01*
X137731457Y-81008541D01*
X137717597Y-81003582D01*
X137704290Y-80997288D01*
X137691664Y-80989720D01*
X137679841Y-80980952D01*
X137668934Y-80971066D01*
X137659048Y-80960159D01*
X137650280Y-80948336D01*
X137642712Y-80935710D01*
X137636418Y-80922403D01*
X137631459Y-80908543D01*
X137627882Y-80894264D01*
X137625722Y-80879703D01*
X137625000Y-80865000D01*
X137625000Y-80565000D01*
X137625722Y-80550297D01*
X137627882Y-80535736D01*
X137631459Y-80521457D01*
X137636418Y-80507597D01*
X137642712Y-80494290D01*
X137650280Y-80481664D01*
X137659048Y-80469841D01*
X137668934Y-80458934D01*
X137679841Y-80449048D01*
X137691664Y-80440280D01*
X137704290Y-80432712D01*
X137717597Y-80426418D01*
X137731457Y-80421459D01*
X137745736Y-80417882D01*
X137760297Y-80415722D01*
X137775000Y-80415000D01*
X139525000Y-80415000D01*
X139539703Y-80415722D01*
G37*
G04 #@! TD.AperFunction*
G04 #@! TA.AperFunction,SMDPad,CuDef*
G36*
X139539703Y-79145722D02*
G01*
X139554264Y-79147882D01*
X139568543Y-79151459D01*
X139582403Y-79156418D01*
X139595710Y-79162712D01*
X139608336Y-79170280D01*
X139620159Y-79179048D01*
X139631066Y-79188934D01*
X139640952Y-79199841D01*
X139649720Y-79211664D01*
X139657288Y-79224290D01*
X139663582Y-79237597D01*
X139668541Y-79251457D01*
X139672118Y-79265736D01*
X139674278Y-79280297D01*
X139675000Y-79295000D01*
X139675000Y-79595000D01*
X139674278Y-79609703D01*
X139672118Y-79624264D01*
X139668541Y-79638543D01*
X139663582Y-79652403D01*
X139657288Y-79665710D01*
X139649720Y-79678336D01*
X139640952Y-79690159D01*
X139631066Y-79701066D01*
X139620159Y-79710952D01*
X139608336Y-79719720D01*
X139595710Y-79727288D01*
X139582403Y-79733582D01*
X139568543Y-79738541D01*
X139554264Y-79742118D01*
X139539703Y-79744278D01*
X139525000Y-79745000D01*
X137775000Y-79745000D01*
X137760297Y-79744278D01*
X137745736Y-79742118D01*
X137731457Y-79738541D01*
X137717597Y-79733582D01*
X137704290Y-79727288D01*
X137691664Y-79719720D01*
X137679841Y-79710952D01*
X137668934Y-79701066D01*
X137659048Y-79690159D01*
X137650280Y-79678336D01*
X137642712Y-79665710D01*
X137636418Y-79652403D01*
X137631459Y-79638543D01*
X137627882Y-79624264D01*
X137625722Y-79609703D01*
X137625000Y-79595000D01*
X137625000Y-79295000D01*
X137625722Y-79280297D01*
X137627882Y-79265736D01*
X137631459Y-79251457D01*
X137636418Y-79237597D01*
X137642712Y-79224290D01*
X137650280Y-79211664D01*
X137659048Y-79199841D01*
X137668934Y-79188934D01*
X137679841Y-79179048D01*
X137691664Y-79170280D01*
X137704290Y-79162712D01*
X137717597Y-79156418D01*
X137731457Y-79151459D01*
X137745736Y-79147882D01*
X137760297Y-79145722D01*
X137775000Y-79145000D01*
X139525000Y-79145000D01*
X139539703Y-79145722D01*
G37*
G04 #@! TD.AperFunction*
G04 #@! TA.AperFunction,SMDPad,CuDef*
G36*
X139539703Y-77875722D02*
G01*
X139554264Y-77877882D01*
X139568543Y-77881459D01*
X139582403Y-77886418D01*
X139595710Y-77892712D01*
X139608336Y-77900280D01*
X139620159Y-77909048D01*
X139631066Y-77918934D01*
X139640952Y-77929841D01*
X139649720Y-77941664D01*
X139657288Y-77954290D01*
X139663582Y-77967597D01*
X139668541Y-77981457D01*
X139672118Y-77995736D01*
X139674278Y-78010297D01*
X139675000Y-78025000D01*
X139675000Y-78325000D01*
X139674278Y-78339703D01*
X139672118Y-78354264D01*
X139668541Y-78368543D01*
X139663582Y-78382403D01*
X139657288Y-78395710D01*
X139649720Y-78408336D01*
X139640952Y-78420159D01*
X139631066Y-78431066D01*
X139620159Y-78440952D01*
X139608336Y-78449720D01*
X139595710Y-78457288D01*
X139582403Y-78463582D01*
X139568543Y-78468541D01*
X139554264Y-78472118D01*
X139539703Y-78474278D01*
X139525000Y-78475000D01*
X137775000Y-78475000D01*
X137760297Y-78474278D01*
X137745736Y-78472118D01*
X137731457Y-78468541D01*
X137717597Y-78463582D01*
X137704290Y-78457288D01*
X137691664Y-78449720D01*
X137679841Y-78440952D01*
X137668934Y-78431066D01*
X137659048Y-78420159D01*
X137650280Y-78408336D01*
X137642712Y-78395710D01*
X137636418Y-78382403D01*
X137631459Y-78368543D01*
X137627882Y-78354264D01*
X137625722Y-78339703D01*
X137625000Y-78325000D01*
X137625000Y-78025000D01*
X137625722Y-78010297D01*
X137627882Y-77995736D01*
X137631459Y-77981457D01*
X137636418Y-77967597D01*
X137642712Y-77954290D01*
X137650280Y-77941664D01*
X137659048Y-77929841D01*
X137668934Y-77918934D01*
X137679841Y-77909048D01*
X137691664Y-77900280D01*
X137704290Y-77892712D01*
X137717597Y-77886418D01*
X137731457Y-77881459D01*
X137745736Y-77877882D01*
X137760297Y-77875722D01*
X137775000Y-77875000D01*
X139525000Y-77875000D01*
X139539703Y-77875722D01*
G37*
G04 #@! TD.AperFunction*
G04 #@! TA.AperFunction,SMDPad,CuDef*
G36*
X139539703Y-76605722D02*
G01*
X139554264Y-76607882D01*
X139568543Y-76611459D01*
X139582403Y-76616418D01*
X139595710Y-76622712D01*
X139608336Y-76630280D01*
X139620159Y-76639048D01*
X139631066Y-76648934D01*
X139640952Y-76659841D01*
X139649720Y-76671664D01*
X139657288Y-76684290D01*
X139663582Y-76697597D01*
X139668541Y-76711457D01*
X139672118Y-76725736D01*
X139674278Y-76740297D01*
X139675000Y-76755000D01*
X139675000Y-77055000D01*
X139674278Y-77069703D01*
X139672118Y-77084264D01*
X139668541Y-77098543D01*
X139663582Y-77112403D01*
X139657288Y-77125710D01*
X139649720Y-77138336D01*
X139640952Y-77150159D01*
X139631066Y-77161066D01*
X139620159Y-77170952D01*
X139608336Y-77179720D01*
X139595710Y-77187288D01*
X139582403Y-77193582D01*
X139568543Y-77198541D01*
X139554264Y-77202118D01*
X139539703Y-77204278D01*
X139525000Y-77205000D01*
X137775000Y-77205000D01*
X137760297Y-77204278D01*
X137745736Y-77202118D01*
X137731457Y-77198541D01*
X137717597Y-77193582D01*
X137704290Y-77187288D01*
X137691664Y-77179720D01*
X137679841Y-77170952D01*
X137668934Y-77161066D01*
X137659048Y-77150159D01*
X137650280Y-77138336D01*
X137642712Y-77125710D01*
X137636418Y-77112403D01*
X137631459Y-77098543D01*
X137627882Y-77084264D01*
X137625722Y-77069703D01*
X137625000Y-77055000D01*
X137625000Y-76755000D01*
X137625722Y-76740297D01*
X137627882Y-76725736D01*
X137631459Y-76711457D01*
X137636418Y-76697597D01*
X137642712Y-76684290D01*
X137650280Y-76671664D01*
X137659048Y-76659841D01*
X137668934Y-76648934D01*
X137679841Y-76639048D01*
X137691664Y-76630280D01*
X137704290Y-76622712D01*
X137717597Y-76616418D01*
X137731457Y-76611459D01*
X137745736Y-76607882D01*
X137760297Y-76605722D01*
X137775000Y-76605000D01*
X139525000Y-76605000D01*
X139539703Y-76605722D01*
G37*
G04 #@! TD.AperFunction*
G04 #@! TA.AperFunction,SMDPad,CuDef*
G36*
X139539703Y-75335722D02*
G01*
X139554264Y-75337882D01*
X139568543Y-75341459D01*
X139582403Y-75346418D01*
X139595710Y-75352712D01*
X139608336Y-75360280D01*
X139620159Y-75369048D01*
X139631066Y-75378934D01*
X139640952Y-75389841D01*
X139649720Y-75401664D01*
X139657288Y-75414290D01*
X139663582Y-75427597D01*
X139668541Y-75441457D01*
X139672118Y-75455736D01*
X139674278Y-75470297D01*
X139675000Y-75485000D01*
X139675000Y-75785000D01*
X139674278Y-75799703D01*
X139672118Y-75814264D01*
X139668541Y-75828543D01*
X139663582Y-75842403D01*
X139657288Y-75855710D01*
X139649720Y-75868336D01*
X139640952Y-75880159D01*
X139631066Y-75891066D01*
X139620159Y-75900952D01*
X139608336Y-75909720D01*
X139595710Y-75917288D01*
X139582403Y-75923582D01*
X139568543Y-75928541D01*
X139554264Y-75932118D01*
X139539703Y-75934278D01*
X139525000Y-75935000D01*
X137775000Y-75935000D01*
X137760297Y-75934278D01*
X137745736Y-75932118D01*
X137731457Y-75928541D01*
X137717597Y-75923582D01*
X137704290Y-75917288D01*
X137691664Y-75909720D01*
X137679841Y-75900952D01*
X137668934Y-75891066D01*
X137659048Y-75880159D01*
X137650280Y-75868336D01*
X137642712Y-75855710D01*
X137636418Y-75842403D01*
X137631459Y-75828543D01*
X137627882Y-75814264D01*
X137625722Y-75799703D01*
X137625000Y-75785000D01*
X137625000Y-75485000D01*
X137625722Y-75470297D01*
X137627882Y-75455736D01*
X137631459Y-75441457D01*
X137636418Y-75427597D01*
X137642712Y-75414290D01*
X137650280Y-75401664D01*
X137659048Y-75389841D01*
X137668934Y-75378934D01*
X137679841Y-75369048D01*
X137691664Y-75360280D01*
X137704290Y-75352712D01*
X137717597Y-75346418D01*
X137731457Y-75341459D01*
X137745736Y-75337882D01*
X137760297Y-75335722D01*
X137775000Y-75335000D01*
X139525000Y-75335000D01*
X139539703Y-75335722D01*
G37*
G04 #@! TD.AperFunction*
G04 #@! TA.AperFunction,SMDPad,CuDef*
G36*
X139539703Y-74065722D02*
G01*
X139554264Y-74067882D01*
X139568543Y-74071459D01*
X139582403Y-74076418D01*
X139595710Y-74082712D01*
X139608336Y-74090280D01*
X139620159Y-74099048D01*
X139631066Y-74108934D01*
X139640952Y-74119841D01*
X139649720Y-74131664D01*
X139657288Y-74144290D01*
X139663582Y-74157597D01*
X139668541Y-74171457D01*
X139672118Y-74185736D01*
X139674278Y-74200297D01*
X139675000Y-74215000D01*
X139675000Y-74515000D01*
X139674278Y-74529703D01*
X139672118Y-74544264D01*
X139668541Y-74558543D01*
X139663582Y-74572403D01*
X139657288Y-74585710D01*
X139649720Y-74598336D01*
X139640952Y-74610159D01*
X139631066Y-74621066D01*
X139620159Y-74630952D01*
X139608336Y-74639720D01*
X139595710Y-74647288D01*
X139582403Y-74653582D01*
X139568543Y-74658541D01*
X139554264Y-74662118D01*
X139539703Y-74664278D01*
X139525000Y-74665000D01*
X137775000Y-74665000D01*
X137760297Y-74664278D01*
X137745736Y-74662118D01*
X137731457Y-74658541D01*
X137717597Y-74653582D01*
X137704290Y-74647288D01*
X137691664Y-74639720D01*
X137679841Y-74630952D01*
X137668934Y-74621066D01*
X137659048Y-74610159D01*
X137650280Y-74598336D01*
X137642712Y-74585710D01*
X137636418Y-74572403D01*
X137631459Y-74558543D01*
X137627882Y-74544264D01*
X137625722Y-74529703D01*
X137625000Y-74515000D01*
X137625000Y-74215000D01*
X137625722Y-74200297D01*
X137627882Y-74185736D01*
X137631459Y-74171457D01*
X137636418Y-74157597D01*
X137642712Y-74144290D01*
X137650280Y-74131664D01*
X137659048Y-74119841D01*
X137668934Y-74108934D01*
X137679841Y-74099048D01*
X137691664Y-74090280D01*
X137704290Y-74082712D01*
X137717597Y-74076418D01*
X137731457Y-74071459D01*
X137745736Y-74067882D01*
X137760297Y-74065722D01*
X137775000Y-74065000D01*
X139525000Y-74065000D01*
X139539703Y-74065722D01*
G37*
G04 #@! TD.AperFunction*
G04 #@! TA.AperFunction,SMDPad,CuDef*
G36*
X139539703Y-72795722D02*
G01*
X139554264Y-72797882D01*
X139568543Y-72801459D01*
X139582403Y-72806418D01*
X139595710Y-72812712D01*
X139608336Y-72820280D01*
X139620159Y-72829048D01*
X139631066Y-72838934D01*
X139640952Y-72849841D01*
X139649720Y-72861664D01*
X139657288Y-72874290D01*
X139663582Y-72887597D01*
X139668541Y-72901457D01*
X139672118Y-72915736D01*
X139674278Y-72930297D01*
X139675000Y-72945000D01*
X139675000Y-73245000D01*
X139674278Y-73259703D01*
X139672118Y-73274264D01*
X139668541Y-73288543D01*
X139663582Y-73302403D01*
X139657288Y-73315710D01*
X139649720Y-73328336D01*
X139640952Y-73340159D01*
X139631066Y-73351066D01*
X139620159Y-73360952D01*
X139608336Y-73369720D01*
X139595710Y-73377288D01*
X139582403Y-73383582D01*
X139568543Y-73388541D01*
X139554264Y-73392118D01*
X139539703Y-73394278D01*
X139525000Y-73395000D01*
X137775000Y-73395000D01*
X137760297Y-73394278D01*
X137745736Y-73392118D01*
X137731457Y-73388541D01*
X137717597Y-73383582D01*
X137704290Y-73377288D01*
X137691664Y-73369720D01*
X137679841Y-73360952D01*
X137668934Y-73351066D01*
X137659048Y-73340159D01*
X137650280Y-73328336D01*
X137642712Y-73315710D01*
X137636418Y-73302403D01*
X137631459Y-73288543D01*
X137627882Y-73274264D01*
X137625722Y-73259703D01*
X137625000Y-73245000D01*
X137625000Y-72945000D01*
X137625722Y-72930297D01*
X137627882Y-72915736D01*
X137631459Y-72901457D01*
X137636418Y-72887597D01*
X137642712Y-72874290D01*
X137650280Y-72861664D01*
X137659048Y-72849841D01*
X137668934Y-72838934D01*
X137679841Y-72829048D01*
X137691664Y-72820280D01*
X137704290Y-72812712D01*
X137717597Y-72806418D01*
X137731457Y-72801459D01*
X137745736Y-72797882D01*
X137760297Y-72795722D01*
X137775000Y-72795000D01*
X139525000Y-72795000D01*
X139539703Y-72795722D01*
G37*
G04 #@! TD.AperFunction*
G04 #@! TA.AperFunction,SMDPad,CuDef*
G36*
X139539703Y-71525722D02*
G01*
X139554264Y-71527882D01*
X139568543Y-71531459D01*
X139582403Y-71536418D01*
X139595710Y-71542712D01*
X139608336Y-71550280D01*
X139620159Y-71559048D01*
X139631066Y-71568934D01*
X139640952Y-71579841D01*
X139649720Y-71591664D01*
X139657288Y-71604290D01*
X139663582Y-71617597D01*
X139668541Y-71631457D01*
X139672118Y-71645736D01*
X139674278Y-71660297D01*
X139675000Y-71675000D01*
X139675000Y-71975000D01*
X139674278Y-71989703D01*
X139672118Y-72004264D01*
X139668541Y-72018543D01*
X139663582Y-72032403D01*
X139657288Y-72045710D01*
X139649720Y-72058336D01*
X139640952Y-72070159D01*
X139631066Y-72081066D01*
X139620159Y-72090952D01*
X139608336Y-72099720D01*
X139595710Y-72107288D01*
X139582403Y-72113582D01*
X139568543Y-72118541D01*
X139554264Y-72122118D01*
X139539703Y-72124278D01*
X139525000Y-72125000D01*
X137775000Y-72125000D01*
X137760297Y-72124278D01*
X137745736Y-72122118D01*
X137731457Y-72118541D01*
X137717597Y-72113582D01*
X137704290Y-72107288D01*
X137691664Y-72099720D01*
X137679841Y-72090952D01*
X137668934Y-72081066D01*
X137659048Y-72070159D01*
X137650280Y-72058336D01*
X137642712Y-72045710D01*
X137636418Y-72032403D01*
X137631459Y-72018543D01*
X137627882Y-72004264D01*
X137625722Y-71989703D01*
X137625000Y-71975000D01*
X137625000Y-71675000D01*
X137625722Y-71660297D01*
X137627882Y-71645736D01*
X137631459Y-71631457D01*
X137636418Y-71617597D01*
X137642712Y-71604290D01*
X137650280Y-71591664D01*
X137659048Y-71579841D01*
X137668934Y-71568934D01*
X137679841Y-71559048D01*
X137691664Y-71550280D01*
X137704290Y-71542712D01*
X137717597Y-71536418D01*
X137731457Y-71531459D01*
X137745736Y-71527882D01*
X137760297Y-71525722D01*
X137775000Y-71525000D01*
X139525000Y-71525000D01*
X139539703Y-71525722D01*
G37*
G04 #@! TD.AperFunction*
G04 #@! TA.AperFunction,SMDPad,CuDef*
G36*
X139539703Y-70255722D02*
G01*
X139554264Y-70257882D01*
X139568543Y-70261459D01*
X139582403Y-70266418D01*
X139595710Y-70272712D01*
X139608336Y-70280280D01*
X139620159Y-70289048D01*
X139631066Y-70298934D01*
X139640952Y-70309841D01*
X139649720Y-70321664D01*
X139657288Y-70334290D01*
X139663582Y-70347597D01*
X139668541Y-70361457D01*
X139672118Y-70375736D01*
X139674278Y-70390297D01*
X139675000Y-70405000D01*
X139675000Y-70705000D01*
X139674278Y-70719703D01*
X139672118Y-70734264D01*
X139668541Y-70748543D01*
X139663582Y-70762403D01*
X139657288Y-70775710D01*
X139649720Y-70788336D01*
X139640952Y-70800159D01*
X139631066Y-70811066D01*
X139620159Y-70820952D01*
X139608336Y-70829720D01*
X139595710Y-70837288D01*
X139582403Y-70843582D01*
X139568543Y-70848541D01*
X139554264Y-70852118D01*
X139539703Y-70854278D01*
X139525000Y-70855000D01*
X137775000Y-70855000D01*
X137760297Y-70854278D01*
X137745736Y-70852118D01*
X137731457Y-70848541D01*
X137717597Y-70843582D01*
X137704290Y-70837288D01*
X137691664Y-70829720D01*
X137679841Y-70820952D01*
X137668934Y-70811066D01*
X137659048Y-70800159D01*
X137650280Y-70788336D01*
X137642712Y-70775710D01*
X137636418Y-70762403D01*
X137631459Y-70748543D01*
X137627882Y-70734264D01*
X137625722Y-70719703D01*
X137625000Y-70705000D01*
X137625000Y-70405000D01*
X137625722Y-70390297D01*
X137627882Y-70375736D01*
X137631459Y-70361457D01*
X137636418Y-70347597D01*
X137642712Y-70334290D01*
X137650280Y-70321664D01*
X137659048Y-70309841D01*
X137668934Y-70298934D01*
X137679841Y-70289048D01*
X137691664Y-70280280D01*
X137704290Y-70272712D01*
X137717597Y-70266418D01*
X137731457Y-70261459D01*
X137745736Y-70257882D01*
X137760297Y-70255722D01*
X137775000Y-70255000D01*
X139525000Y-70255000D01*
X139539703Y-70255722D01*
G37*
G04 #@! TD.AperFunction*
G04 #@! TA.AperFunction,SMDPad,CuDef*
G36*
X139539703Y-68985722D02*
G01*
X139554264Y-68987882D01*
X139568543Y-68991459D01*
X139582403Y-68996418D01*
X139595710Y-69002712D01*
X139608336Y-69010280D01*
X139620159Y-69019048D01*
X139631066Y-69028934D01*
X139640952Y-69039841D01*
X139649720Y-69051664D01*
X139657288Y-69064290D01*
X139663582Y-69077597D01*
X139668541Y-69091457D01*
X139672118Y-69105736D01*
X139674278Y-69120297D01*
X139675000Y-69135000D01*
X139675000Y-69435000D01*
X139674278Y-69449703D01*
X139672118Y-69464264D01*
X139668541Y-69478543D01*
X139663582Y-69492403D01*
X139657288Y-69505710D01*
X139649720Y-69518336D01*
X139640952Y-69530159D01*
X139631066Y-69541066D01*
X139620159Y-69550952D01*
X139608336Y-69559720D01*
X139595710Y-69567288D01*
X139582403Y-69573582D01*
X139568543Y-69578541D01*
X139554264Y-69582118D01*
X139539703Y-69584278D01*
X139525000Y-69585000D01*
X137775000Y-69585000D01*
X137760297Y-69584278D01*
X137745736Y-69582118D01*
X137731457Y-69578541D01*
X137717597Y-69573582D01*
X137704290Y-69567288D01*
X137691664Y-69559720D01*
X137679841Y-69550952D01*
X137668934Y-69541066D01*
X137659048Y-69530159D01*
X137650280Y-69518336D01*
X137642712Y-69505710D01*
X137636418Y-69492403D01*
X137631459Y-69478543D01*
X137627882Y-69464264D01*
X137625722Y-69449703D01*
X137625000Y-69435000D01*
X137625000Y-69135000D01*
X137625722Y-69120297D01*
X137627882Y-69105736D01*
X137631459Y-69091457D01*
X137636418Y-69077597D01*
X137642712Y-69064290D01*
X137650280Y-69051664D01*
X137659048Y-69039841D01*
X137668934Y-69028934D01*
X137679841Y-69019048D01*
X137691664Y-69010280D01*
X137704290Y-69002712D01*
X137717597Y-68996418D01*
X137731457Y-68991459D01*
X137745736Y-68987882D01*
X137760297Y-68985722D01*
X137775000Y-68985000D01*
X139525000Y-68985000D01*
X139539703Y-68985722D01*
G37*
G04 #@! TD.AperFunction*
G04 #@! TA.AperFunction,SMDPad,CuDef*
G36*
X139539703Y-67715722D02*
G01*
X139554264Y-67717882D01*
X139568543Y-67721459D01*
X139582403Y-67726418D01*
X139595710Y-67732712D01*
X139608336Y-67740280D01*
X139620159Y-67749048D01*
X139631066Y-67758934D01*
X139640952Y-67769841D01*
X139649720Y-67781664D01*
X139657288Y-67794290D01*
X139663582Y-67807597D01*
X139668541Y-67821457D01*
X139672118Y-67835736D01*
X139674278Y-67850297D01*
X139675000Y-67865000D01*
X139675000Y-68165000D01*
X139674278Y-68179703D01*
X139672118Y-68194264D01*
X139668541Y-68208543D01*
X139663582Y-68222403D01*
X139657288Y-68235710D01*
X139649720Y-68248336D01*
X139640952Y-68260159D01*
X139631066Y-68271066D01*
X139620159Y-68280952D01*
X139608336Y-68289720D01*
X139595710Y-68297288D01*
X139582403Y-68303582D01*
X139568543Y-68308541D01*
X139554264Y-68312118D01*
X139539703Y-68314278D01*
X139525000Y-68315000D01*
X137775000Y-68315000D01*
X137760297Y-68314278D01*
X137745736Y-68312118D01*
X137731457Y-68308541D01*
X137717597Y-68303582D01*
X137704290Y-68297288D01*
X137691664Y-68289720D01*
X137679841Y-68280952D01*
X137668934Y-68271066D01*
X137659048Y-68260159D01*
X137650280Y-68248336D01*
X137642712Y-68235710D01*
X137636418Y-68222403D01*
X137631459Y-68208543D01*
X137627882Y-68194264D01*
X137625722Y-68179703D01*
X137625000Y-68165000D01*
X137625000Y-67865000D01*
X137625722Y-67850297D01*
X137627882Y-67835736D01*
X137631459Y-67821457D01*
X137636418Y-67807597D01*
X137642712Y-67794290D01*
X137650280Y-67781664D01*
X137659048Y-67769841D01*
X137668934Y-67758934D01*
X137679841Y-67749048D01*
X137691664Y-67740280D01*
X137704290Y-67732712D01*
X137717597Y-67726418D01*
X137731457Y-67721459D01*
X137745736Y-67717882D01*
X137760297Y-67715722D01*
X137775000Y-67715000D01*
X139525000Y-67715000D01*
X139539703Y-67715722D01*
G37*
G04 #@! TD.AperFunction*
G04 #@! TA.AperFunction,SMDPad,CuDef*
G36*
X139539703Y-66445722D02*
G01*
X139554264Y-66447882D01*
X139568543Y-66451459D01*
X139582403Y-66456418D01*
X139595710Y-66462712D01*
X139608336Y-66470280D01*
X139620159Y-66479048D01*
X139631066Y-66488934D01*
X139640952Y-66499841D01*
X139649720Y-66511664D01*
X139657288Y-66524290D01*
X139663582Y-66537597D01*
X139668541Y-66551457D01*
X139672118Y-66565736D01*
X139674278Y-66580297D01*
X139675000Y-66595000D01*
X139675000Y-66895000D01*
X139674278Y-66909703D01*
X139672118Y-66924264D01*
X139668541Y-66938543D01*
X139663582Y-66952403D01*
X139657288Y-66965710D01*
X139649720Y-66978336D01*
X139640952Y-66990159D01*
X139631066Y-67001066D01*
X139620159Y-67010952D01*
X139608336Y-67019720D01*
X139595710Y-67027288D01*
X139582403Y-67033582D01*
X139568543Y-67038541D01*
X139554264Y-67042118D01*
X139539703Y-67044278D01*
X139525000Y-67045000D01*
X137775000Y-67045000D01*
X137760297Y-67044278D01*
X137745736Y-67042118D01*
X137731457Y-67038541D01*
X137717597Y-67033582D01*
X137704290Y-67027288D01*
X137691664Y-67019720D01*
X137679841Y-67010952D01*
X137668934Y-67001066D01*
X137659048Y-66990159D01*
X137650280Y-66978336D01*
X137642712Y-66965710D01*
X137636418Y-66952403D01*
X137631459Y-66938543D01*
X137627882Y-66924264D01*
X137625722Y-66909703D01*
X137625000Y-66895000D01*
X137625000Y-66595000D01*
X137625722Y-66580297D01*
X137627882Y-66565736D01*
X137631459Y-66551457D01*
X137636418Y-66537597D01*
X137642712Y-66524290D01*
X137650280Y-66511664D01*
X137659048Y-66499841D01*
X137668934Y-66488934D01*
X137679841Y-66479048D01*
X137691664Y-66470280D01*
X137704290Y-66462712D01*
X137717597Y-66456418D01*
X137731457Y-66451459D01*
X137745736Y-66447882D01*
X137760297Y-66445722D01*
X137775000Y-66445000D01*
X139525000Y-66445000D01*
X139539703Y-66445722D01*
G37*
G04 #@! TD.AperFunction*
G04 #@! TA.AperFunction,SMDPad,CuDef*
G36*
X124649504Y-78276204D02*
G01*
X124673773Y-78279804D01*
X124697571Y-78285765D01*
X124720671Y-78294030D01*
X124742849Y-78304520D01*
X124763893Y-78317133D01*
X124783598Y-78331747D01*
X124801777Y-78348223D01*
X124818253Y-78366402D01*
X124832867Y-78386107D01*
X124845480Y-78407151D01*
X124855970Y-78429329D01*
X124864235Y-78452429D01*
X124870196Y-78476227D01*
X124873796Y-78500496D01*
X124875000Y-78525000D01*
X124875000Y-79275000D01*
X124873796Y-79299504D01*
X124870196Y-79323773D01*
X124864235Y-79347571D01*
X124855970Y-79370671D01*
X124845480Y-79392849D01*
X124832867Y-79413893D01*
X124818253Y-79433598D01*
X124801777Y-79451777D01*
X124783598Y-79468253D01*
X124763893Y-79482867D01*
X124742849Y-79495480D01*
X124720671Y-79505970D01*
X124697571Y-79514235D01*
X124673773Y-79520196D01*
X124649504Y-79523796D01*
X124625000Y-79525000D01*
X123375000Y-79525000D01*
X123350496Y-79523796D01*
X123326227Y-79520196D01*
X123302429Y-79514235D01*
X123279329Y-79505970D01*
X123257151Y-79495480D01*
X123236107Y-79482867D01*
X123216402Y-79468253D01*
X123198223Y-79451777D01*
X123181747Y-79433598D01*
X123167133Y-79413893D01*
X123154520Y-79392849D01*
X123144030Y-79370671D01*
X123135765Y-79347571D01*
X123129804Y-79323773D01*
X123126204Y-79299504D01*
X123125000Y-79275000D01*
X123125000Y-78525000D01*
X123126204Y-78500496D01*
X123129804Y-78476227D01*
X123135765Y-78452429D01*
X123144030Y-78429329D01*
X123154520Y-78407151D01*
X123167133Y-78386107D01*
X123181747Y-78366402D01*
X123198223Y-78348223D01*
X123216402Y-78331747D01*
X123236107Y-78317133D01*
X123257151Y-78304520D01*
X123279329Y-78294030D01*
X123302429Y-78285765D01*
X123326227Y-78279804D01*
X123350496Y-78276204D01*
X123375000Y-78275000D01*
X124625000Y-78275000D01*
X124649504Y-78276204D01*
G37*
G04 #@! TD.AperFunction*
G04 #@! TA.AperFunction,SMDPad,CuDef*
G36*
X124649504Y-75476204D02*
G01*
X124673773Y-75479804D01*
X124697571Y-75485765D01*
X124720671Y-75494030D01*
X124742849Y-75504520D01*
X124763893Y-75517133D01*
X124783598Y-75531747D01*
X124801777Y-75548223D01*
X124818253Y-75566402D01*
X124832867Y-75586107D01*
X124845480Y-75607151D01*
X124855970Y-75629329D01*
X124864235Y-75652429D01*
X124870196Y-75676227D01*
X124873796Y-75700496D01*
X124875000Y-75725000D01*
X124875000Y-76475000D01*
X124873796Y-76499504D01*
X124870196Y-76523773D01*
X124864235Y-76547571D01*
X124855970Y-76570671D01*
X124845480Y-76592849D01*
X124832867Y-76613893D01*
X124818253Y-76633598D01*
X124801777Y-76651777D01*
X124783598Y-76668253D01*
X124763893Y-76682867D01*
X124742849Y-76695480D01*
X124720671Y-76705970D01*
X124697571Y-76714235D01*
X124673773Y-76720196D01*
X124649504Y-76723796D01*
X124625000Y-76725000D01*
X123375000Y-76725000D01*
X123350496Y-76723796D01*
X123326227Y-76720196D01*
X123302429Y-76714235D01*
X123279329Y-76705970D01*
X123257151Y-76695480D01*
X123236107Y-76682867D01*
X123216402Y-76668253D01*
X123198223Y-76651777D01*
X123181747Y-76633598D01*
X123167133Y-76613893D01*
X123154520Y-76592849D01*
X123144030Y-76570671D01*
X123135765Y-76547571D01*
X123129804Y-76523773D01*
X123126204Y-76499504D01*
X123125000Y-76475000D01*
X123125000Y-75725000D01*
X123126204Y-75700496D01*
X123129804Y-75676227D01*
X123135765Y-75652429D01*
X123144030Y-75629329D01*
X123154520Y-75607151D01*
X123167133Y-75586107D01*
X123181747Y-75566402D01*
X123198223Y-75548223D01*
X123216402Y-75531747D01*
X123236107Y-75517133D01*
X123257151Y-75504520D01*
X123279329Y-75494030D01*
X123302429Y-75485765D01*
X123326227Y-75479804D01*
X123350496Y-75476204D01*
X123375000Y-75475000D01*
X124625000Y-75475000D01*
X124649504Y-75476204D01*
G37*
G04 #@! TD.AperFunction*
D14*
X125500000Y-71490000D03*
X125537500Y-78900000D03*
X132000000Y-65000000D03*
X134000000Y-65000000D03*
X136000000Y-65000000D03*
X132000000Y-67000000D03*
X134000000Y-67000000D03*
X136000000Y-67000000D03*
X132000000Y-69000000D03*
X134000000Y-69000000D03*
X136000000Y-69000000D03*
X132000000Y-71000000D03*
X134000000Y-71000000D03*
X136000000Y-71000000D03*
X132000000Y-73000000D03*
X134000000Y-73000000D03*
X136000000Y-73000000D03*
X132000000Y-75000000D03*
X134000000Y-75000000D03*
X136000000Y-75000000D03*
X132000000Y-77000000D03*
X134000000Y-77000000D03*
X136000000Y-77000000D03*
X132000000Y-79000000D03*
X134000000Y-79000000D03*
X136000000Y-79000000D03*
X132000000Y-81000000D03*
X134000000Y-81000000D03*
X136000000Y-81000000D03*
X132000000Y-83000000D03*
X134000000Y-83000000D03*
X136000000Y-83000000D03*
X132000000Y-85000000D03*
X134000000Y-85000000D03*
X136000000Y-85000000D03*
X132000000Y-87000000D03*
X134000000Y-87000000D03*
X136000000Y-87000000D03*
X119000000Y-79000000D03*
X121000000Y-79000000D03*
X141000000Y-75000000D03*
X119000000Y-81500000D03*
X119000000Y-84000000D03*
X119000000Y-86500000D03*
X119000000Y-66500000D03*
X127150000Y-70520000D03*
D15*
X125490000Y-71500000D02*
X125500000Y-71490000D01*
X125490000Y-71500000D02*
X125937500Y-71500000D01*
X124000000Y-71500000D02*
X125490000Y-71500000D01*
D16*
X126737500Y-78175000D02*
X126500000Y-77937500D01*
X129350000Y-78175000D02*
X126737500Y-78175000D01*
X125537500Y-78900000D02*
X126500000Y-77937500D01*
X124000000Y-78900000D02*
X125537500Y-78900000D01*
X123500000Y-72000000D02*
X124000000Y-71500000D01*
X120500000Y-72000000D02*
X123500000Y-72000000D01*
X125937500Y-71500000D02*
X126500000Y-72062500D01*
X124000000Y-71500000D02*
X125937500Y-71500000D01*
X126737500Y-71825000D02*
X126500000Y-72062500D01*
X129350000Y-71825000D02*
X126737500Y-71825000D01*
D15*
X129350000Y-73095000D02*
X129565000Y-73095000D01*
X129565000Y-73095000D02*
X129590000Y-73070000D01*
X129590000Y-73070000D02*
X131090000Y-73070000D01*
X131095000Y-76905000D02*
X129350000Y-76905000D01*
X129350000Y-75635000D02*
X129945000Y-75635000D01*
X129945000Y-75635000D02*
X129950000Y-75630000D01*
X129350000Y-74365000D02*
X130035000Y-74365000D01*
X130040000Y-74360000D02*
X131090000Y-74360000D01*
X130035000Y-74365000D02*
X130040000Y-74360000D01*
X129350000Y-74365000D02*
X128735000Y-74365000D01*
X128735000Y-74365000D02*
X128720000Y-74380000D01*
X128720000Y-74380000D02*
X127880000Y-74380000D01*
X127437500Y-73937500D02*
X126500000Y-73937500D01*
X127880000Y-74380000D02*
X127437500Y-73937500D01*
X126410000Y-74990000D02*
X126570000Y-75150000D01*
X124000000Y-74990000D02*
X126410000Y-74990000D01*
X124000000Y-74990000D02*
X124000000Y-74300000D01*
X124000000Y-76100000D02*
X124000000Y-74990000D01*
X126500000Y-76062500D02*
X126570000Y-75150000D01*
X131090000Y-76900000D02*
X131095000Y-76905000D01*
X131195000Y-75635000D02*
X131220000Y-75610000D01*
X129350000Y-75635000D02*
X131195000Y-75635000D01*
X131220000Y-75610000D02*
X131090000Y-76900000D01*
X124000000Y-76100000D02*
X123830000Y-76100000D01*
X123830000Y-76100000D02*
X121380000Y-78550000D01*
X117970000Y-77700000D02*
X116975010Y-77700000D01*
X118820000Y-78550000D02*
X117970000Y-77700000D01*
X131245000Y-75635000D02*
X131220000Y-75610000D01*
X138650000Y-75635000D02*
X131245000Y-75635000D01*
X138650000Y-74365000D02*
X131445000Y-74365000D01*
X131090000Y-73070000D02*
X131330000Y-74250000D01*
X131445000Y-74365000D02*
X131330000Y-74250000D01*
X131330000Y-74250000D02*
X131220000Y-75610000D01*
X138650000Y-76905000D02*
X129350000Y-76905000D01*
X131595000Y-73095000D02*
X131595000Y-72595000D01*
X131595000Y-73095000D02*
X129350000Y-73095000D01*
X131595000Y-72595000D02*
X131500000Y-72500000D01*
X138650000Y-73095000D02*
X131595000Y-73095000D01*
X132000000Y-72190000D02*
X131595000Y-72595000D01*
X132000000Y-72000000D02*
X132000000Y-72190000D01*
X136000000Y-65000000D02*
X136000000Y-87000000D01*
X134000000Y-65000000D02*
X134000000Y-87000000D01*
X132000000Y-65000000D02*
X132000000Y-87000000D01*
X132000000Y-87000000D02*
X136000000Y-87000000D01*
X119450000Y-78550000D02*
X119000000Y-79000000D01*
X119550000Y-78550000D02*
X118820000Y-78550000D01*
X119550000Y-78550000D02*
X119450000Y-78550000D01*
X121380000Y-78550000D02*
X119550000Y-78550000D01*
X121380000Y-78550000D02*
X121380000Y-78620000D01*
X121380000Y-78620000D02*
X121000000Y-79000000D01*
X140635000Y-75635000D02*
X140635000Y-75365000D01*
X140635000Y-75365000D02*
X141000000Y-75000000D01*
X140635000Y-75635000D02*
X141010000Y-75635000D01*
X138650000Y-75635000D02*
X140635000Y-75635000D01*
D16*
X129350000Y-74365000D02*
X127135000Y-74365000D01*
D15*
X126570000Y-75150000D02*
X126700000Y-74800000D01*
D16*
X127135000Y-74365000D02*
X126700000Y-74800000D01*
D15*
X126700000Y-74800000D02*
X126500000Y-73937500D01*
D16*
X141010000Y-75635000D02*
X141500000Y-76125000D01*
X138650000Y-75635000D02*
X141010000Y-75635000D01*
D15*
X141500000Y-78000000D02*
X144024990Y-78000000D01*
D16*
X141325000Y-78175000D02*
X141500000Y-78000000D01*
X138650000Y-78175000D02*
X141325000Y-78175000D01*
X141500000Y-78000000D02*
X143974990Y-78000000D01*
D15*
X117920000Y-75160000D02*
X116975010Y-75160000D01*
D16*
X118900000Y-76000000D02*
X118200000Y-75300000D01*
X120500000Y-76000000D02*
X118900000Y-76000000D01*
D15*
X118200000Y-75300000D02*
X117920000Y-75160000D01*
D16*
X118200000Y-75300000D02*
X117025010Y-75300000D01*
D15*
X129350000Y-66745000D02*
X128945000Y-66745000D01*
X128945000Y-66745000D02*
X128940000Y-66750000D01*
D16*
X128940000Y-66750000D02*
X127170000Y-66750000D01*
D15*
X125420000Y-65000000D02*
X116975010Y-65000000D01*
D16*
X127170000Y-66750000D02*
X125420000Y-65000000D01*
X125420000Y-65000000D02*
X117025010Y-65000000D01*
X124915000Y-68015000D02*
X124500000Y-67600000D01*
X129350000Y-68015000D02*
X124915000Y-68015000D01*
X117300000Y-67600000D02*
X117400000Y-67500000D01*
X124500000Y-67600000D02*
X117300000Y-67600000D01*
D15*
X117400000Y-67500000D02*
X116975010Y-67540000D01*
X129350000Y-69285000D02*
X129065000Y-69285000D01*
X129065000Y-69285000D02*
X129040000Y-69310000D01*
X117270000Y-69310000D02*
X116975010Y-69604990D01*
X129040000Y-69310000D02*
X117270000Y-69310000D01*
D16*
X117295000Y-69285000D02*
X117025010Y-69554990D01*
X129350000Y-69285000D02*
X117295000Y-69285000D01*
X127185000Y-70555000D02*
X127150000Y-70520000D01*
X129350000Y-70555000D02*
X127185000Y-70555000D01*
D15*
X126230000Y-80240000D02*
X116975010Y-80240000D01*
D16*
X127025000Y-79445000D02*
X126230000Y-80240000D01*
X129350000Y-79445000D02*
X127025000Y-79445000D01*
X126230000Y-80240000D02*
X117025010Y-80240000D01*
X127215000Y-80715000D02*
X127200000Y-80700000D01*
X129350000Y-80715000D02*
X127215000Y-80715000D01*
X124801384Y-82800000D02*
X118300000Y-82800000D01*
X126886384Y-80715000D02*
X124801384Y-82800000D01*
X127215000Y-80715000D02*
X126886384Y-80715000D01*
D15*
X116975010Y-82780000D02*
X118300000Y-82800000D01*
D16*
X118600843Y-82799157D02*
X117025010Y-82799157D01*
D15*
X118300000Y-82800000D02*
X118600843Y-82799157D01*
D16*
X126815000Y-81985000D02*
X123500000Y-85300000D01*
X129350000Y-81985000D02*
X126815000Y-81985000D01*
D15*
X116975010Y-85320000D02*
X123500000Y-85300000D01*
D16*
X123500000Y-85300000D02*
X117025010Y-85300000D01*
X129350000Y-83255000D02*
X127245000Y-83255000D01*
X129350000Y-83255000D02*
X127045000Y-83255000D01*
X127045000Y-83255000D02*
X122500000Y-87800000D01*
D15*
X122500000Y-87800000D02*
X116975010Y-87860000D01*
D16*
X122500000Y-87800000D02*
X117025010Y-87800000D01*
X139755000Y-83255000D02*
X143800000Y-87300000D01*
X138650000Y-83255000D02*
X139755000Y-83255000D01*
D15*
X143800000Y-87300000D02*
X144024990Y-87534990D01*
D16*
X143940000Y-87300000D02*
X143974990Y-87334990D01*
X143800000Y-87300000D02*
X143940000Y-87300000D01*
D15*
X140005000Y-81985000D02*
X138650000Y-81985000D01*
D16*
X140485000Y-81985000D02*
X143600000Y-85100000D01*
X138650000Y-81985000D02*
X140485000Y-81985000D01*
D15*
X143600000Y-85100000D02*
X143980000Y-85320000D01*
D16*
X143600000Y-85100000D02*
X143974990Y-85100000D01*
X141315000Y-80715000D02*
X142500000Y-81900000D01*
X138650000Y-80715000D02*
X141315000Y-80715000D01*
X142500000Y-81900000D02*
X143300000Y-82700000D01*
X143300000Y-82700000D02*
X143974990Y-82700000D01*
X141845000Y-79445000D02*
X142700000Y-80300000D01*
X138650000Y-79445000D02*
X141845000Y-79445000D01*
D15*
X142700000Y-80300000D02*
X144024990Y-80240000D01*
D16*
X142700000Y-80300000D02*
X143974990Y-80300000D01*
D15*
X143300000Y-75160000D02*
X144024990Y-75160000D01*
D16*
X139925000Y-71825000D02*
X143200000Y-75100000D01*
X138650000Y-71825000D02*
X139925000Y-71825000D01*
D15*
X143200000Y-75100000D02*
X143300000Y-75160000D01*
D16*
X143200000Y-75100000D02*
X143974990Y-75100000D01*
X140755000Y-70555000D02*
X142800000Y-72600000D01*
X138650000Y-70555000D02*
X140755000Y-70555000D01*
X142800000Y-72600000D02*
X143974990Y-72600000D01*
X141585000Y-69285000D02*
X142300000Y-70000000D01*
X138650000Y-69285000D02*
X141585000Y-69285000D01*
X142300000Y-70000000D02*
X143500000Y-70000000D01*
D15*
X143500000Y-70000000D02*
X144024990Y-70080000D01*
X138650000Y-68015000D02*
X144024990Y-68015000D01*
D16*
X138650000Y-68015000D02*
X143974990Y-68015000D01*
D15*
X143340000Y-65000000D02*
X144024990Y-65000000D01*
D16*
X141655000Y-66745000D02*
X143500000Y-64900000D01*
X138650000Y-66745000D02*
X141655000Y-66745000D01*
D15*
X143500000Y-64900000D02*
X143340000Y-65000000D01*
D16*
X143500000Y-64900000D02*
X143974990Y-64900000D01*
D17*
G36*
X143198815Y-63698815D02*
G01*
X143119463Y-63795506D01*
X143060498Y-63905820D01*
X143024188Y-64025518D01*
X143017054Y-64097954D01*
X142978028Y-64118814D01*
X142835656Y-64235656D01*
X142806374Y-64271336D01*
X141267711Y-65810000D01*
X139556190Y-65810000D01*
X139525000Y-65806928D01*
X137775000Y-65806928D01*
X137621255Y-65822071D01*
X137473418Y-65866916D01*
X137337171Y-65939742D01*
X137217749Y-66037749D01*
X137119742Y-66157171D01*
X137046916Y-66293418D01*
X137002071Y-66441255D01*
X136986928Y-66595000D01*
X136986928Y-66895000D01*
X137002071Y-67048745D01*
X137046916Y-67196582D01*
X137119742Y-67332829D01*
X137158454Y-67380000D01*
X137119742Y-67427171D01*
X137046916Y-67563418D01*
X137002071Y-67711255D01*
X136986928Y-67865000D01*
X136986928Y-68165000D01*
X137002071Y-68318745D01*
X137046916Y-68466582D01*
X137119742Y-68602829D01*
X137158454Y-68650000D01*
X137119742Y-68697171D01*
X137046916Y-68833418D01*
X137002071Y-68981255D01*
X136986928Y-69135000D01*
X136986928Y-69435000D01*
X137002071Y-69588745D01*
X137046916Y-69736582D01*
X137119742Y-69872829D01*
X137158454Y-69920000D01*
X137119742Y-69967171D01*
X137046916Y-70103418D01*
X137002071Y-70251255D01*
X136986928Y-70405000D01*
X136986928Y-70705000D01*
X137002071Y-70858745D01*
X137046916Y-71006582D01*
X137119742Y-71142829D01*
X137158454Y-71190000D01*
X137119742Y-71237171D01*
X137046916Y-71373418D01*
X137002071Y-71521255D01*
X136986928Y-71675000D01*
X136986928Y-71975000D01*
X137002071Y-72128745D01*
X137046916Y-72276582D01*
X137118730Y-72410936D01*
X137094463Y-72440506D01*
X137035498Y-72550820D01*
X136999188Y-72670518D01*
X136986928Y-72795000D01*
X136990000Y-72809250D01*
X137148750Y-72968000D01*
X138523000Y-72968000D01*
X138523000Y-72948000D01*
X138777000Y-72948000D01*
X138777000Y-72968000D01*
X138797000Y-72968000D01*
X138797000Y-73222000D01*
X138777000Y-73222000D01*
X138777000Y-74238000D01*
X140151250Y-74238000D01*
X140310000Y-74079250D01*
X140313072Y-74065000D01*
X140300812Y-73940518D01*
X140264502Y-73820820D01*
X140215957Y-73730000D01*
X140264502Y-73639180D01*
X140299970Y-73522259D01*
X141782980Y-75005270D01*
X141627000Y-75161250D01*
X141627000Y-75998000D01*
X142676250Y-75998000D01*
X142752994Y-75921256D01*
X142840460Y-75968007D01*
X142963243Y-76005253D01*
X143016707Y-76021471D01*
X143148689Y-76034470D01*
X143169112Y-76039596D01*
X143234653Y-76042846D01*
X143256523Y-76045000D01*
X143278091Y-76045000D01*
X143306278Y-76046398D01*
X143346525Y-76106632D01*
X143553368Y-76313475D01*
X143727760Y-76430000D01*
X143553368Y-76546525D01*
X143346525Y-76753368D01*
X143184010Y-76996589D01*
X143155673Y-77065000D01*
X142649583Y-77065000D01*
X142651185Y-77063685D01*
X142730537Y-76966994D01*
X142789502Y-76856680D01*
X142825812Y-76736982D01*
X142838072Y-76612500D01*
X142835000Y-76410750D01*
X142676250Y-76252000D01*
X141627000Y-76252000D01*
X141627000Y-76272000D01*
X141373000Y-76272000D01*
X141373000Y-76252000D01*
X141353000Y-76252000D01*
X141353000Y-75998000D01*
X141373000Y-75998000D01*
X141373000Y-75161250D01*
X141214250Y-75002500D01*
X140800000Y-74999428D01*
X140675518Y-75011688D01*
X140555820Y-75047998D01*
X140445506Y-75106963D01*
X140348815Y-75186315D01*
X140303827Y-75241133D01*
X140300812Y-75210518D01*
X140264502Y-75090820D01*
X140215957Y-75000000D01*
X140264502Y-74909180D01*
X140300812Y-74789482D01*
X140313072Y-74665000D01*
X140310000Y-74650750D01*
X140151250Y-74492000D01*
X138777000Y-74492000D01*
X138777000Y-75508000D01*
X138797000Y-75508000D01*
X138797000Y-75762000D01*
X138777000Y-75762000D01*
X138777000Y-76778000D01*
X138797000Y-76778000D01*
X138797000Y-77032000D01*
X138777000Y-77032000D01*
X138777000Y-77052000D01*
X138523000Y-77052000D01*
X138523000Y-77032000D01*
X137148750Y-77032000D01*
X136990000Y-77190750D01*
X136986928Y-77205000D01*
X136999188Y-77329482D01*
X137035498Y-77449180D01*
X137094463Y-77559494D01*
X137118730Y-77589064D01*
X137046916Y-77723418D01*
X137002071Y-77871255D01*
X136986928Y-78025000D01*
X136986928Y-78325000D01*
X137002071Y-78478745D01*
X137046916Y-78626582D01*
X137119742Y-78762829D01*
X137158454Y-78810000D01*
X137119742Y-78857171D01*
X137046916Y-78993418D01*
X137002071Y-79141255D01*
X136986928Y-79295000D01*
X136986928Y-79595000D01*
X137002071Y-79748745D01*
X137046916Y-79896582D01*
X137119742Y-80032829D01*
X137158454Y-80080000D01*
X137119742Y-80127171D01*
X137046916Y-80263418D01*
X137002071Y-80411255D01*
X136986928Y-80565000D01*
X136986928Y-80865000D01*
X137002071Y-81018745D01*
X137046916Y-81166582D01*
X137119742Y-81302829D01*
X137158454Y-81350000D01*
X137119742Y-81397171D01*
X137046916Y-81533418D01*
X137002071Y-81681255D01*
X136986928Y-81835000D01*
X136986928Y-82135000D01*
X137002071Y-82288745D01*
X137046916Y-82436582D01*
X137119742Y-82572829D01*
X137158454Y-82620000D01*
X137119742Y-82667171D01*
X137046916Y-82803418D01*
X137002071Y-82951255D01*
X136986928Y-83105000D01*
X136986928Y-83405000D01*
X137002071Y-83558745D01*
X137046916Y-83706582D01*
X137119742Y-83842829D01*
X137217749Y-83962251D01*
X137337171Y-84060258D01*
X137473418Y-84133084D01*
X137621255Y-84177929D01*
X137775000Y-84193072D01*
X139370783Y-84193072D01*
X143015000Y-87837289D01*
X143015000Y-88006260D01*
X143072068Y-88293158D01*
X143184010Y-88563411D01*
X143346525Y-88806632D01*
X143553368Y-89013475D01*
X143796589Y-89175990D01*
X143840001Y-89193972D01*
X143840001Y-89340000D01*
X117160000Y-89340000D01*
X117160000Y-89193971D01*
X117203411Y-89175990D01*
X117446632Y-89013475D01*
X117653475Y-88806632D01*
X117699882Y-88737179D01*
X117900564Y-88735000D01*
X122454068Y-88735000D01*
X122500000Y-88739524D01*
X122545932Y-88735000D01*
X122683292Y-88721471D01*
X122859540Y-88668007D01*
X123021972Y-88581186D01*
X123164344Y-88464344D01*
X123193630Y-88428659D01*
X127432289Y-84190000D01*
X128443810Y-84190000D01*
X128475000Y-84193072D01*
X130225000Y-84193072D01*
X130378745Y-84177929D01*
X130526582Y-84133084D01*
X130662829Y-84060258D01*
X130782251Y-83962251D01*
X130880258Y-83842829D01*
X130953084Y-83706582D01*
X130997929Y-83558745D01*
X131013072Y-83405000D01*
X131013072Y-83105000D01*
X130997929Y-82951255D01*
X130953084Y-82803418D01*
X130880258Y-82667171D01*
X130841546Y-82620000D01*
X130880258Y-82572829D01*
X130953084Y-82436582D01*
X130997929Y-82288745D01*
X131013072Y-82135000D01*
X131013072Y-81835000D01*
X130997929Y-81681255D01*
X130953084Y-81533418D01*
X130880258Y-81397171D01*
X130841546Y-81350000D01*
X130880258Y-81302829D01*
X130953084Y-81166582D01*
X130997929Y-81018745D01*
X131013072Y-80865000D01*
X131013072Y-80565000D01*
X130997929Y-80411255D01*
X130953084Y-80263418D01*
X130880258Y-80127171D01*
X130841546Y-80080000D01*
X130880258Y-80032829D01*
X130953084Y-79896582D01*
X130997929Y-79748745D01*
X131013072Y-79595000D01*
X131013072Y-79295000D01*
X130997929Y-79141255D01*
X130953084Y-78993418D01*
X130880258Y-78857171D01*
X130841546Y-78810000D01*
X130880258Y-78762829D01*
X130953084Y-78626582D01*
X130997929Y-78478745D01*
X131013072Y-78325000D01*
X131013072Y-78025000D01*
X130997929Y-77871255D01*
X130953084Y-77723418D01*
X130881270Y-77589064D01*
X130905537Y-77559494D01*
X130964502Y-77449180D01*
X131000812Y-77329482D01*
X131013072Y-77205000D01*
X131010000Y-77190750D01*
X130851250Y-77032000D01*
X129477000Y-77032000D01*
X129477000Y-77052000D01*
X129223000Y-77052000D01*
X129223000Y-77032000D01*
X129203000Y-77032000D01*
X129203000Y-76778000D01*
X129223000Y-76778000D01*
X129223000Y-75762000D01*
X129477000Y-75762000D01*
X129477000Y-76778000D01*
X130851250Y-76778000D01*
X131010000Y-76619250D01*
X131013072Y-76605000D01*
X131000812Y-76480518D01*
X130964502Y-76360820D01*
X130915957Y-76270000D01*
X130964502Y-76179180D01*
X131000812Y-76059482D01*
X131013072Y-75935000D01*
X136986928Y-75935000D01*
X136999188Y-76059482D01*
X137035498Y-76179180D01*
X137084043Y-76270000D01*
X137035498Y-76360820D01*
X136999188Y-76480518D01*
X136986928Y-76605000D01*
X136990000Y-76619250D01*
X137148750Y-76778000D01*
X138523000Y-76778000D01*
X138523000Y-75762000D01*
X137148750Y-75762000D01*
X136990000Y-75920750D01*
X136986928Y-75935000D01*
X131013072Y-75935000D01*
X131010000Y-75920750D01*
X130851250Y-75762000D01*
X129477000Y-75762000D01*
X129223000Y-75762000D01*
X129203000Y-75762000D01*
X129203000Y-75508000D01*
X129223000Y-75508000D01*
X129223000Y-74492000D01*
X129477000Y-74492000D01*
X129477000Y-75508000D01*
X130851250Y-75508000D01*
X131010000Y-75349250D01*
X131013072Y-75335000D01*
X131000812Y-75210518D01*
X130964502Y-75090820D01*
X130915957Y-75000000D01*
X130964502Y-74909180D01*
X131000812Y-74789482D01*
X131013072Y-74665000D01*
X136986928Y-74665000D01*
X136999188Y-74789482D01*
X137035498Y-74909180D01*
X137084043Y-75000000D01*
X137035498Y-75090820D01*
X136999188Y-75210518D01*
X136986928Y-75335000D01*
X136990000Y-75349250D01*
X137148750Y-75508000D01*
X138523000Y-75508000D01*
X138523000Y-74492000D01*
X137148750Y-74492000D01*
X136990000Y-74650750D01*
X136986928Y-74665000D01*
X131013072Y-74665000D01*
X131010000Y-74650750D01*
X130851250Y-74492000D01*
X129477000Y-74492000D01*
X129223000Y-74492000D01*
X129203000Y-74492000D01*
X129203000Y-74238000D01*
X129223000Y-74238000D01*
X129223000Y-73222000D01*
X129477000Y-73222000D01*
X129477000Y-74238000D01*
X130851250Y-74238000D01*
X131010000Y-74079250D01*
X131013072Y-74065000D01*
X131000812Y-73940518D01*
X130964502Y-73820820D01*
X130915957Y-73730000D01*
X130964502Y-73639180D01*
X131000812Y-73519482D01*
X131013072Y-73395000D01*
X136986928Y-73395000D01*
X136999188Y-73519482D01*
X137035498Y-73639180D01*
X137084043Y-73730000D01*
X137035498Y-73820820D01*
X136999188Y-73940518D01*
X136986928Y-74065000D01*
X136990000Y-74079250D01*
X137148750Y-74238000D01*
X138523000Y-74238000D01*
X138523000Y-73222000D01*
X137148750Y-73222000D01*
X136990000Y-73380750D01*
X136986928Y-73395000D01*
X131013072Y-73395000D01*
X131010000Y-73380750D01*
X130851250Y-73222000D01*
X129477000Y-73222000D01*
X129223000Y-73222000D01*
X129203000Y-73222000D01*
X129203000Y-72968000D01*
X129223000Y-72968000D01*
X129223000Y-72948000D01*
X129477000Y-72948000D01*
X129477000Y-72968000D01*
X130851250Y-72968000D01*
X131010000Y-72809250D01*
X131013072Y-72795000D01*
X131000812Y-72670518D01*
X130964502Y-72550820D01*
X130905537Y-72440506D01*
X130881270Y-72410936D01*
X130953084Y-72276582D01*
X130997929Y-72128745D01*
X131013072Y-71975000D01*
X131013072Y-71675000D01*
X130997929Y-71521255D01*
X130953084Y-71373418D01*
X130880258Y-71237171D01*
X130841546Y-71190000D01*
X130880258Y-71142829D01*
X130953084Y-71006582D01*
X130997929Y-70858745D01*
X131013072Y-70705000D01*
X131013072Y-70405000D01*
X130997929Y-70251255D01*
X130953084Y-70103418D01*
X130880258Y-69967171D01*
X130841546Y-69920000D01*
X130880258Y-69872829D01*
X130953084Y-69736582D01*
X130997929Y-69588745D01*
X131013072Y-69435000D01*
X131013072Y-69135000D01*
X130997929Y-68981255D01*
X130953084Y-68833418D01*
X130880258Y-68697171D01*
X130841546Y-68650000D01*
X130880258Y-68602829D01*
X130953084Y-68466582D01*
X130997929Y-68318745D01*
X131013072Y-68165000D01*
X131013072Y-67865000D01*
X130997929Y-67711255D01*
X130953084Y-67563418D01*
X130880258Y-67427171D01*
X130841546Y-67380000D01*
X130880258Y-67332829D01*
X130953084Y-67196582D01*
X130997929Y-67048745D01*
X131013072Y-66895000D01*
X131013072Y-66595000D01*
X130997929Y-66441255D01*
X130953084Y-66293418D01*
X130880258Y-66157171D01*
X130782251Y-66037749D01*
X130662829Y-65939742D01*
X130526582Y-65866916D01*
X130378745Y-65822071D01*
X130225000Y-65806928D01*
X128475000Y-65806928D01*
X128393046Y-65815000D01*
X127557289Y-65815000D01*
X126113630Y-64371341D01*
X126084344Y-64335656D01*
X125941972Y-64218814D01*
X125779540Y-64131993D01*
X125603292Y-64078529D01*
X125465932Y-64065000D01*
X125420000Y-64060476D01*
X125374068Y-64065000D01*
X117979701Y-64065000D01*
X117975812Y-64025518D01*
X117939502Y-63905820D01*
X117880537Y-63795506D01*
X117801185Y-63698815D01*
X117753889Y-63660000D01*
X143246111Y-63660000D01*
X143198815Y-63698815D01*
G37*
X143198815Y-63698815D02*
X143119463Y-63795506D01*
X143060498Y-63905820D01*
X143024188Y-64025518D01*
X143017054Y-64097954D01*
X142978028Y-64118814D01*
X142835656Y-64235656D01*
X142806374Y-64271336D01*
X141267711Y-65810000D01*
X139556190Y-65810000D01*
X139525000Y-65806928D01*
X137775000Y-65806928D01*
X137621255Y-65822071D01*
X137473418Y-65866916D01*
X137337171Y-65939742D01*
X137217749Y-66037749D01*
X137119742Y-66157171D01*
X137046916Y-66293418D01*
X137002071Y-66441255D01*
X136986928Y-66595000D01*
X136986928Y-66895000D01*
X137002071Y-67048745D01*
X137046916Y-67196582D01*
X137119742Y-67332829D01*
X137158454Y-67380000D01*
X137119742Y-67427171D01*
X137046916Y-67563418D01*
X137002071Y-67711255D01*
X136986928Y-67865000D01*
X136986928Y-68165000D01*
X137002071Y-68318745D01*
X137046916Y-68466582D01*
X137119742Y-68602829D01*
X137158454Y-68650000D01*
X137119742Y-68697171D01*
X137046916Y-68833418D01*
X137002071Y-68981255D01*
X136986928Y-69135000D01*
X136986928Y-69435000D01*
X137002071Y-69588745D01*
X137046916Y-69736582D01*
X137119742Y-69872829D01*
X137158454Y-69920000D01*
X137119742Y-69967171D01*
X137046916Y-70103418D01*
X137002071Y-70251255D01*
X136986928Y-70405000D01*
X136986928Y-70705000D01*
X137002071Y-70858745D01*
X137046916Y-71006582D01*
X137119742Y-71142829D01*
X137158454Y-71190000D01*
X137119742Y-71237171D01*
X137046916Y-71373418D01*
X137002071Y-71521255D01*
X136986928Y-71675000D01*
X136986928Y-71975000D01*
X137002071Y-72128745D01*
X137046916Y-72276582D01*
X137118730Y-72410936D01*
X137094463Y-72440506D01*
X137035498Y-72550820D01*
X136999188Y-72670518D01*
X136986928Y-72795000D01*
X136990000Y-72809250D01*
X137148750Y-72968000D01*
X138523000Y-72968000D01*
X138523000Y-72948000D01*
X138777000Y-72948000D01*
X138777000Y-72968000D01*
X138797000Y-72968000D01*
X138797000Y-73222000D01*
X138777000Y-73222000D01*
X138777000Y-74238000D01*
X140151250Y-74238000D01*
X140310000Y-74079250D01*
X140313072Y-74065000D01*
X140300812Y-73940518D01*
X140264502Y-73820820D01*
X140215957Y-73730000D01*
X140264502Y-73639180D01*
X140299970Y-73522259D01*
X141782980Y-75005270D01*
X141627000Y-75161250D01*
X141627000Y-75998000D01*
X142676250Y-75998000D01*
X142752994Y-75921256D01*
X142840460Y-75968007D01*
X142963243Y-76005253D01*
X143016707Y-76021471D01*
X143148689Y-76034470D01*
X143169112Y-76039596D01*
X143234653Y-76042846D01*
X143256523Y-76045000D01*
X143278091Y-76045000D01*
X143306278Y-76046398D01*
X143346525Y-76106632D01*
X143553368Y-76313475D01*
X143727760Y-76430000D01*
X143553368Y-76546525D01*
X143346525Y-76753368D01*
X143184010Y-76996589D01*
X143155673Y-77065000D01*
X142649583Y-77065000D01*
X142651185Y-77063685D01*
X142730537Y-76966994D01*
X142789502Y-76856680D01*
X142825812Y-76736982D01*
X142838072Y-76612500D01*
X142835000Y-76410750D01*
X142676250Y-76252000D01*
X141627000Y-76252000D01*
X141627000Y-76272000D01*
X141373000Y-76272000D01*
X141373000Y-76252000D01*
X141353000Y-76252000D01*
X141353000Y-75998000D01*
X141373000Y-75998000D01*
X141373000Y-75161250D01*
X141214250Y-75002500D01*
X140800000Y-74999428D01*
X140675518Y-75011688D01*
X140555820Y-75047998D01*
X140445506Y-75106963D01*
X140348815Y-75186315D01*
X140303827Y-75241133D01*
X140300812Y-75210518D01*
X140264502Y-75090820D01*
X140215957Y-75000000D01*
X140264502Y-74909180D01*
X140300812Y-74789482D01*
X140313072Y-74665000D01*
X140310000Y-74650750D01*
X140151250Y-74492000D01*
X138777000Y-74492000D01*
X138777000Y-75508000D01*
X138797000Y-75508000D01*
X138797000Y-75762000D01*
X138777000Y-75762000D01*
X138777000Y-76778000D01*
X138797000Y-76778000D01*
X138797000Y-77032000D01*
X138777000Y-77032000D01*
X138777000Y-77052000D01*
X138523000Y-77052000D01*
X138523000Y-77032000D01*
X137148750Y-77032000D01*
X136990000Y-77190750D01*
X136986928Y-77205000D01*
X136999188Y-77329482D01*
X137035498Y-77449180D01*
X137094463Y-77559494D01*
X137118730Y-77589064D01*
X137046916Y-77723418D01*
X137002071Y-77871255D01*
X136986928Y-78025000D01*
X136986928Y-78325000D01*
X137002071Y-78478745D01*
X137046916Y-78626582D01*
X137119742Y-78762829D01*
X137158454Y-78810000D01*
X137119742Y-78857171D01*
X137046916Y-78993418D01*
X137002071Y-79141255D01*
X136986928Y-79295000D01*
X136986928Y-79595000D01*
X137002071Y-79748745D01*
X137046916Y-79896582D01*
X137119742Y-80032829D01*
X137158454Y-80080000D01*
X137119742Y-80127171D01*
X137046916Y-80263418D01*
X137002071Y-80411255D01*
X136986928Y-80565000D01*
X136986928Y-80865000D01*
X137002071Y-81018745D01*
X137046916Y-81166582D01*
X137119742Y-81302829D01*
X137158454Y-81350000D01*
X137119742Y-81397171D01*
X137046916Y-81533418D01*
X137002071Y-81681255D01*
X136986928Y-81835000D01*
X136986928Y-82135000D01*
X137002071Y-82288745D01*
X137046916Y-82436582D01*
X137119742Y-82572829D01*
X137158454Y-82620000D01*
X137119742Y-82667171D01*
X137046916Y-82803418D01*
X137002071Y-82951255D01*
X136986928Y-83105000D01*
X136986928Y-83405000D01*
X137002071Y-83558745D01*
X137046916Y-83706582D01*
X137119742Y-83842829D01*
X137217749Y-83962251D01*
X137337171Y-84060258D01*
X137473418Y-84133084D01*
X137621255Y-84177929D01*
X137775000Y-84193072D01*
X139370783Y-84193072D01*
X143015000Y-87837289D01*
X143015000Y-88006260D01*
X143072068Y-88293158D01*
X143184010Y-88563411D01*
X143346525Y-88806632D01*
X143553368Y-89013475D01*
X143796589Y-89175990D01*
X143840001Y-89193972D01*
X143840001Y-89340000D01*
X117160000Y-89340000D01*
X117160000Y-89193971D01*
X117203411Y-89175990D01*
X117446632Y-89013475D01*
X117653475Y-88806632D01*
X117699882Y-88737179D01*
X117900564Y-88735000D01*
X122454068Y-88735000D01*
X122500000Y-88739524D01*
X122545932Y-88735000D01*
X122683292Y-88721471D01*
X122859540Y-88668007D01*
X123021972Y-88581186D01*
X123164344Y-88464344D01*
X123193630Y-88428659D01*
X127432289Y-84190000D01*
X128443810Y-84190000D01*
X128475000Y-84193072D01*
X130225000Y-84193072D01*
X130378745Y-84177929D01*
X130526582Y-84133084D01*
X130662829Y-84060258D01*
X130782251Y-83962251D01*
X130880258Y-83842829D01*
X130953084Y-83706582D01*
X130997929Y-83558745D01*
X131013072Y-83405000D01*
X131013072Y-83105000D01*
X130997929Y-82951255D01*
X130953084Y-82803418D01*
X130880258Y-82667171D01*
X130841546Y-82620000D01*
X130880258Y-82572829D01*
X130953084Y-82436582D01*
X130997929Y-82288745D01*
X131013072Y-82135000D01*
X131013072Y-81835000D01*
X130997929Y-81681255D01*
X130953084Y-81533418D01*
X130880258Y-81397171D01*
X130841546Y-81350000D01*
X130880258Y-81302829D01*
X130953084Y-81166582D01*
X130997929Y-81018745D01*
X131013072Y-80865000D01*
X131013072Y-80565000D01*
X130997929Y-80411255D01*
X130953084Y-80263418D01*
X130880258Y-80127171D01*
X130841546Y-80080000D01*
X130880258Y-80032829D01*
X130953084Y-79896582D01*
X130997929Y-79748745D01*
X131013072Y-79595000D01*
X131013072Y-79295000D01*
X130997929Y-79141255D01*
X130953084Y-78993418D01*
X130880258Y-78857171D01*
X130841546Y-78810000D01*
X130880258Y-78762829D01*
X130953084Y-78626582D01*
X130997929Y-78478745D01*
X131013072Y-78325000D01*
X131013072Y-78025000D01*
X130997929Y-77871255D01*
X130953084Y-77723418D01*
X130881270Y-77589064D01*
X130905537Y-77559494D01*
X130964502Y-77449180D01*
X131000812Y-77329482D01*
X131013072Y-77205000D01*
X131010000Y-77190750D01*
X130851250Y-77032000D01*
X129477000Y-77032000D01*
X129477000Y-77052000D01*
X129223000Y-77052000D01*
X129223000Y-77032000D01*
X129203000Y-77032000D01*
X129203000Y-76778000D01*
X129223000Y-76778000D01*
X129223000Y-75762000D01*
X129477000Y-75762000D01*
X129477000Y-76778000D01*
X130851250Y-76778000D01*
X131010000Y-76619250D01*
X131013072Y-76605000D01*
X131000812Y-76480518D01*
X130964502Y-76360820D01*
X130915957Y-76270000D01*
X130964502Y-76179180D01*
X131000812Y-76059482D01*
X131013072Y-75935000D01*
X136986928Y-75935000D01*
X136999188Y-76059482D01*
X137035498Y-76179180D01*
X137084043Y-76270000D01*
X137035498Y-76360820D01*
X136999188Y-76480518D01*
X136986928Y-76605000D01*
X136990000Y-76619250D01*
X137148750Y-76778000D01*
X138523000Y-76778000D01*
X138523000Y-75762000D01*
X137148750Y-75762000D01*
X136990000Y-75920750D01*
X136986928Y-75935000D01*
X131013072Y-75935000D01*
X131010000Y-75920750D01*
X130851250Y-75762000D01*
X129477000Y-75762000D01*
X129223000Y-75762000D01*
X129203000Y-75762000D01*
X129203000Y-75508000D01*
X129223000Y-75508000D01*
X129223000Y-74492000D01*
X129477000Y-74492000D01*
X129477000Y-75508000D01*
X130851250Y-75508000D01*
X131010000Y-75349250D01*
X131013072Y-75335000D01*
X131000812Y-75210518D01*
X130964502Y-75090820D01*
X130915957Y-75000000D01*
X130964502Y-74909180D01*
X131000812Y-74789482D01*
X131013072Y-74665000D01*
X136986928Y-74665000D01*
X136999188Y-74789482D01*
X137035498Y-74909180D01*
X137084043Y-75000000D01*
X137035498Y-75090820D01*
X136999188Y-75210518D01*
X136986928Y-75335000D01*
X136990000Y-75349250D01*
X137148750Y-75508000D01*
X138523000Y-75508000D01*
X138523000Y-74492000D01*
X137148750Y-74492000D01*
X136990000Y-74650750D01*
X136986928Y-74665000D01*
X131013072Y-74665000D01*
X131010000Y-74650750D01*
X130851250Y-74492000D01*
X129477000Y-74492000D01*
X129223000Y-74492000D01*
X129203000Y-74492000D01*
X129203000Y-74238000D01*
X129223000Y-74238000D01*
X129223000Y-73222000D01*
X129477000Y-73222000D01*
X129477000Y-74238000D01*
X130851250Y-74238000D01*
X131010000Y-74079250D01*
X131013072Y-74065000D01*
X131000812Y-73940518D01*
X130964502Y-73820820D01*
X130915957Y-73730000D01*
X130964502Y-73639180D01*
X131000812Y-73519482D01*
X131013072Y-73395000D01*
X136986928Y-73395000D01*
X136999188Y-73519482D01*
X137035498Y-73639180D01*
X137084043Y-73730000D01*
X137035498Y-73820820D01*
X136999188Y-73940518D01*
X136986928Y-74065000D01*
X136990000Y-74079250D01*
X137148750Y-74238000D01*
X138523000Y-74238000D01*
X138523000Y-73222000D01*
X137148750Y-73222000D01*
X136990000Y-73380750D01*
X136986928Y-73395000D01*
X131013072Y-73395000D01*
X131010000Y-73380750D01*
X130851250Y-73222000D01*
X129477000Y-73222000D01*
X129223000Y-73222000D01*
X129203000Y-73222000D01*
X129203000Y-72968000D01*
X129223000Y-72968000D01*
X129223000Y-72948000D01*
X129477000Y-72948000D01*
X129477000Y-72968000D01*
X130851250Y-72968000D01*
X131010000Y-72809250D01*
X131013072Y-72795000D01*
X131000812Y-72670518D01*
X130964502Y-72550820D01*
X130905537Y-72440506D01*
X130881270Y-72410936D01*
X130953084Y-72276582D01*
X130997929Y-72128745D01*
X131013072Y-71975000D01*
X131013072Y-71675000D01*
X130997929Y-71521255D01*
X130953084Y-71373418D01*
X130880258Y-71237171D01*
X130841546Y-71190000D01*
X130880258Y-71142829D01*
X130953084Y-71006582D01*
X130997929Y-70858745D01*
X131013072Y-70705000D01*
X131013072Y-70405000D01*
X130997929Y-70251255D01*
X130953084Y-70103418D01*
X130880258Y-69967171D01*
X130841546Y-69920000D01*
X130880258Y-69872829D01*
X130953084Y-69736582D01*
X130997929Y-69588745D01*
X131013072Y-69435000D01*
X131013072Y-69135000D01*
X130997929Y-68981255D01*
X130953084Y-68833418D01*
X130880258Y-68697171D01*
X130841546Y-68650000D01*
X130880258Y-68602829D01*
X130953084Y-68466582D01*
X130997929Y-68318745D01*
X131013072Y-68165000D01*
X131013072Y-67865000D01*
X130997929Y-67711255D01*
X130953084Y-67563418D01*
X130880258Y-67427171D01*
X130841546Y-67380000D01*
X130880258Y-67332829D01*
X130953084Y-67196582D01*
X130997929Y-67048745D01*
X131013072Y-66895000D01*
X131013072Y-66595000D01*
X130997929Y-66441255D01*
X130953084Y-66293418D01*
X130880258Y-66157171D01*
X130782251Y-66037749D01*
X130662829Y-65939742D01*
X130526582Y-65866916D01*
X130378745Y-65822071D01*
X130225000Y-65806928D01*
X128475000Y-65806928D01*
X128393046Y-65815000D01*
X127557289Y-65815000D01*
X126113630Y-64371341D01*
X126084344Y-64335656D01*
X125941972Y-64218814D01*
X125779540Y-64131993D01*
X125603292Y-64078529D01*
X125465932Y-64065000D01*
X125420000Y-64060476D01*
X125374068Y-64065000D01*
X117979701Y-64065000D01*
X117975812Y-64025518D01*
X117939502Y-63905820D01*
X117880537Y-63795506D01*
X117801185Y-63698815D01*
X117753889Y-63660000D01*
X143246111Y-63660000D01*
X143198815Y-63698815D01*
G36*
X122112711Y-86865000D02*
G01*
X117605107Y-86865000D01*
X117446632Y-86706525D01*
X117272240Y-86590000D01*
X117446632Y-86473475D01*
X117653475Y-86266632D01*
X117674611Y-86235000D01*
X122742711Y-86235000D01*
X122112711Y-86865000D01*
G37*
X122112711Y-86865000D02*
X117605107Y-86865000D01*
X117446632Y-86706525D01*
X117272240Y-86590000D01*
X117446632Y-86473475D01*
X117653475Y-86266632D01*
X117674611Y-86235000D01*
X122742711Y-86235000D01*
X122112711Y-86865000D01*
G36*
X118254068Y-83735000D02*
G01*
X123742711Y-83735000D01*
X123112711Y-84365000D01*
X117645107Y-84365000D01*
X117446632Y-84166525D01*
X117272240Y-84050000D01*
X117446632Y-83933475D01*
X117645950Y-83734157D01*
X118245509Y-83734157D01*
X118254068Y-83735000D01*
G37*
X118254068Y-83735000D02*
X123742711Y-83735000D01*
X123112711Y-84365000D01*
X117645107Y-84365000D01*
X117446632Y-84166525D01*
X117272240Y-84050000D01*
X117446632Y-83933475D01*
X117645950Y-83734157D01*
X118245509Y-83734157D01*
X118254068Y-83735000D01*
G36*
X124414095Y-81865000D02*
G01*
X118655334Y-81865000D01*
X118646775Y-81864157D01*
X117674048Y-81864157D01*
X117653475Y-81833368D01*
X117446632Y-81626525D01*
X117272240Y-81510000D01*
X117446632Y-81393475D01*
X117653475Y-81186632D01*
X117661247Y-81175000D01*
X125104095Y-81175000D01*
X124414095Y-81865000D01*
G37*
X124414095Y-81865000D02*
X118655334Y-81865000D01*
X118646775Y-81864157D01*
X117674048Y-81864157D01*
X117653475Y-81833368D01*
X117446632Y-81626525D01*
X117272240Y-81510000D01*
X117446632Y-81393475D01*
X117653475Y-81186632D01*
X117661247Y-81175000D01*
X125104095Y-81175000D01*
X124414095Y-81865000D01*
G36*
X119148815Y-70298815D02*
G01*
X119069463Y-70395506D01*
X119010498Y-70505820D01*
X118974188Y-70625518D01*
X118961928Y-70750000D01*
X118961928Y-73250000D01*
X118974188Y-73374482D01*
X119010498Y-73494180D01*
X119069463Y-73604494D01*
X119148815Y-73701185D01*
X119245506Y-73780537D01*
X119355820Y-73839502D01*
X119475518Y-73875812D01*
X119600000Y-73888072D01*
X121400000Y-73888072D01*
X121524482Y-73875812D01*
X121644180Y-73839502D01*
X121754494Y-73780537D01*
X121851185Y-73701185D01*
X121872674Y-73675000D01*
X122486928Y-73675000D01*
X122490000Y-74014250D01*
X122648750Y-74173000D01*
X123873000Y-74173000D01*
X123873000Y-73198750D01*
X123714250Y-73040000D01*
X123125000Y-73036928D01*
X123000518Y-73049188D01*
X122880820Y-73085498D01*
X122770506Y-73144463D01*
X122673815Y-73223815D01*
X122594463Y-73320506D01*
X122535498Y-73430820D01*
X122499188Y-73550518D01*
X122486928Y-73675000D01*
X121872674Y-73675000D01*
X121930537Y-73604494D01*
X121989502Y-73494180D01*
X122025812Y-73374482D01*
X122038072Y-73250000D01*
X122038072Y-72935000D01*
X123454068Y-72935000D01*
X123500000Y-72939524D01*
X123545932Y-72935000D01*
X123683292Y-72921471D01*
X123859540Y-72868007D01*
X124021972Y-72781186D01*
X124044044Y-72763072D01*
X124625000Y-72763072D01*
X124798254Y-72746008D01*
X124964850Y-72695472D01*
X125118386Y-72613405D01*
X125199634Y-72546727D01*
X125229053Y-72643709D01*
X125310542Y-72796164D01*
X125420208Y-72929792D01*
X125426564Y-72935008D01*
X125348815Y-72998815D01*
X125269463Y-73095506D01*
X125239087Y-73152335D01*
X125229494Y-73144463D01*
X125119180Y-73085498D01*
X124999482Y-73049188D01*
X124875000Y-73036928D01*
X124285750Y-73040000D01*
X124127000Y-73198750D01*
X124127000Y-74173000D01*
X124147000Y-74173000D01*
X124147000Y-74427000D01*
X124127000Y-74427000D01*
X124127000Y-75973000D01*
X125351250Y-75973000D01*
X125388750Y-75935500D01*
X126373000Y-75935500D01*
X126373000Y-75098750D01*
X126274250Y-75000000D01*
X126373000Y-74901250D01*
X126373000Y-74064500D01*
X126353000Y-74064500D01*
X126353000Y-73810500D01*
X126373000Y-73810500D01*
X126373000Y-73790500D01*
X126627000Y-73790500D01*
X126627000Y-73810500D01*
X126647000Y-73810500D01*
X126647000Y-74064500D01*
X126627000Y-74064500D01*
X126627000Y-74901250D01*
X126725750Y-75000000D01*
X126627000Y-75098750D01*
X126627000Y-75935500D01*
X126647000Y-75935500D01*
X126647000Y-76189500D01*
X126627000Y-76189500D01*
X126627000Y-76209500D01*
X126373000Y-76209500D01*
X126373000Y-76189500D01*
X125323750Y-76189500D01*
X125286250Y-76227000D01*
X124127000Y-76227000D01*
X124127000Y-77201250D01*
X124285750Y-77360000D01*
X124875000Y-77363072D01*
X124999482Y-77350812D01*
X125119180Y-77314502D01*
X125229494Y-77255537D01*
X125326185Y-77176185D01*
X125405537Y-77079494D01*
X125417337Y-77057419D01*
X125426564Y-77064992D01*
X125420208Y-77070208D01*
X125310542Y-77203836D01*
X125229053Y-77356291D01*
X125178872Y-77521715D01*
X125161928Y-77693750D01*
X125161928Y-77822329D01*
X125118386Y-77786595D01*
X124964850Y-77704528D01*
X124798254Y-77653992D01*
X124625000Y-77636928D01*
X123375000Y-77636928D01*
X123201746Y-77653992D01*
X123035150Y-77704528D01*
X122881614Y-77786595D01*
X122747038Y-77897038D01*
X122636595Y-78031614D01*
X122554528Y-78185150D01*
X122503992Y-78351746D01*
X122486928Y-78525000D01*
X122486928Y-79275000D01*
X122489883Y-79305000D01*
X117661247Y-79305000D01*
X117653475Y-79293368D01*
X117446632Y-79086525D01*
X117264466Y-78964805D01*
X117381355Y-78895178D01*
X117597588Y-78700269D01*
X117771641Y-78466920D01*
X117896825Y-78204099D01*
X117941476Y-78056890D01*
X117820155Y-77827000D01*
X117160000Y-77827000D01*
X117160000Y-77573000D01*
X117820155Y-77573000D01*
X117941476Y-77343110D01*
X117896825Y-77195901D01*
X117771641Y-76933080D01*
X117597588Y-76699731D01*
X117381355Y-76504822D01*
X117264466Y-76435195D01*
X117446632Y-76313475D01*
X117525107Y-76235000D01*
X117812711Y-76235000D01*
X118206374Y-76628664D01*
X118235656Y-76664344D01*
X118378028Y-76781186D01*
X118540460Y-76868007D01*
X118660742Y-76904494D01*
X118716707Y-76921471D01*
X118735110Y-76923283D01*
X118854068Y-76935000D01*
X118854074Y-76935000D01*
X118899999Y-76939523D01*
X118945924Y-76935000D01*
X118961928Y-76935000D01*
X118961928Y-77250000D01*
X118974188Y-77374482D01*
X119010498Y-77494180D01*
X119069463Y-77604494D01*
X119148815Y-77701185D01*
X119245506Y-77780537D01*
X119355820Y-77839502D01*
X119475518Y-77875812D01*
X119600000Y-77888072D01*
X121400000Y-77888072D01*
X121524482Y-77875812D01*
X121644180Y-77839502D01*
X121754494Y-77780537D01*
X121851185Y-77701185D01*
X121930537Y-77604494D01*
X121989502Y-77494180D01*
X122025812Y-77374482D01*
X122038072Y-77250000D01*
X122038072Y-76725000D01*
X122486928Y-76725000D01*
X122499188Y-76849482D01*
X122535498Y-76969180D01*
X122594463Y-77079494D01*
X122673815Y-77176185D01*
X122770506Y-77255537D01*
X122880820Y-77314502D01*
X123000518Y-77350812D01*
X123125000Y-77363072D01*
X123714250Y-77360000D01*
X123873000Y-77201250D01*
X123873000Y-76227000D01*
X122648750Y-76227000D01*
X122490000Y-76385750D01*
X122486928Y-76725000D01*
X122038072Y-76725000D01*
X122038072Y-74925000D01*
X122486928Y-74925000D01*
X122499188Y-75049482D01*
X122535498Y-75169180D01*
X122551972Y-75200000D01*
X122535498Y-75230820D01*
X122499188Y-75350518D01*
X122486928Y-75475000D01*
X122490000Y-75814250D01*
X122648750Y-75973000D01*
X123873000Y-75973000D01*
X123873000Y-74427000D01*
X122648750Y-74427000D01*
X122490000Y-74585750D01*
X122486928Y-74925000D01*
X122038072Y-74925000D01*
X122038072Y-74750000D01*
X122025812Y-74625518D01*
X121989502Y-74505820D01*
X121930537Y-74395506D01*
X121851185Y-74298815D01*
X121754494Y-74219463D01*
X121644180Y-74160498D01*
X121524482Y-74124188D01*
X121400000Y-74111928D01*
X119600000Y-74111928D01*
X119475518Y-74124188D01*
X119355820Y-74160498D01*
X119245506Y-74219463D01*
X119148815Y-74298815D01*
X119069463Y-74395506D01*
X119010498Y-74505820D01*
X118974188Y-74625518D01*
X118962857Y-74740568D01*
X118893630Y-74671341D01*
X118864344Y-74635656D01*
X118721972Y-74518814D01*
X118559540Y-74431993D01*
X118383292Y-74378529D01*
X118324544Y-74372743D01*
X118260313Y-74338411D01*
X118206960Y-74322226D01*
X118154883Y-74302298D01*
X118123732Y-74296979D01*
X118093490Y-74287805D01*
X118037992Y-74282339D01*
X117983040Y-74272956D01*
X117907972Y-74275000D01*
X117694656Y-74275000D01*
X117653475Y-74213368D01*
X117446632Y-74006525D01*
X117272240Y-73890000D01*
X117446632Y-73773475D01*
X117653475Y-73566632D01*
X117815990Y-73323411D01*
X117927932Y-73053158D01*
X117985000Y-72766260D01*
X117985000Y-72473740D01*
X117927932Y-72186842D01*
X117815990Y-71916589D01*
X117653475Y-71673368D01*
X117446632Y-71466525D01*
X117272240Y-71350000D01*
X117446632Y-71233475D01*
X117653475Y-71026632D01*
X117815990Y-70783411D01*
X117927932Y-70513158D01*
X117985000Y-70226260D01*
X117985000Y-70220000D01*
X119244852Y-70220000D01*
X119148815Y-70298815D01*
G37*
X119148815Y-70298815D02*
X119069463Y-70395506D01*
X119010498Y-70505820D01*
X118974188Y-70625518D01*
X118961928Y-70750000D01*
X118961928Y-73250000D01*
X118974188Y-73374482D01*
X119010498Y-73494180D01*
X119069463Y-73604494D01*
X119148815Y-73701185D01*
X119245506Y-73780537D01*
X119355820Y-73839502D01*
X119475518Y-73875812D01*
X119600000Y-73888072D01*
X121400000Y-73888072D01*
X121524482Y-73875812D01*
X121644180Y-73839502D01*
X121754494Y-73780537D01*
X121851185Y-73701185D01*
X121872674Y-73675000D01*
X122486928Y-73675000D01*
X122490000Y-74014250D01*
X122648750Y-74173000D01*
X123873000Y-74173000D01*
X123873000Y-73198750D01*
X123714250Y-73040000D01*
X123125000Y-73036928D01*
X123000518Y-73049188D01*
X122880820Y-73085498D01*
X122770506Y-73144463D01*
X122673815Y-73223815D01*
X122594463Y-73320506D01*
X122535498Y-73430820D01*
X122499188Y-73550518D01*
X122486928Y-73675000D01*
X121872674Y-73675000D01*
X121930537Y-73604494D01*
X121989502Y-73494180D01*
X122025812Y-73374482D01*
X122038072Y-73250000D01*
X122038072Y-72935000D01*
X123454068Y-72935000D01*
X123500000Y-72939524D01*
X123545932Y-72935000D01*
X123683292Y-72921471D01*
X123859540Y-72868007D01*
X124021972Y-72781186D01*
X124044044Y-72763072D01*
X124625000Y-72763072D01*
X124798254Y-72746008D01*
X124964850Y-72695472D01*
X125118386Y-72613405D01*
X125199634Y-72546727D01*
X125229053Y-72643709D01*
X125310542Y-72796164D01*
X125420208Y-72929792D01*
X125426564Y-72935008D01*
X125348815Y-72998815D01*
X125269463Y-73095506D01*
X125239087Y-73152335D01*
X125229494Y-73144463D01*
X125119180Y-73085498D01*
X124999482Y-73049188D01*
X124875000Y-73036928D01*
X124285750Y-73040000D01*
X124127000Y-73198750D01*
X124127000Y-74173000D01*
X124147000Y-74173000D01*
X124147000Y-74427000D01*
X124127000Y-74427000D01*
X124127000Y-75973000D01*
X125351250Y-75973000D01*
X125388750Y-75935500D01*
X126373000Y-75935500D01*
X126373000Y-75098750D01*
X126274250Y-75000000D01*
X126373000Y-74901250D01*
X126373000Y-74064500D01*
X126353000Y-74064500D01*
X126353000Y-73810500D01*
X126373000Y-73810500D01*
X126373000Y-73790500D01*
X126627000Y-73790500D01*
X126627000Y-73810500D01*
X126647000Y-73810500D01*
X126647000Y-74064500D01*
X126627000Y-74064500D01*
X126627000Y-74901250D01*
X126725750Y-75000000D01*
X126627000Y-75098750D01*
X126627000Y-75935500D01*
X126647000Y-75935500D01*
X126647000Y-76189500D01*
X126627000Y-76189500D01*
X126627000Y-76209500D01*
X126373000Y-76209500D01*
X126373000Y-76189500D01*
X125323750Y-76189500D01*
X125286250Y-76227000D01*
X124127000Y-76227000D01*
X124127000Y-77201250D01*
X124285750Y-77360000D01*
X124875000Y-77363072D01*
X124999482Y-77350812D01*
X125119180Y-77314502D01*
X125229494Y-77255537D01*
X125326185Y-77176185D01*
X125405537Y-77079494D01*
X125417337Y-77057419D01*
X125426564Y-77064992D01*
X125420208Y-77070208D01*
X125310542Y-77203836D01*
X125229053Y-77356291D01*
X125178872Y-77521715D01*
X125161928Y-77693750D01*
X125161928Y-77822329D01*
X125118386Y-77786595D01*
X124964850Y-77704528D01*
X124798254Y-77653992D01*
X124625000Y-77636928D01*
X123375000Y-77636928D01*
X123201746Y-77653992D01*
X123035150Y-77704528D01*
X122881614Y-77786595D01*
X122747038Y-77897038D01*
X122636595Y-78031614D01*
X122554528Y-78185150D01*
X122503992Y-78351746D01*
X122486928Y-78525000D01*
X122486928Y-79275000D01*
X122489883Y-79305000D01*
X117661247Y-79305000D01*
X117653475Y-79293368D01*
X117446632Y-79086525D01*
X117264466Y-78964805D01*
X117381355Y-78895178D01*
X117597588Y-78700269D01*
X117771641Y-78466920D01*
X117896825Y-78204099D01*
X117941476Y-78056890D01*
X117820155Y-77827000D01*
X117160000Y-77827000D01*
X117160000Y-77573000D01*
X117820155Y-77573000D01*
X117941476Y-77343110D01*
X117896825Y-77195901D01*
X117771641Y-76933080D01*
X117597588Y-76699731D01*
X117381355Y-76504822D01*
X117264466Y-76435195D01*
X117446632Y-76313475D01*
X117525107Y-76235000D01*
X117812711Y-76235000D01*
X118206374Y-76628664D01*
X118235656Y-76664344D01*
X118378028Y-76781186D01*
X118540460Y-76868007D01*
X118660742Y-76904494D01*
X118716707Y-76921471D01*
X118735110Y-76923283D01*
X118854068Y-76935000D01*
X118854074Y-76935000D01*
X118899999Y-76939523D01*
X118945924Y-76935000D01*
X118961928Y-76935000D01*
X118961928Y-77250000D01*
X118974188Y-77374482D01*
X119010498Y-77494180D01*
X119069463Y-77604494D01*
X119148815Y-77701185D01*
X119245506Y-77780537D01*
X119355820Y-77839502D01*
X119475518Y-77875812D01*
X119600000Y-77888072D01*
X121400000Y-77888072D01*
X121524482Y-77875812D01*
X121644180Y-77839502D01*
X121754494Y-77780537D01*
X121851185Y-77701185D01*
X121930537Y-77604494D01*
X121989502Y-77494180D01*
X122025812Y-77374482D01*
X122038072Y-77250000D01*
X122038072Y-76725000D01*
X122486928Y-76725000D01*
X122499188Y-76849482D01*
X122535498Y-76969180D01*
X122594463Y-77079494D01*
X122673815Y-77176185D01*
X122770506Y-77255537D01*
X122880820Y-77314502D01*
X123000518Y-77350812D01*
X123125000Y-77363072D01*
X123714250Y-77360000D01*
X123873000Y-77201250D01*
X123873000Y-76227000D01*
X122648750Y-76227000D01*
X122490000Y-76385750D01*
X122486928Y-76725000D01*
X122038072Y-76725000D01*
X122038072Y-74925000D01*
X122486928Y-74925000D01*
X122499188Y-75049482D01*
X122535498Y-75169180D01*
X122551972Y-75200000D01*
X122535498Y-75230820D01*
X122499188Y-75350518D01*
X122486928Y-75475000D01*
X122490000Y-75814250D01*
X122648750Y-75973000D01*
X123873000Y-75973000D01*
X123873000Y-74427000D01*
X122648750Y-74427000D01*
X122490000Y-74585750D01*
X122486928Y-74925000D01*
X122038072Y-74925000D01*
X122038072Y-74750000D01*
X122025812Y-74625518D01*
X121989502Y-74505820D01*
X121930537Y-74395506D01*
X121851185Y-74298815D01*
X121754494Y-74219463D01*
X121644180Y-74160498D01*
X121524482Y-74124188D01*
X121400000Y-74111928D01*
X119600000Y-74111928D01*
X119475518Y-74124188D01*
X119355820Y-74160498D01*
X119245506Y-74219463D01*
X119148815Y-74298815D01*
X119069463Y-74395506D01*
X119010498Y-74505820D01*
X118974188Y-74625518D01*
X118962857Y-74740568D01*
X118893630Y-74671341D01*
X118864344Y-74635656D01*
X118721972Y-74518814D01*
X118559540Y-74431993D01*
X118383292Y-74378529D01*
X118324544Y-74372743D01*
X118260313Y-74338411D01*
X118206960Y-74322226D01*
X118154883Y-74302298D01*
X118123732Y-74296979D01*
X118093490Y-74287805D01*
X118037992Y-74282339D01*
X117983040Y-74272956D01*
X117907972Y-74275000D01*
X117694656Y-74275000D01*
X117653475Y-74213368D01*
X117446632Y-74006525D01*
X117272240Y-73890000D01*
X117446632Y-73773475D01*
X117653475Y-73566632D01*
X117815990Y-73323411D01*
X117927932Y-73053158D01*
X117985000Y-72766260D01*
X117985000Y-72473740D01*
X117927932Y-72186842D01*
X117815990Y-71916589D01*
X117653475Y-71673368D01*
X117446632Y-71466525D01*
X117272240Y-71350000D01*
X117446632Y-71233475D01*
X117653475Y-71026632D01*
X117815990Y-70783411D01*
X117927932Y-70513158D01*
X117985000Y-70226260D01*
X117985000Y-70220000D01*
X119244852Y-70220000D01*
X119148815Y-70298815D01*
G36*
X127829586Y-74511164D02*
G01*
X127831473Y-74492002D01*
X127848748Y-74492002D01*
X127829586Y-74511164D01*
G37*
X127829586Y-74511164D02*
X127831473Y-74492002D01*
X127848748Y-74492002D01*
X127829586Y-74511164D01*
G36*
X126177711Y-67080000D02*
G01*
X125302289Y-67080000D01*
X125193631Y-66971342D01*
X125164344Y-66935656D01*
X125021972Y-66818814D01*
X124859540Y-66731993D01*
X124683292Y-66678529D01*
X124545932Y-66665000D01*
X124500000Y-66660476D01*
X124454068Y-66665000D01*
X117821290Y-66665000D01*
X117759540Y-66631994D01*
X117658881Y-66601459D01*
X117653475Y-66593368D01*
X117521620Y-66461513D01*
X117594180Y-66439502D01*
X117704494Y-66380537D01*
X117801185Y-66301185D01*
X117880537Y-66204494D01*
X117939502Y-66094180D01*
X117975812Y-65974482D01*
X117979701Y-65935000D01*
X125032711Y-65935000D01*
X126177711Y-67080000D01*
G37*
X126177711Y-67080000D02*
X125302289Y-67080000D01*
X125193631Y-66971342D01*
X125164344Y-66935656D01*
X125021972Y-66818814D01*
X124859540Y-66731993D01*
X124683292Y-66678529D01*
X124545932Y-66665000D01*
X124500000Y-66660476D01*
X124454068Y-66665000D01*
X117821290Y-66665000D01*
X117759540Y-66631994D01*
X117658881Y-66601459D01*
X117653475Y-66593368D01*
X117521620Y-66461513D01*
X117594180Y-66439502D01*
X117704494Y-66380537D01*
X117801185Y-66301185D01*
X117880537Y-66204494D01*
X117939502Y-66094180D01*
X117975812Y-65974482D01*
X117979701Y-65935000D01*
X125032711Y-65935000D01*
X126177711Y-67080000D01*
M02*
