M48
; DRILL file {KiCad (5.1.5)-3} date 23/04/2020 23:36:30
; FORMAT={-:-/ absolute / inch / decimal}
; #@! TF.CreationDate,2020-04-23T23:36:30+02:00
; #@! TF.GenerationSoftware,Kicad,Pcbnew,(5.1.5)-3
; #@! TF.FileFunction,Plated,1,2,PTH
FMAT,2
INCH
T1C0.0236
T2C0.0394
%
G90
G05
T1
X4.685Y-2.6181
X4.685Y-3.1102
X4.685Y-3.2087
X4.685Y-3.3071
X4.685Y-3.4055
X4.7638Y-3.1102
X4.9409Y-2.8146
X4.9424Y-3.1063
X5.0059Y-2.7764
X5.1969Y-2.5591
X5.1969Y-2.6378
X5.1969Y-2.7165
X5.1969Y-2.7953
X5.1969Y-2.874
X5.1969Y-2.9528
X5.1969Y-3.0315
X5.1969Y-3.1102
X5.1969Y-3.189
X5.1969Y-3.2677
X5.1969Y-3.3465
X5.1969Y-3.4252
X5.2756Y-2.5591
X5.2756Y-2.6378
X5.2756Y-2.7165
X5.2756Y-2.7953
X5.2756Y-2.874
X5.2756Y-2.9528
X5.2756Y-3.0315
X5.2756Y-3.1102
X5.2756Y-3.189
X5.2756Y-3.2677
X5.2756Y-3.3465
X5.2756Y-3.4252
X5.3543Y-2.5591
X5.3543Y-2.6378
X5.3543Y-2.7165
X5.3543Y-2.7953
X5.3543Y-2.874
X5.3543Y-2.9528
X5.3543Y-3.0315
X5.3543Y-3.1102
X5.3543Y-3.189
X5.3543Y-3.2677
X5.3543Y-3.3465
X5.3543Y-3.4252
X5.5512Y-2.9528
T2
X5.689Y-2.5591
X5.689Y-2.6591
X5.689Y-2.7591
X5.689Y-2.8591
X5.689Y-2.9591
X5.689Y-3.0591
X5.689Y-3.1591
X5.689Y-3.2591
X5.689Y-3.3591
X5.689Y-3.4591
X4.5866Y-2.5591
X4.5866Y-2.6591
X4.5866Y-2.7591
X4.5866Y-2.8591
X4.5866Y-2.9591
X4.5866Y-3.0591
X4.5866Y-3.1591
X4.5866Y-3.2591
X4.5866Y-3.3591
X4.5866Y-3.4591
T0
M30
