G04 #@! TF.GenerationSoftware,KiCad,Pcbnew,(5.1.5)-3*
G04 #@! TF.CreationDate,2020-04-23T23:36:20+02:00*
G04 #@! TF.ProjectId,01_spi_pont_H,30315f73-7069-45f7-906f-6e745f482e6b,rev?*
G04 #@! TF.SameCoordinates,Original*
G04 #@! TF.FileFunction,Soldermask,Bot*
G04 #@! TF.FilePolarity,Negative*
%FSLAX46Y46*%
G04 Gerber Fmt 4.6, Leading zero omitted, Abs format (unit mm)*
G04 Created by KiCad (PCBNEW (5.1.5)-3) date 2020-04-23 23:36:20*
%MOMM*%
%LPD*%
G04 APERTURE LIST*
%ADD10C,0.100000*%
G04 APERTURE END LIST*
D10*
G36*
X144613512Y-86963927D02*
G01*
X144762812Y-86993624D01*
X144926784Y-87061544D01*
X145074354Y-87160147D01*
X145199853Y-87285646D01*
X145298456Y-87433216D01*
X145366376Y-87597188D01*
X145401000Y-87771259D01*
X145401000Y-87948741D01*
X145366376Y-88122812D01*
X145298456Y-88286784D01*
X145199853Y-88434354D01*
X145074354Y-88559853D01*
X144926784Y-88658456D01*
X144762812Y-88726376D01*
X144613512Y-88756073D01*
X144588742Y-88761000D01*
X144411258Y-88761000D01*
X144386488Y-88756073D01*
X144237188Y-88726376D01*
X144073216Y-88658456D01*
X143925646Y-88559853D01*
X143800147Y-88434354D01*
X143701544Y-88286784D01*
X143633624Y-88122812D01*
X143599000Y-87948741D01*
X143599000Y-87771259D01*
X143633624Y-87597188D01*
X143701544Y-87433216D01*
X143800147Y-87285646D01*
X143925646Y-87160147D01*
X144073216Y-87061544D01*
X144237188Y-86993624D01*
X144386488Y-86963927D01*
X144411258Y-86959000D01*
X144588742Y-86959000D01*
X144613512Y-86963927D01*
G37*
G36*
X116613512Y-86963927D02*
G01*
X116762812Y-86993624D01*
X116926784Y-87061544D01*
X117074354Y-87160147D01*
X117199853Y-87285646D01*
X117298456Y-87433216D01*
X117366376Y-87597188D01*
X117401000Y-87771259D01*
X117401000Y-87948741D01*
X117366376Y-88122812D01*
X117298456Y-88286784D01*
X117199853Y-88434354D01*
X117074354Y-88559853D01*
X116926784Y-88658456D01*
X116762812Y-88726376D01*
X116613512Y-88756073D01*
X116588742Y-88761000D01*
X116411258Y-88761000D01*
X116386488Y-88756073D01*
X116237188Y-88726376D01*
X116073216Y-88658456D01*
X115925646Y-88559853D01*
X115800147Y-88434354D01*
X115701544Y-88286784D01*
X115633624Y-88122812D01*
X115599000Y-87948741D01*
X115599000Y-87771259D01*
X115633624Y-87597188D01*
X115701544Y-87433216D01*
X115800147Y-87285646D01*
X115925646Y-87160147D01*
X116073216Y-87061544D01*
X116237188Y-86993624D01*
X116386488Y-86963927D01*
X116411258Y-86959000D01*
X116588742Y-86959000D01*
X116613512Y-86963927D01*
G37*
G36*
X116613512Y-84423927D02*
G01*
X116762812Y-84453624D01*
X116926784Y-84521544D01*
X117074354Y-84620147D01*
X117199853Y-84745646D01*
X117298456Y-84893216D01*
X117366376Y-85057188D01*
X117401000Y-85231259D01*
X117401000Y-85408741D01*
X117366376Y-85582812D01*
X117298456Y-85746784D01*
X117199853Y-85894354D01*
X117074354Y-86019853D01*
X116926784Y-86118456D01*
X116762812Y-86186376D01*
X116613512Y-86216073D01*
X116588742Y-86221000D01*
X116411258Y-86221000D01*
X116386488Y-86216073D01*
X116237188Y-86186376D01*
X116073216Y-86118456D01*
X115925646Y-86019853D01*
X115800147Y-85894354D01*
X115701544Y-85746784D01*
X115633624Y-85582812D01*
X115599000Y-85408741D01*
X115599000Y-85231259D01*
X115633624Y-85057188D01*
X115701544Y-84893216D01*
X115800147Y-84745646D01*
X115925646Y-84620147D01*
X116073216Y-84521544D01*
X116237188Y-84453624D01*
X116386488Y-84423927D01*
X116411258Y-84419000D01*
X116588742Y-84419000D01*
X116613512Y-84423927D01*
G37*
G36*
X144613512Y-84423927D02*
G01*
X144762812Y-84453624D01*
X144926784Y-84521544D01*
X145074354Y-84620147D01*
X145199853Y-84745646D01*
X145298456Y-84893216D01*
X145366376Y-85057188D01*
X145401000Y-85231259D01*
X145401000Y-85408741D01*
X145366376Y-85582812D01*
X145298456Y-85746784D01*
X145199853Y-85894354D01*
X145074354Y-86019853D01*
X144926784Y-86118456D01*
X144762812Y-86186376D01*
X144613512Y-86216073D01*
X144588742Y-86221000D01*
X144411258Y-86221000D01*
X144386488Y-86216073D01*
X144237188Y-86186376D01*
X144073216Y-86118456D01*
X143925646Y-86019853D01*
X143800147Y-85894354D01*
X143701544Y-85746784D01*
X143633624Y-85582812D01*
X143599000Y-85408741D01*
X143599000Y-85231259D01*
X143633624Y-85057188D01*
X143701544Y-84893216D01*
X143800147Y-84745646D01*
X143925646Y-84620147D01*
X144073216Y-84521544D01*
X144237188Y-84453624D01*
X144386488Y-84423927D01*
X144411258Y-84419000D01*
X144588742Y-84419000D01*
X144613512Y-84423927D01*
G37*
G36*
X116613512Y-81883927D02*
G01*
X116762812Y-81913624D01*
X116926784Y-81981544D01*
X117074354Y-82080147D01*
X117199853Y-82205646D01*
X117298456Y-82353216D01*
X117366376Y-82517188D01*
X117401000Y-82691259D01*
X117401000Y-82868741D01*
X117366376Y-83042812D01*
X117298456Y-83206784D01*
X117199853Y-83354354D01*
X117074354Y-83479853D01*
X116926784Y-83578456D01*
X116762812Y-83646376D01*
X116613512Y-83676073D01*
X116588742Y-83681000D01*
X116411258Y-83681000D01*
X116386488Y-83676073D01*
X116237188Y-83646376D01*
X116073216Y-83578456D01*
X115925646Y-83479853D01*
X115800147Y-83354354D01*
X115701544Y-83206784D01*
X115633624Y-83042812D01*
X115599000Y-82868741D01*
X115599000Y-82691259D01*
X115633624Y-82517188D01*
X115701544Y-82353216D01*
X115800147Y-82205646D01*
X115925646Y-82080147D01*
X116073216Y-81981544D01*
X116237188Y-81913624D01*
X116386488Y-81883927D01*
X116411258Y-81879000D01*
X116588742Y-81879000D01*
X116613512Y-81883927D01*
G37*
G36*
X144613512Y-81883927D02*
G01*
X144762812Y-81913624D01*
X144926784Y-81981544D01*
X145074354Y-82080147D01*
X145199853Y-82205646D01*
X145298456Y-82353216D01*
X145366376Y-82517188D01*
X145401000Y-82691259D01*
X145401000Y-82868741D01*
X145366376Y-83042812D01*
X145298456Y-83206784D01*
X145199853Y-83354354D01*
X145074354Y-83479853D01*
X144926784Y-83578456D01*
X144762812Y-83646376D01*
X144613512Y-83676073D01*
X144588742Y-83681000D01*
X144411258Y-83681000D01*
X144386488Y-83676073D01*
X144237188Y-83646376D01*
X144073216Y-83578456D01*
X143925646Y-83479853D01*
X143800147Y-83354354D01*
X143701544Y-83206784D01*
X143633624Y-83042812D01*
X143599000Y-82868741D01*
X143599000Y-82691259D01*
X143633624Y-82517188D01*
X143701544Y-82353216D01*
X143800147Y-82205646D01*
X143925646Y-82080147D01*
X144073216Y-81981544D01*
X144237188Y-81913624D01*
X144386488Y-81883927D01*
X144411258Y-81879000D01*
X144588742Y-81879000D01*
X144613512Y-81883927D01*
G37*
G36*
X144613512Y-79343927D02*
G01*
X144762812Y-79373624D01*
X144926784Y-79441544D01*
X145074354Y-79540147D01*
X145199853Y-79665646D01*
X145298456Y-79813216D01*
X145366376Y-79977188D01*
X145401000Y-80151259D01*
X145401000Y-80328741D01*
X145366376Y-80502812D01*
X145298456Y-80666784D01*
X145199853Y-80814354D01*
X145074354Y-80939853D01*
X144926784Y-81038456D01*
X144762812Y-81106376D01*
X144613512Y-81136073D01*
X144588742Y-81141000D01*
X144411258Y-81141000D01*
X144386488Y-81136073D01*
X144237188Y-81106376D01*
X144073216Y-81038456D01*
X143925646Y-80939853D01*
X143800147Y-80814354D01*
X143701544Y-80666784D01*
X143633624Y-80502812D01*
X143599000Y-80328741D01*
X143599000Y-80151259D01*
X143633624Y-79977188D01*
X143701544Y-79813216D01*
X143800147Y-79665646D01*
X143925646Y-79540147D01*
X144073216Y-79441544D01*
X144237188Y-79373624D01*
X144386488Y-79343927D01*
X144411258Y-79339000D01*
X144588742Y-79339000D01*
X144613512Y-79343927D01*
G37*
G36*
X116613512Y-79343927D02*
G01*
X116762812Y-79373624D01*
X116926784Y-79441544D01*
X117074354Y-79540147D01*
X117199853Y-79665646D01*
X117298456Y-79813216D01*
X117366376Y-79977188D01*
X117401000Y-80151259D01*
X117401000Y-80328741D01*
X117366376Y-80502812D01*
X117298456Y-80666784D01*
X117199853Y-80814354D01*
X117074354Y-80939853D01*
X116926784Y-81038456D01*
X116762812Y-81106376D01*
X116613512Y-81136073D01*
X116588742Y-81141000D01*
X116411258Y-81141000D01*
X116386488Y-81136073D01*
X116237188Y-81106376D01*
X116073216Y-81038456D01*
X115925646Y-80939853D01*
X115800147Y-80814354D01*
X115701544Y-80666784D01*
X115633624Y-80502812D01*
X115599000Y-80328741D01*
X115599000Y-80151259D01*
X115633624Y-79977188D01*
X115701544Y-79813216D01*
X115800147Y-79665646D01*
X115925646Y-79540147D01*
X116073216Y-79441544D01*
X116237188Y-79373624D01*
X116386488Y-79343927D01*
X116411258Y-79339000D01*
X116588742Y-79339000D01*
X116613512Y-79343927D01*
G37*
G36*
X144613512Y-76803927D02*
G01*
X144762812Y-76833624D01*
X144926784Y-76901544D01*
X145074354Y-77000147D01*
X145199853Y-77125646D01*
X145298456Y-77273216D01*
X145366376Y-77437188D01*
X145401000Y-77611259D01*
X145401000Y-77788741D01*
X145366376Y-77962812D01*
X145298456Y-78126784D01*
X145199853Y-78274354D01*
X145074354Y-78399853D01*
X144926784Y-78498456D01*
X144762812Y-78566376D01*
X144613512Y-78596073D01*
X144588742Y-78601000D01*
X144411258Y-78601000D01*
X144386488Y-78596073D01*
X144237188Y-78566376D01*
X144073216Y-78498456D01*
X143925646Y-78399853D01*
X143800147Y-78274354D01*
X143701544Y-78126784D01*
X143633624Y-77962812D01*
X143599000Y-77788741D01*
X143599000Y-77611259D01*
X143633624Y-77437188D01*
X143701544Y-77273216D01*
X143800147Y-77125646D01*
X143925646Y-77000147D01*
X144073216Y-76901544D01*
X144237188Y-76833624D01*
X144386488Y-76803927D01*
X144411258Y-76799000D01*
X144588742Y-76799000D01*
X144613512Y-76803927D01*
G37*
G36*
X116613512Y-76803927D02*
G01*
X116762812Y-76833624D01*
X116926784Y-76901544D01*
X117074354Y-77000147D01*
X117199853Y-77125646D01*
X117298456Y-77273216D01*
X117366376Y-77437188D01*
X117401000Y-77611259D01*
X117401000Y-77788741D01*
X117366376Y-77962812D01*
X117298456Y-78126784D01*
X117199853Y-78274354D01*
X117074354Y-78399853D01*
X116926784Y-78498456D01*
X116762812Y-78566376D01*
X116613512Y-78596073D01*
X116588742Y-78601000D01*
X116411258Y-78601000D01*
X116386488Y-78596073D01*
X116237188Y-78566376D01*
X116073216Y-78498456D01*
X115925646Y-78399853D01*
X115800147Y-78274354D01*
X115701544Y-78126784D01*
X115633624Y-77962812D01*
X115599000Y-77788741D01*
X115599000Y-77611259D01*
X115633624Y-77437188D01*
X115701544Y-77273216D01*
X115800147Y-77125646D01*
X115925646Y-77000147D01*
X116073216Y-76901544D01*
X116237188Y-76833624D01*
X116386488Y-76803927D01*
X116411258Y-76799000D01*
X116588742Y-76799000D01*
X116613512Y-76803927D01*
G37*
G36*
X144613512Y-74263927D02*
G01*
X144762812Y-74293624D01*
X144926784Y-74361544D01*
X145074354Y-74460147D01*
X145199853Y-74585646D01*
X145298456Y-74733216D01*
X145366376Y-74897188D01*
X145401000Y-75071259D01*
X145401000Y-75248741D01*
X145366376Y-75422812D01*
X145298456Y-75586784D01*
X145199853Y-75734354D01*
X145074354Y-75859853D01*
X144926784Y-75958456D01*
X144762812Y-76026376D01*
X144613512Y-76056073D01*
X144588742Y-76061000D01*
X144411258Y-76061000D01*
X144386488Y-76056073D01*
X144237188Y-76026376D01*
X144073216Y-75958456D01*
X143925646Y-75859853D01*
X143800147Y-75734354D01*
X143701544Y-75586784D01*
X143633624Y-75422812D01*
X143599000Y-75248741D01*
X143599000Y-75071259D01*
X143633624Y-74897188D01*
X143701544Y-74733216D01*
X143800147Y-74585646D01*
X143925646Y-74460147D01*
X144073216Y-74361544D01*
X144237188Y-74293624D01*
X144386488Y-74263927D01*
X144411258Y-74259000D01*
X144588742Y-74259000D01*
X144613512Y-74263927D01*
G37*
G36*
X116613512Y-74263927D02*
G01*
X116762812Y-74293624D01*
X116926784Y-74361544D01*
X117074354Y-74460147D01*
X117199853Y-74585646D01*
X117298456Y-74733216D01*
X117366376Y-74897188D01*
X117401000Y-75071259D01*
X117401000Y-75248741D01*
X117366376Y-75422812D01*
X117298456Y-75586784D01*
X117199853Y-75734354D01*
X117074354Y-75859853D01*
X116926784Y-75958456D01*
X116762812Y-76026376D01*
X116613512Y-76056073D01*
X116588742Y-76061000D01*
X116411258Y-76061000D01*
X116386488Y-76056073D01*
X116237188Y-76026376D01*
X116073216Y-75958456D01*
X115925646Y-75859853D01*
X115800147Y-75734354D01*
X115701544Y-75586784D01*
X115633624Y-75422812D01*
X115599000Y-75248741D01*
X115599000Y-75071259D01*
X115633624Y-74897188D01*
X115701544Y-74733216D01*
X115800147Y-74585646D01*
X115925646Y-74460147D01*
X116073216Y-74361544D01*
X116237188Y-74293624D01*
X116386488Y-74263927D01*
X116411258Y-74259000D01*
X116588742Y-74259000D01*
X116613512Y-74263927D01*
G37*
G36*
X144613512Y-71723927D02*
G01*
X144762812Y-71753624D01*
X144926784Y-71821544D01*
X145074354Y-71920147D01*
X145199853Y-72045646D01*
X145298456Y-72193216D01*
X145366376Y-72357188D01*
X145401000Y-72531259D01*
X145401000Y-72708741D01*
X145366376Y-72882812D01*
X145298456Y-73046784D01*
X145199853Y-73194354D01*
X145074354Y-73319853D01*
X144926784Y-73418456D01*
X144762812Y-73486376D01*
X144613512Y-73516073D01*
X144588742Y-73521000D01*
X144411258Y-73521000D01*
X144386488Y-73516073D01*
X144237188Y-73486376D01*
X144073216Y-73418456D01*
X143925646Y-73319853D01*
X143800147Y-73194354D01*
X143701544Y-73046784D01*
X143633624Y-72882812D01*
X143599000Y-72708741D01*
X143599000Y-72531259D01*
X143633624Y-72357188D01*
X143701544Y-72193216D01*
X143800147Y-72045646D01*
X143925646Y-71920147D01*
X144073216Y-71821544D01*
X144237188Y-71753624D01*
X144386488Y-71723927D01*
X144411258Y-71719000D01*
X144588742Y-71719000D01*
X144613512Y-71723927D01*
G37*
G36*
X116613512Y-71723927D02*
G01*
X116762812Y-71753624D01*
X116926784Y-71821544D01*
X117074354Y-71920147D01*
X117199853Y-72045646D01*
X117298456Y-72193216D01*
X117366376Y-72357188D01*
X117401000Y-72531259D01*
X117401000Y-72708741D01*
X117366376Y-72882812D01*
X117298456Y-73046784D01*
X117199853Y-73194354D01*
X117074354Y-73319853D01*
X116926784Y-73418456D01*
X116762812Y-73486376D01*
X116613512Y-73516073D01*
X116588742Y-73521000D01*
X116411258Y-73521000D01*
X116386488Y-73516073D01*
X116237188Y-73486376D01*
X116073216Y-73418456D01*
X115925646Y-73319853D01*
X115800147Y-73194354D01*
X115701544Y-73046784D01*
X115633624Y-72882812D01*
X115599000Y-72708741D01*
X115599000Y-72531259D01*
X115633624Y-72357188D01*
X115701544Y-72193216D01*
X115800147Y-72045646D01*
X115925646Y-71920147D01*
X116073216Y-71821544D01*
X116237188Y-71753624D01*
X116386488Y-71723927D01*
X116411258Y-71719000D01*
X116588742Y-71719000D01*
X116613512Y-71723927D01*
G37*
G36*
X116613512Y-69183927D02*
G01*
X116762812Y-69213624D01*
X116926784Y-69281544D01*
X117074354Y-69380147D01*
X117199853Y-69505646D01*
X117298456Y-69653216D01*
X117366376Y-69817188D01*
X117401000Y-69991259D01*
X117401000Y-70168741D01*
X117366376Y-70342812D01*
X117298456Y-70506784D01*
X117199853Y-70654354D01*
X117074354Y-70779853D01*
X116926784Y-70878456D01*
X116762812Y-70946376D01*
X116613512Y-70976073D01*
X116588742Y-70981000D01*
X116411258Y-70981000D01*
X116386488Y-70976073D01*
X116237188Y-70946376D01*
X116073216Y-70878456D01*
X115925646Y-70779853D01*
X115800147Y-70654354D01*
X115701544Y-70506784D01*
X115633624Y-70342812D01*
X115599000Y-70168741D01*
X115599000Y-69991259D01*
X115633624Y-69817188D01*
X115701544Y-69653216D01*
X115800147Y-69505646D01*
X115925646Y-69380147D01*
X116073216Y-69281544D01*
X116237188Y-69213624D01*
X116386488Y-69183927D01*
X116411258Y-69179000D01*
X116588742Y-69179000D01*
X116613512Y-69183927D01*
G37*
G36*
X144613512Y-69183927D02*
G01*
X144762812Y-69213624D01*
X144926784Y-69281544D01*
X145074354Y-69380147D01*
X145199853Y-69505646D01*
X145298456Y-69653216D01*
X145366376Y-69817188D01*
X145401000Y-69991259D01*
X145401000Y-70168741D01*
X145366376Y-70342812D01*
X145298456Y-70506784D01*
X145199853Y-70654354D01*
X145074354Y-70779853D01*
X144926784Y-70878456D01*
X144762812Y-70946376D01*
X144613512Y-70976073D01*
X144588742Y-70981000D01*
X144411258Y-70981000D01*
X144386488Y-70976073D01*
X144237188Y-70946376D01*
X144073216Y-70878456D01*
X143925646Y-70779853D01*
X143800147Y-70654354D01*
X143701544Y-70506784D01*
X143633624Y-70342812D01*
X143599000Y-70168741D01*
X143599000Y-69991259D01*
X143633624Y-69817188D01*
X143701544Y-69653216D01*
X143800147Y-69505646D01*
X143925646Y-69380147D01*
X144073216Y-69281544D01*
X144237188Y-69213624D01*
X144386488Y-69183927D01*
X144411258Y-69179000D01*
X144588742Y-69179000D01*
X144613512Y-69183927D01*
G37*
G36*
X116613512Y-66643927D02*
G01*
X116762812Y-66673624D01*
X116926784Y-66741544D01*
X117074354Y-66840147D01*
X117199853Y-66965646D01*
X117298456Y-67113216D01*
X117366376Y-67277188D01*
X117401000Y-67451259D01*
X117401000Y-67628741D01*
X117366376Y-67802812D01*
X117298456Y-67966784D01*
X117199853Y-68114354D01*
X117074354Y-68239853D01*
X116926784Y-68338456D01*
X116762812Y-68406376D01*
X116613512Y-68436073D01*
X116588742Y-68441000D01*
X116411258Y-68441000D01*
X116386488Y-68436073D01*
X116237188Y-68406376D01*
X116073216Y-68338456D01*
X115925646Y-68239853D01*
X115800147Y-68114354D01*
X115701544Y-67966784D01*
X115633624Y-67802812D01*
X115599000Y-67628741D01*
X115599000Y-67451259D01*
X115633624Y-67277188D01*
X115701544Y-67113216D01*
X115800147Y-66965646D01*
X115925646Y-66840147D01*
X116073216Y-66741544D01*
X116237188Y-66673624D01*
X116386488Y-66643927D01*
X116411258Y-66639000D01*
X116588742Y-66639000D01*
X116613512Y-66643927D01*
G37*
G36*
X144613512Y-66643927D02*
G01*
X144762812Y-66673624D01*
X144926784Y-66741544D01*
X145074354Y-66840147D01*
X145199853Y-66965646D01*
X145298456Y-67113216D01*
X145366376Y-67277188D01*
X145401000Y-67451259D01*
X145401000Y-67628741D01*
X145366376Y-67802812D01*
X145298456Y-67966784D01*
X145199853Y-68114354D01*
X145074354Y-68239853D01*
X144926784Y-68338456D01*
X144762812Y-68406376D01*
X144613512Y-68436073D01*
X144588742Y-68441000D01*
X144411258Y-68441000D01*
X144386488Y-68436073D01*
X144237188Y-68406376D01*
X144073216Y-68338456D01*
X143925646Y-68239853D01*
X143800147Y-68114354D01*
X143701544Y-67966784D01*
X143633624Y-67802812D01*
X143599000Y-67628741D01*
X143599000Y-67451259D01*
X143633624Y-67277188D01*
X143701544Y-67113216D01*
X143800147Y-66965646D01*
X143925646Y-66840147D01*
X144073216Y-66741544D01*
X144237188Y-66673624D01*
X144386488Y-66643927D01*
X144411258Y-66639000D01*
X144588742Y-66639000D01*
X144613512Y-66643927D01*
G37*
G36*
X145401000Y-65901000D02*
G01*
X143599000Y-65901000D01*
X143599000Y-64099000D01*
X145401000Y-64099000D01*
X145401000Y-65901000D01*
G37*
G36*
X117401000Y-65901000D02*
G01*
X115599000Y-65901000D01*
X115599000Y-64099000D01*
X117401000Y-64099000D01*
X117401000Y-65901000D01*
G37*
M02*
